<mxfile host="app.diagrams.net" modified="2022-04-07T08:12:51.954Z" agent="5.0 (Windows NT 10.0; Win64; x64) AppleWebKit/537.36 (KHTML, like Gecko) Chrome/100.0.4896.60 Safari/537.36 Edg/100.0.1185.29" etag="yOmbzESF7jTCQpUh5o-7" version="17.4.0" type="github">
  <diagram id="mWEEHtGRWwDNSock3r1E" name="Page-1">
    <mxGraphModel dx="1887" dy="1053" grid="0" gridSize="10" guides="0" tooltips="1" connect="0" arrows="0" fold="1" page="1" pageScale="1" pageWidth="827" pageHeight="1169" math="0" shadow="0">
      <root>
        <mxCell id="0" />
        <mxCell id="1" parent="0" />
        <mxCell id="Z8ohS2dEaN00W4JeJ8_S-4" value="" style="shape=image;verticalLabelPosition=bottom;labelBackgroundColor=default;verticalAlign=top;aspect=fixed;imageAspect=0;image=data:image/png,iVBORw0KGgoAAAANSUhEUgAAAyAAAASwCAYAAAADsS6lAAAAOXRFWHRTb2Z0d2FyZQBNYXRwbG90bGliIHZlcnNpb24zLjUuMSwgaHR0cHM6Ly9tYXRwbG90bGliLm9yZy/YYfK9AAAACXBIWXMAAA9hAAAPYQGoP6dpAAEAAElEQVR4nOzdd1iT594H8G8ACRtEwAWCCEodoLgHrtZRFwpocZxKbbU91m1ta1t3K23dddXTOitOnIDrVHEiLkQclKqA4ASqsofA/f7hmxxjwo7BwPdzXblq7v3EHM/zy3MPiRBCgIiIiIiISAN0KnsARERERERUfTAAISIiIiIijWEAQkREREREGsMAhIiIiIiINIYBCBERERERaQwDECIiIiIi0hgGIEREREREpDEMQIiIiIiISGMYgBARERERkcYwACEiIiIiIo1hAEJERERERBrDAISIiIiIiDSGAQgREREREWkMAxAiIiIiItIYrQpArly5gh9//BFeXl6wtbWFRCKBRCIpd3vPnj3D5MmTYW9vD6lUCnt7e0yZMgXPnz9XWT4mJgbLli3D8OHD0ahRI3n/8fHxJfYVFBSEbt26wczMDGZmZujevTtCQkLKPXYiIiIiIm0kEUKIyh5EaQ0ePBgHDhxQSi/PJaSkpKBjx464c+cOHB0d0aZNG9y8eRM3b95E48aNcf78eVhaWirUmTJlClasWKHUVlxcHBwcHIrsa/ny5Zg6dSr09PTw3nvvQSqV4tixY8jOzsbKlSsxYcKEMo+fiIiIiEgbaVUA8tNPPyEzMxNt27ZF27Zt4eDggNzc3HIFIKNGjUJAQAC8vLywc+dO6OnpAQAmTZqElStXYvTo0di0aZNCnfXr1+P27dto27Yt2rRpgz59+iAmJqbYACQmJgbNmjWDnp4eQkND0bFjRwDA33//jU6dOiE1NRXR0dFwcnIq8zUQEREREWkbrQpAXmdgYFCuAOTRo0ewtbWFnp4eEhISULt2bXlebm4u7Ozs8PTpUzx8+BA2NjZFtuPi4lJiADJ+/HisXbsWkydPxvLlyxXyli1bhmnTpmHChAlYuXJlma6BiIiIiEgbadUaEHU5cuQICgsL4eHhoRB8AIBUKsXAgQNRUFCAQ4cOVbgv2ToPHx8fpTxZWlBQUIX7ISIiIiLSBtUyALl27RoAwN3dXWW+LD0qKqpC/Tx//hwJCQkAgFatWinl29nZwcrKCvfu3UNaWlqF+iIiIiIi0gbVMgCRBQW2trYq82Xp9+7dU0s/NWvWhLGx8Rvti4iIiIhIG+hV9gAqQ0ZGBgDAyMhIZb4sWEhPT3+j/ZS2r9zcXOTm5srfFxYW4unTp6hVq1aFtiEmIiIioqpJCIH09HTUq1cPOjpv1zOHahmAaBt/f3/MmzevsodBRERERFomMTGxyFk/laVaBiAmJiYAgKysLJX5mZmZAABTU9M32k9p+5o5cyamTZsmf5+amooGDRogMTERZmZmFRojEREREVU9aWlpsLOzq/D97JtQLQOQBg0aAADu37+vMl+Wbm9vr5Z+nj17hszMTJXrQErTl1QqhVQqVUqXnapORERERKTK2zhd/+2aEKYhbm5uAICIiAiV+bJ0V1fXCvVjYWEhD0KuXr2qlJ+YmIiUlBTY29szkCAiIiKiaqFaBiB9+/aFjo4Ozpw5g6SkJIW83NxcBAUFQVdXF/369atwX/379wcABAYGKuXJ0gYOHFjhfoiIiIiItEGVDkBWrVoFFxcXzJw5UyG9bt26GD58OPLy8jB+/Hjk5+fL87788kskJydj1KhRxZ6CXlqTJ0+Grq4ufv31V4SHh8vTb9++jR9++AF6enqYPHlyhfshIiIiItIGWrUGJCQkBAsWLJC/z8vLAwB06NBBnjZr1iz5U4eUlBTExMTg0aNHSm0tX74c4eHh2LNnD1xcXNCmTRvcvHkTN27cgLOzM5YuXapUJyIiAuPHj5e/l53dMWTIEPkajU8++QSffPKJvEyTJk2waNEiTJs2DR4eHujVqxf09fVx7NgxZGdn45dffoGTk1NFPhYiIiIiIq2hVQFIcnIyLly4oJT+alpycnKp2rKyssLFixcxd+5c7N+/H/v27UPt2rUxadIkzJs3DxYWFkp10tLSVPYfGRkp/3Pfvn2V8qdOnQonJycsWrQIZ86cAQC0adMGX375JQYMGFCq8RIRERERVQUSIYSo7EFQ2aSlpcHc3BypqalcvE5ERERESt7m+8UqvQaEiIiIiIjeLgxAiIiIiIhIYxiAEBERERGRxjAAISIiIiIijWEAQkREREREGsMAhIiIiIiINIYBCBERERERaQwDECIiIiIi0hgGIEREREREpDEMQIiIiIiISGMYgBARERERkcYwACEiIiIiIo1hAEJERERERBrDAISIiIiIiDSGAQgREREREWkMAxAiIiIiItIYBiBERERERKQxDECIiIiIiEhjGIAQEREREZHGMAAhIiIiIiKNYQBCREREREQawwCEiIiIiIg0hgEIERERERFpDAMQIiIiIiLSGAYgRERERESkMQxAiIiIiIhIYxiAEBERERGRxjAAISIiIiIijWEAQkREREREGsMAhIiIiIiINIYBCBERERERaQwDECIiIiIi0hgGIEREREREpDEMQIiIiIiISGMYgBARERERkcYwACEiIiIiIo1hAEJERERERBrDAISIiIiIiDSGAQgREREREWkMAxAiIiIiItIYBiBERERERKQxDECIiIiIiEhjGIAQEREREZHGMAAhIiIiIiKNYQBCREREREQawwCEiIiIiIg0hgEIERERERFpDAMQIiIiIiLSGK0KQK5cuYIff/wRXl5esLW1hUQigUQiKXd7z549w+TJk2Fvbw+pVAp7e3tMmTIFz58/L7JOQUEBli1bhhYtWsDQ0BDW1tYYNmwYoqOjVZbftGmTfJyqXr6+vuUePxERERGRttGr7AGUxYIFC3DgwAG1tJWSkoKOHTvizp07cHR0xODBg3Hz5k2sWLEChw8fxvnz52FpaalQp7CwEEOHDsW+fftgYWGB/v37IyUlBYGBgQgJCUFoaCjatWunsj83Nze0bNlSKb19+/ZquR4iIiIiIm2gVQFIx44d4erqirZt26Jt27ZwcHBAbm5uudqaMmUK7ty5Ay8vL+zcuRN6ei8/ikmTJmHlypWYNm0aNm3apFBnw4YN2LdvH5ydnXHmzBnUrl0bALBnzx74+Phg5MiRiI6Olrf1qsGDB2Pu3LnlGisRERERUVWhVVOwvvrqK8yfPx8DBw5EnTp1yt3Oo0ePsH37dujr62PNmjUKAcOiRYtgbW2NrVu3IikpSaHe0qVLAQA///yzPPgAAG9vbwwaNAh37txR2xMaIiIiIqKqSKsCEHU5cuQICgsL4eHhoRBIAIBUKsXAgQNRUFCAQ4cOydPj4uIQHR0NQ0ND9O/fX6lNHx8fAEBQUNCbHTwRERERkRbTqilY6nLt2jUAgLu7u8p8d3d3bNiwAVFRUUp1mjdvjho1aqisA0ChzquuXLmCGTNmIC0tDXXq1EHPnj3RrVu3Cl0HEREREZG2qZYBSEJCAgDA1tZWZb4s/d69exWq86rg4GAEBwfL38+fPx/dunXDzp07lZ7CEBERERFVVdVyClZGRgYAwMjISGW+sbExACA9Pb1CdQCgbt26mDt3Lq5evYrU1FQ8fvwYBw8ehIuLC06dOoUBAwagoKCg2PHm5uYiLS1N4UVEREREpI2qZQCiSX369MGcOXPQsmVLmJmZoXbt2hg4cCAuXbqExo0b4/Lly9i1a1exbfj7+8Pc3Fz+srOz09DoiYiIiIjUq1oGICYmJgCArKwslfmZmZkAAFNT0wrVKWkMkyZNAgAcPXq02LIzZ85Eamqq/JWYmFiqPoiIiIiI3jbVcg1IgwYNAAD3799XmS9Lt7e3r1Cdkjg7OwN4uS1wcaRSKaRSaanbJSIiIiJ6W1XLJyBubm4AgIiICJX5snRXV1elOjdu3MCLFy9KVackz549A/C/9SNERERERFVdtQxA+vbtCx0dHZw5c0bpsMHc3FwEBQVBV1cX/fr1k6c3bNgQ77zzDrKzsxESEqLUZmBgIABg4MCBpR7Hnj17ABS9HTARERERUVVTpQOQVatWwcXFBTNnzlRIr1u3LoYPH468vDyMHz8e+fn58rwvv/wSycnJGDVqFGxsbBTqTZs2TV7m1cBl7969OHjwIJycnODp6alQx9/fHykpKQppL168wLx587B7924YGhrio48+Usv1EhERERG97bRqDUhISAgWLFggf5+XlwcA6NChgzxt1qxZ8pPKU1JSEBMTo3KNxfLlyxEeHo49e/bAxcUFbdq0wc2bN3Hjxg04Oztj6dKlSnXGjBmDQ4cOYd++fXBxccG7776LlJQUnDp1CoaGhti6dSv09BQ/0m+++Qbz5s1DmzZtYGdnh7S0NERGRuLhw4cwMDDA1q1bUb9+fbV8PkREREREbzutCkCSk5Nx4cIFpfRX05KTk0vVlpWVFS5evIi5c+di//792LdvH2rXro1JkyZh3rx5sLCwUKqjo6OD3bt3Y8WKFdiwYQOCg4NhbGwMb29vzJs3D02bNlWqM3v2bJw/fx4xMTGIiIiAEAK2trb49NNPMXXqVDRp0qT0HwARERERkZaTCCFEZQ+CyiYtLQ3m5uZITU2FmZlZZQ+HiIiIiN4yb/P9YpVeA0JERERERG8XBiBERERERKQxDECIiIiIiEhjGIAQEREREZHGMAAhIiIiIiKNYQBCREREREQawwCEiIiIiIg0hgEIERERERFpDAMQIiIiIiLSGAYgRERERESkMQxAiIiIiIhIYxiAEBERERGRxjAAISIiIiIijWEAQkREREREGsMAhIiIiIiINIYBCBERERERaQwDECIiIiIi0hgGIEREREREpDEMQIiIiIiISGMYgBARERERkcYwACEiIiIiIo1hAEJERERERBrDAISIiIiIiDSGAQgREREREWkMAxAiIiIiItIYBiBERERERKQxDECIiIiIiEhjGIAQEREREZHGMAAhIiIiIiKNYQBCREREREQawwCEiIiIiIg0hgEIERERERFpDAMQIiIiIiLSGAYgRERERESkMQxAiIiIiIhIYxiAEBERERGRxjAAISIiIiIijWEAQkREREREGsMAhIiIiIiINIYBCBERERERaQwDECIiIiIi0hgGIEREREREpDEMQIiIiIiISGMYgBARERERkcYwACEiIiIiIo1hAEJERERERBrDAISIiIiIiDSGAQgREREREWmMVgUgV65cwY8//ggvLy/Y2tpCIpFAIpGUu71nz55h8uTJsLe3h1Qqhb29PaZMmYLnz58XWaegoADLli1DixYtYGhoCGtrawwbNgzR0dHF9hUUFIRu3brBzMwMZmZm6N69O0JCQso9diIiIiIibSQRQojKHkRpDR48GAcOHFBKL88lpKSkoGPHjrhz5w4cHR3Rpk0b3Lx5Ezdv3kTjxo1x/vx5WFpaKtQpLCyEj48P9u3bBwsLC7z77rtISUnB6dOnYWhoiNDQULRr106pr+XLl2Pq1KnQ09PDe++9B6lUimPHjiE7OxsrV67EhAkTyjT2tLQ0mJubIzU1FWZmZmW+diIiIiKq2t7m+0WtCkB++uknZGZmom3btmjbti0cHByQm5tbrgBk1KhRCAgIgJeXF3bu3Ak9PT0AwKRJk7By5UqMHj0amzZtUqjz+++/Y+zYsXB2dsaZM2dQu3ZtAMCePXvg4+MDJycnREdHy9sCgJiYGDRr1gx6enoIDQ1Fx44dAQB///03OnXqhNTUVERHR8PJyanUY3+bv1BEREREVPne5vtFrQpAXmdgYFCuAOTRo0ewtbWFnp4eEhIS5IEEAOTm5sLOzg5Pnz7Fw4cPYWNjI89r2rQpoqOjsW/fPgwePFihTU9PTxw8eBCBgYHw9vaWp48fPx5r167F5MmTsXz5coU6y5Ytw7Rp0zBhwgSsXLmy1ON/m79QRERERFT53ub7Rb2Si1Q9R44cQWFhITw8PBSCDwCQSqUYOHAgNmzYgEOHDsHPzw8AEBcXh+joaBgaGqJ///5Kbfr4+ODgwYMICgpSCEBk6zx8fHxU1pk2bRqCgoLKFIAQEVVld64k4WJQLPJyCip7KETVQk5BDjLzMiCgtb9Jkwo5uVmVPYQiVcsA5Nq1awAAd3d3lfnu7u7YsGEDoqKilOo0b94cNWrUUFkHgEKd58+fIyEhAQDQqlUrpTp2dnawsrLCvXv3kJaW9tZFp0REleFiUCyePX57/4+TqOqRwACmlT0IUrc83coeQZGqZQAiCwpsbW1V5svS7927p5Y6NWvWhLGxcZH1UlJScO/ePbRo0aIsl0FEVCXJnnxIJICRubSSR0NU9aVkJ6NAFAIAdCVatUEqFSMHb+8POdUyAMnIyAAAGBkZqcyXBQvp6elvtE5R9V6Xm5uL3Nxc+fu0tLQiyxIRVRWGUgGPqIUozMys7KEQVWnJ2ckoFIXQkejAVM8S6bn50N4VwiSTWZBf2UMoUrUMQLSNv78/5s2bV9nDICLSqIKMDOTFxlb2MIiqvJryPxUCSHnlPWkz/YK3dx1dtQxATExMAABZWaofTWX+/69tpqamb7ROUfVeN3PmTEybNk3+Pi0tDXZ2dkWWJyKqEmQ/weroQM/aunLHQlSFvfoEROSbobDw5f/2dHTKf9gzVT4+AXnLNGjQAABw//59lfmydHt7e7XUefbsGTIzM1WuA1FV73VSqRRSKedBE1H1pGdhAuehmUBuRmUPhahK+qymLpJ09WBTILA94TEKBKArAWxMDSp7aFQBaTkFQFTJ5SpDtQxA3NzcAAAREREq82Xprq6uSnVu3LiBFy9eKO2EpaqOhYUFGjRogISEBFy9ehVdunRRqJOYmIiUlBTY29tzBywioqLkpgMpDyp7FERVl0U9AHqAKIANngKyBx9FL08lbZD79i7kqZYBSN++faGjo4MzZ84gKSlJ4bDB3NxcBAUFQVdXF/369ZOnN2zYEO+88w6io6MREhKidBBhYGAgAGDgwIEK6f3798fatWsRGBioFIAUVYeIiF71//8nKtEBTOpU7lCIqiKJrvy/SbDkE5CqokYB3tYoskqfhL5q1SqsWrUKQ4YMgb+/v0LeqFGjEBAQAG9vb+zYsQN6ei9jscmTJ+OXX37B6NGjsWnTJoU6v//+O8aOHQtnZ2ecPXtWHrjs3bsX3t7ecHJyQnR0tLwtAIiJiUGzZs2gp6eHkydPokOHDgCA27dvo2PHjkhNTUV0dDScnJxKfd1v88mWREQVtenrc8h8ngvpizR0PjcTesaA88CHgGk9YHp0ZQ+PqMp5d/e7SMpKgo2RDTJvf4PHaTmoY2aA8G/ereyhUQW8zfeLWvUEJCQkBAsWLJC/z8vLAwD5TT0AzJo1S35SeUpKCmJiYvDo0SOltpYvX47w8HDs2bMHLi4uaNOmDW7evIkbN27A2dkZS5cuVaozZswYHDp0CPv27YOLiwveffddpKSk4NSpUzA0NMTWrVsVgg8AaNKkCRYtWoRp06bBw8MDvXr1gr6+Po4dO4bs7Gz88ssvZQo+iIiIiIi0mVadNpOcnIwLFy7IX7InH6+mJScnl6otKysrXLx4ERMnTkReXh727duH1NRUTJo0CRcvXoSlpaVSHR0dHezevRtLlixBvXr1EBwcjOvXr8Pb2xuXL19G+/btVfY1depUHDx4EB07dsSZM2dw/PhxtGnTBkFBQZg4cWL5PxAiIiIiIi2j1VOwqqu3+ZEaEVFFcQoWkWZxClbV9DbfL2rVExAiIiIiItJuDECIiIiIiEhjGIAQEREREZHGMAAhIiIiIiKNYQBCREREREQawwCEiIiIiIg0hgEIERERERFpDAMQIiIiIiLSGAYgRERERESkMQxAiIiIiIhIYxiAEBERERGRxjAAISIiIiIijWEAQkREREREGsMAhIiIiIiINIYBCBERERERaQwDECIiIiIi0hgGIEREREREpDEMQIiIiIiISGMYgBARERERkcYwACEiIiIiIo1hAEJERERERBrDAISIiIiIiDSGAQgREREREWkMAxAiIiIiItIYBiBERERERKQxDECIiIiIiEhjGIAQEREREZHGMAAhIiIiIiKNYQBCREREREQao6fuBvPz8xESEoKLFy8iJSUF7du3x5gxYwAADx8+REpKCpo2bQo9PbV3TUREREREbzm1RgFnz57FqFGjkJiYCCEEJBIJXrx4IQ9Azp8/j2HDhmH37t3w8vJSZ9dERERERKQF1DYF69atW+jbty8ePXqEiRMnYteuXRBCKJQZOHAgjIyMsGfPHnV1S0REREREWkRtT0AWLFiAnJwcHDp0CL1791ZZRl9fH+7u7rh69aq6uiUiIiIiIi2iticgoaGhaNeuXZHBh0z9+vXx8OFDdXVLRERERERaRG0ByPPnz2FnZ1diuczMTLx48UJd3RIRERERkRZRWwBiY2ODO3fulFguOjq6VIEKERERERFVPWoLQHr27InIyEiEhoYWWWbfvn24c+cOevXqpa5uiYiIiIhIi6gtAPn666+hr6+PwYMHY+3atXj8+LE879mzZ9iwYQM+/vhjGBsbY9q0aerqloiIiIiItIjaAhAXFxds374dhYWFmDBhAurXrw+JRILNmzfDysoKY8eORW5uLgICAtCwYUN1dUtERERERFpEbQEIAAwePBg3btzAxIkT4eLiAgMDA+jr68PR0RGffvopoqKiMGjQIHV2SUREREREWkStJ6EDgL29PZYvX67uZomIiIiIqApQ2xOQLVu2ICwsrMRy4eHh2LJli7q6JSIiIiIiLaK2AMTPzw+///57ieXWr1+Pjz76SF3dEhERERGRFlHrGpDSKCwshEQi0XS3RERERET0FlD7GpCSxMbGwszMTNPdEpXLnStJuBgUi7ycgsoeClG1kZmaA0CCQvHyf3fJEuAzu3qARBfY/W7lDo6oCkrJTqnsIVA1U6EAZP78+QrvIyMjldJk8vPzERMTg9OnT/MgQtIaF4Ni8exxVmUPg6iaefmUXKcgFwBQKAGS9P7//66ykiprUERVnnENY2RW9iCoWqhQADJ37lxIJBIIISCRSBAZGYnIyMhi69jY2GDhwoUV6ZZIY2RPPiQSwMhcWsmjIaoeUrKTkaOThZZ3gwEAOgKwyc9/+QTEtHYlj46oajKuYYwJLSdg9q3KHglVBxUKQDZu3AgAEEJgzJgx6NKlCz7++GOVZfX19VGvXj106NABUmn5b+Sys7Ph7++PHTt2ICEhAZaWlujbty8WLFiA+vXrl6mt8PBw+Pv749y5c8jIyECDBg0wdOhQfPPNNzA2NlZZ5+nTp/D398e+ffuQmJgIc3NzdO3aFd999x1atmypVD4+Pr7Ygxdr166tcGo8vZ2MzKXw+7FzZQ+DqFp4d/e7SMpKQs9zhQAAawEcT3wImNYDxhyv5NERVW2zwf+N0ZtXoQBk9OjR8j9v3rwZ77//vkKauuXk5KBnz54IDw9H3bp14enpifj4eGzcuBHBwcEIDw+Ho6NjqdoKCAjA6NGjUVBQAHd3d9jb2+PKlStYuHAhgoODcebMGaW1Ko8ePUKXLl0QGxuLOnXq4P3338fjx4+xd+9eBAUFISgoCL1791bZX+3atdG3b1+ldHNz87J/EEREREREWkpti9BDQ0PV1VSRvv/+e4SHh6Njx444duwYTExMAABLly7F9OnTMWbMGJw8ebLEdu7fv49PPvkEBQUFWL9+PcaMGQMAyMvLg5+fH7Zv344ZM2Zg3bp1CvXGjRuH2NhYvP/++9i9e7f8Kcn+/fvh7e2NkSNHIjY2Fqampkp9uri4YNOmTRX7AIiIiIiItJzGt+Etr7y8PKxatQoAsHr1annwAQDTpk2Dq6srTp06hStXrpTY1qZNm5CTk4NevXrJgw/g5TSxVatWwdTUFBs2bMA///wjz0tMTERwcDD09PSwdu1ahSlagwcPhq+vL1JSUrBhwwZ1XC4RERERUZWk1gBECIGtW7di6NChaNmyJRo1agRHR0elV6NGjcrc9rlz55CamopGjRqhVatWSvk+Pj4AgKCgoBLbkgUp3bt3V8qztLSEq6sr8vPzERISIk+PiIgAADRs2BD29vZK9Xr06AEAOHDgQMkXQ0RERERUTaltClZeXh769++PEydOQAihsoxsx6zyuHbtGgDA3d1dZb4sPSoqqsS2MjNfbjJXs2ZNlfm1atVS6LO8dV715MkTzJkzB48ePYK5uTnat2+PQYMGQV9fv8TxEhERERFVFWp7ArJkyRIcP34cAwYMwO3bt/Gvf/0LEokEubm5iI6Oxty5c2FsbIwZM2agsLCwzO0nJCQAAGxtbVXmy9Lv3btXYlvW1tbFlo2Li1PKL22dp0+fIiMjQyn/r7/+wvz58/Hbb79h8eLFGDp0KJydnXHx4sUSx0tEREREVFWoLQDZuXMnLC0tsW3bNjRq1Ag6Oi+brlGjBpo0aYLZs2cjJCQES5YsKdc6CdlNvZGRkcp82ZqM9PT0Etvq2rUrAGD79u3Iy8tTyLt8+TKuX7+u1Fa7du0glUrx5MkTHDlyRKGOEEJhgfmr9aRSKf7973/j5MmTePLkCdLS0nD+/Hn069cPCQkJ6NOnT4lBU25uLtLS0hReRERERETaSG0ByJ07d9CuXTt5ICALQAoKCuRlPDw80LlzZ6xZs0Zd3ZbLyJEjYWtri4SEBAwaNAg3btxAeno6jh07Bm9vb+j9/4m7smsAXm6XO378eAAvtx/et28fUlNTERMTA19fX0RHR8vLvlqvbt26WLNmDbp16wYbGxuYmpqiQ4cOCAkJwYgRI/D8+fMSD2b09/eHubm5/GVnZ6fOj4OIiIiISGPUFoDo6uoqnGkhC0SSk5MVytWvXx8xMTFlbl+261VWVpbKfNkaDVVb4KpqKzg4GLa2tjh69ChatGgBMzMz9OnTB/r6+pg+fToA5fUe/v7+8PHxQVJSEry8vGBhYQEXFxfs378fK1askJezsLAo1TV98803AICjR48WW27mzJlITU2VvxITE0vVPhERERHR20Zti9Dr16+P+/fvy987OTkBeHna+ODBg+XpUVFRClvollaDBg0AQKGPV8nSVe1QpYqbmxtiYmKwa9cuREREyA8k9PX1hb+/PwCgWbNmCnWkUil2796NM2fO4MiRI0hOToadnR18fX0hkUgAvLzu0p707uzsDODlAYfFkUqlFTo9noiIiIjobaG2AKRDhw7Yt28fcnNzIZVK0a9fP0ydOhVTpkyBgYEB6tevj//85z+Ijo7GwIEDy9y+m5sbgP9th/s6Wbqrq2up2zQyMoKfnx/8/PwU0sPCwgCo3qYXeDmVzMPDQyFty5YtxdZR5dmzZwCgcKYIEREREVFVprYpWN7e3jAwMMCxY8cAvHwSMGXKFCQkJKB///5o2bIlVq9eDSMjI/z8889lbr9z584wNzfH3bt3ERkZqZQfGBgIAOUKbl4VFRWFU6dOoVmzZujcuXOp6gghsHr1agDA2LFjS93Xnj17ABS9tTARERERUVWjtgCkf//+ePTokUIAsGTJEmzbtg1Dhw7Fe++9h88//xwRERFo3LhxmdvX19fHhAkTAACff/65fM0HACxduhRRUVHo1q0bWrduLU9ftWoVXFxcMHPmTKX2IiMjkZ+fr5AWHR0Nb29vCCGwcuVKpToJCQlISkpSSMvOzsa4ceNw8eJF+Pn5oV27dgr5v/32G/766y+ltvbu3Yuvv/5afj1ERERERNWB2qZgFcXX1xe+vr5qaeu7777Dn3/+ibCwMDg7O8PDwwP37t3DhQsXYG1trbS9b0pKCmJiYlSusZgyZQpu3boFNzc3WFtbIzExEefPn4dEIsG6devkJ5u/6sSJExg7dizatGmDBg0aIDs7G+fOncPTp0/Rp08frF27VqlOQEAAxo0bB1dXVzRu3BiFhYW4deuWPCiZMWMGhgwZopbPh4iIiIjobae2JyClFRUVVe6AxMDAAKGhoZg1axaMjIywf/9+3Lt3D35+foiIiICjo2Op2xo1ahSaNm2Ka9euITAwELGxsfjggw9w6dKlIqdRtW7dGj4+Pnj8+DEOHjyI06dPo2nTpli/fj0OHz4MAwMDpTpjx46Fj48PsrKycOzYMQQFBSEtLQ1eXl7473//W67paERERERE2koihBCa6Cg8PBw//PADDh06BEDxfBAqm7S0NJibmyM1NRVmZmaVPZwqbdPX55D5PBfGFlL4/Vi6NUFEVDHv7n4XSVlJWLe6EDXTCqFnDDgPfAiY1gOmR5fcABGVW4eFx/E4LQd1zAwQ/s27lT0cqoC3+X6xQlOwMjMzsWLFChw9ehRJSUmwsbHB+++/j0mTJslPLL906RJmzpyJ0NBQCCFgaGiIf//732oZPBERERERaZdyByCZmZno3Lkzrl+/DtlDlJiYGJw9exZBQUE4ffo0fvjhByxYsAAFBQUwMDDAZ599hq+++gq1a9dW2wUQEREREZH2KHcAsmTJEkRFRcHGxgbTpk1Ds2bNkJ6ejsOHD2Pr1q3w9PTE4cOHAQDjxo3D3LlzUadOHbUNnIiIiIiItE+5A5D9+/fD0NAQ586dQ6NGjeTpvr6+aNiwIebPnw+JRIIdO3Zg6NChahksERERERFpt3LvgnXnzh107NhRIfiQ+fjjjwG8PGCPwQcREREREcmUOwDJyMiAnZ2dyjxZepMmTcrbPBERERERVUEVOgdEIpEUm6+vr1+R5omIiIiIqIqp0Da8GRkZSEhIKFd+gwYNKtI1ERERERFpoQoFIHv27MGePXtU5kkkkiLzJRIJ8vPzK9I1ERERERFpoXIHIA0aNChxChYREREREdGryh2AxMfHq3EYRERERERUHVRoEToREREREVFZMAAhIiIiIiKNYQBCREREREQawwCEiIiIiIg0hgEIERERERFpDAMQIiIiIiLSGAYgRERERESkMQxAiIiIiIhIY8p9EGFxnj59iitXriAlJQX29vbo1KnTm+iGiIiIiIi0jFqfgCQnJ2PEiBGoU6cO+vbti1GjRuH333+X5//++++wtLTE2bNn1dktERERERFpCbUFIE+fPkWnTp2wY8cONG/eHOPHj4cQQqGMl5cX0tPTERgYqK5uiYiIiIhIi6gtAPnhhx9w9+5dzJ49GxEREVi5cqVSGUtLS7i6uuLUqVPq6paIiIiIiLSI2gKQ/fv3o3Hjxpg7d26x5Ro1aoQHDx6oq1siIiIiItIiagtAHjx4ADc3txLLSSQSpKWlqatbIiIiIiLSImoLQMzMzPDo0aMSy929exfW1tbq6paIiIiIiLSI2gKQtm3b4tKlS4iLiyuyzLVr1xAZGYnOnTurq1siIiIiItIiagtAJk6ciNzcXAwZMgTR0dFK+Xfu3MG//vUvCCEwYcIEdXVLRERERERaRG0BSN++ffHll18iKioKzZs3h4uLCyQSCY4ePQo3Nze88847uHHjBr755ht06dJFXd0SEREREZEWUetBhD/++CN27tyJFi1a4O+//4YQAo8ePcL169fh7OyMgIAALFiwQJ1dEhERERGRFtFTd4NDhw7F0KFDkZycjPj4eBQWFsLW1hb169dXd1dERERERKRl1B6AyFhbW3O3KyIiIiIiUqC2KVht2rTBihUr8PjxY3U1SUREREREVYzaApCIiAhMmzYNdnZ26NOnD/744w9kZGSoq3kiIiIiIqoC1BaAREVFYcaMGahfvz7++9//ws/PD7Vr18bw4cMREhKCgoICdXVFRERERERaSm0BSPPmzfHjjz8iPj4ep06dwieffAIDAwPs3LkTgwYNQp06dfD5558jLCxMXV0SEREREZGWeSOL0D08PODh4YFVq1bh0KFDCAgIQHBwMNauXYtff/0VDg4OuHv37pvomkitcgpyAEiQkp2Md3e/W9nDIaoWUrJTKnsIRET0Br2xXbAAoEaNGvD09ISnpyfS09Px1Vdf4ddff0V8fPyb7JZIbTLzMmAAUxSIQiRlJVX2cIiqFR3oACis7GEQEZGavdEABABu376NgIAAbN++HXfu3AEAGBgYvOluidRCQMj/bGNkU4kjIapejGsYw1g/CUBqZQ+FiIjU7I0EII8fP8aOHTsQEBCAiIgICCGgo6ODnj17YuTIkfD29n4T3RK9MQb5EvxnowEKMzMreyhE1UQaXvyTDgAoLHz5Q0BSeg4GLTxemYMiqvKS0nMqewhUDagtAElLS8OePXuwbds2nDx5EoWFhRBCoFWrVhg5ciSGDx+OunXrqqs7Io0yyBXIi42t7GEQVSsS2R/0XgYgBQJ4nMabIyJNMJbqVvYQqApTWwBSp04d5ObmQggBBwcHjBgxAiNHjsQ777yjri6IKo1E/P9ULB0d6FlbV+5giKqJpPRcZOjow6XFfQCArgSoY8YpvERvmrFUF9N7N6nsYVAVprYAxMjICH5+fhg5ciQ6d+6srmaJ3ip61tZwXjMZCF0I5PKgTaI3yTw9BwUCsJE8BwDYmBogfDp3oyMi0nZqC0AeP34MPb03vqadqPKFLgRS/q7sURBVeTbAK/OwAEhNKmkkRESkTmqLGBh8ULUhe/Ih0QFM6lTuWIiqsKT/fwKiKwFsrKyAHt9W9pCIiEgNyh01nD59GgDQrl07GBgYyN+XVteuXcvbNdHbwaQOMD26skdBVGUNWngcj9NyUMfMAOETOPWKiKiqKHcA0r17d0gkEkRHR6Nx48by96VVUFBQ3q6JiIiIiEhLlTsA+fDDDyGRSGBubq7wnoiIiIiIqCjlDkA2bdpU7Ps3JTs7G/7+/tixYwcSEhJgaWmJvn37YsGCBahfv36Z2goPD4e/vz/OnTuHjIwMNGjQAEOHDsU333wDY2NjlXWePn0Kf39/7Nu3D4mJiTA3N0fXrl3x3XffoWXLlkX2dfPmTcydOxcnT55ERkYGnJyc8PHHH2PSpEnQ0dEp07iJiIiIiLSVVt355uTkoGfPnliwYAEyMjLg6ekJOzs7bNy4Ea1atUJsGQ6KCwgIQJcuXXDw4EHY29ujX79+yM3NxcKFC9GpUyekpaUp1Xn06BHatm2LxYsXIzMzE++//z4cHR2xd+9etG/fHseOHVPZ1/nz59G2bVsEBgbC0dERgwYNQkpKCqZOnQpfX18I2RkTRERERERVnNoCEEdHR3z11Vcllps5cyYaNWpUrj6+//57hIeHo2PHjvj777+xc+dOXLhwAUuWLEFycjLGjBlTqnbu37+PTz75BAUFBVi/fj2uXLmCvXv34vbt2xg+fDiioqIwY8YMpXrjxo1DbGws3n//fdy5cwf79+9HeHg49u7di/z8fIwcORLp6ekKdV68eIGRI0ciOzsbS5cuxYULF7Bz507cvn0bHTt2xO7du7F58+ZyfR5ERERERNpGbQFIfHw8kpOTSyyXkpKC+Pj4Mrefl5eHVatWAQBWr14NE5P/7Qc/bdo0uLq64tSpU7hy5UqJbW3atAk5OTno1auXQtCir6+PVatWwdTUFBs2bMA///wjz0tMTERwcDD09PSwdu1ahSlagwcPhq+vL1JSUrBhwwaFvvbt24e4uDi4ublh6tSp8nQTExP59SxZsqSMnwYRERERkXbS+BSszMxM1KhRo8z1zp07h9TUVDRq1AitWrVSyvfx8QEABAUFldiWLEjp3r27Up6lpSVcXV2Rn5+PkJAQeXpERAQAoGHDhrC3t1eq16NHDwDAgQMHFNJlbcjG9yp3d3c4Ojrixo0b5QrKiIiIiIi0jcYCkMLCQkRHRyM0NBQNGjQoc/1r164BeHnTroosPSoqqsS2MjMzAQA1a9ZUmV+rVi2FPstbR93jJiIiIiLSdhUKQHR1deUvANi8ebNC2quvGjVqoHnz5njy5AmGDx9e5r4SEhIAALa2tirzZen37t0rsS1ra+tiy8bFxSnll7bO06dPkZGR8UbGTURERESk7cq9DS8A2NnZyc/+SEhIgJGREaysrFSW1dfXR7169TBo0CBMmjSpzH3JbuqNjIxU5svWZLy+CFyVrl27Ytu2bdi+fTvmz58PfX19ed7ly5dx/fp1pbbatWsHqVSKJ0+e4MiRI+jbt688TwihsA1xenq6fI2KOsadm5uL3Nxc+XtVO3QREREREWmDCj0BiY+PR1xcHOLi4iCEwNChQ+XvX3/FxMQgNDQUU6dOlT8xqSwjR46Era0tEhISMGjQINy4cQPp6ek4duwYvL29oaf3Mi579XwOc3NzjB8/HgAwevRo7Nu3D6mpqYiJiYGvry+io6PlZdV9roe/vz/Mzc3lLzs7O7W2T0RERESkKWq7Uw4NDS3VNrzlJXuikJWVpTJftkbD1NS0VG0FBwfD1tYWR48eRYsWLWBmZoY+ffpAX18f06dPB6C83sPf3x8+Pj5ISkqCl5cXLCws4OLigv3792PFihXychYWFmod98yZM5Gamip/JSYmlniNRERERERvowpNwXpVt27d1NWUSrKF6/fv31eZL0tXtUOVKm5uboiJicGuXbsQERGBgoICuLu7w9fXF/7+/gCAZs2aKdSRSqXYvXs3zpw5gyNHjiA5ORl2dnbw9fWVT0VzcnKCVCpVGPezZ89w//59uLq6lmvcUqlUoU0iIiIiIm1V7gDk9OnTAF6ujTAwMJC/L62uXbuWqbybmxuA/22H+zpZuqqb/KIYGRnBz88Pfn5+CulhYWEAVG/TCwAeHh7w8PBQSNuyZYvKOm5ubrh27RoiIiLQr18/tYybiIiIiEhblTsA6d69OyQSCaKjo9G4cWP5+9IqKCgoU3+dO3eGubk57t69i8jISLRs2VIhPzAwEAAwcODAMrX7uqioKJw6dQrNmjVD586dS1VHCIHVq1cDAMaOHauQ179/f2zZsgWBgYH47rvvFPKuXr2K2NhYNG/eHA4ODhUaNxERERGRNih3APLhhx9CIpHA3Nxc4f2boq+vjwkTJuCHH37A559/jmPHjsl3kFq6dCmioqLQrVs3tG7dWl5n1apVWLVqFYYMGSKfViUTGRmJ5s2byxecA0B0dDS8vb0hhMDKlSuVxpCQkAADAwPY2NjI07KzszFp0iRcvHgRfn5+aNeunUKdIUOGoGHDhrh27RqWLVsmPw09MzMTn3/+OQDI15wQEREREVV15Q5AXt12VtX7N+G7777Dn3/+ibCwMDg7O8PDwwP37t3DhQsXYG1tjQ0bNiiUT0lJQUxMDB49eqTU1pQpU3Dr1i24ubnB2toaiYmJOH/+PCQSCdatWyc/2fxVJ06cwNixY9GmTRs0aNAA2dnZOHfuHJ4+fYo+ffpg7dq1SnVq1KiBrVu34r333sO0adOwc+dO2Nvb48yZM3j06BF8fHwwevRo9X1IRERERERvMY2dhK4OBgYGCA0NxaxZs2BkZIT9+/fj3r178PPzQ0REBBwdHUvd1qhRo9C0aVNcu3YNgYGBiI2NxQcffIBLly4pTaOSad26NXx8fPD48WMcPHgQp0+fRtOmTbF+/XocPnwYBgYGKut16tQJly5dgre3N+7cuYODBw/C0tISS5cuxc6dO9/okyMiIiIioreJRAgh3nQn0dHRuHnzJuzs7NC+ffs33V2Vl5aWBnNzc6SmpsLMzKyyh1OlLZ68H4a5ZqiR9wweYd9Br3ZtOA96AqQ/BEzrAdOjS26EiMqlw8LjeJyWgzpmBgj/5t3KHg4RkVZ5m+8X1fYEZOfOnejZsycuXLigkD5jxgw0b94cH3zwATp16oQhQ4aUeQE6ERERERFVDWoLQLZu3YrIyEi0atVKnhYWFoYlS5bA1NQUvr6+cHBwwMGDBxEQEKCubomIiIiISIuoLQC5ceMGXF1doa+vL0/7448/IJFIsGvXLgQEBODSpUswMTHB77//rq5uiYiIiIhIi6gtAElKSkL9+vUV0kJDQ2FjY4PevXsDACwtLdG1a1fcuXNHXd0SEREREZEWUVsAYmhoiLS0NPn7R48e4e+//0a3bt0UyllYWODZs2fq6paIiIiIiLSI2gIQR0dHnDlzBs+fPwcABAQEQCKRyJ9+yDx+/FjhID8iIiIiIqo+1BaA+Pn5IS0tDa1bt4a3tze+++47mJiYwNPTU17mxYsXuHz5Mho3bqyubomIiIiISIuU+yT0140dOxahoaHYs2cP4uLiYGxsjHXr1qFWrVryMsHBwUhNTUXPnj3V1S0REREREWkRtQUgNWrUwO7duxEfH4/k5GS4uLjA1NRUoUzDhg2xb98+dOjQQV3dEhERERGRFlFbACLj4OAABwcHlXktW7ZEy5Yt1d0lERERERFpCbUHIACQl5eHyMhIPHjwAABQv359tGzZUuGMECIiIiIiqn7UGoDk5ORg9uzZWLduHTIyMhTyTExM8Nlnn2HevHkwMDBQZ7dERERERKQl1BaA5Obm4r333sP58+cBAK6urnBwcIBEIkF8fDyuXbuGxYsX49y5czh+/DikUqm6uiYiIiIiIi2htm14ly1bhrCwMHTu3BmRkZG4evUq9u3bh7179yIiIgLXrl2Dh4cHzp8/j+XLl6urWyIiIiIi0iJqC0C2b98Oa2trhISEoEWLFkr5zZs3R3BwMKysrBAQEKCubomIiIiISIuoLQC5c+cOunfvrrT17qtMTEzQvXt33L17V13dEhERERGRFlFbAKKnp4esrKwSy2VlZUFP741svkVERERERG85tQUgLVq0wIkTJxAbG1tkmbi4OJw4cQKurq7q6paIiIiIiLSI2gKQTz/9FNnZ2ejevTvWr1+P7OxseV52djY2btyI7t27IycnB5999pm6uiUiIiIiIi2itrlQ//rXv3D27Fn89ttvGDduHMaNGwcrKysAQEpKCgBACIFPP/0UI0eOVFe3RERERESkRdT2BAQA1q1bh927d6NLly6oUaMGkpOTkZycjBo1asDDwwO7d+/G2rVr1dklERERERFpEbWvBvf29oa3tzfy8/Pxzz//AABq1arFhedERERERFTxAOTQoUPYv38/EhMTIZVK4ebmho8++ggODg6oXbu2OsZIRERERERVRIUCkJEjR2LHjh0AXq7vAICgoCAsWrQIO3bswKBBgyo+QiIiIiIiqjLKHYCsX78e27dvh56eHv71r3+hVatWSE9PR3BwMM6fP48PP/wQ9+7dg7m5uTrHS0REREREWqzcAcjmzZuho6ODw4cP491335Wnz5w5Ex999BG2bNmCvXv34qOPPlLLQImIiIiISPuVexes69evo0OHDgrBh8w333wDIQSuX79eocEREREREVHVUu4AJC0tDY0aNVKZJ0tPS0srb/NERERERFQFlTsAEUJAV1dXdaM6L5stLCwsb/NERERERFQFqfUgQiIiIiIiouJUaBvezZs3Y/PmzSrzJBJJkfkSiQT5+fkV6ZqoUiSl58I8PQc2AJLSczBo4fHKHhJRlZWUnlPZQyAiojegQgGI7OwPTdUjqmyFhQIFAoAEKBDA4zTeIBG9acZS1dN9iYhIO5U7AOH6DqqudCX/+28dM4PKHQxRFWcs1cX03k0qexhERKRGFXoCQlTd6OhIYGNqAKQDNqYGCJ+uvA01ERERERWNi9CJiIiIiEhjGIAQEREREZHGMAAhIiIiIiKNYQBCREREREQawwCEiIiIiIg0hgEIERERERFpDAMQIiIiIiLSmDd2Dsjt27eRkpKCWrVqoXHjxm+qGyIiIiIi0iJqfQKSm5uLb775BlZWVnBxcUGXLl3w448/yvO3bt0Kd3d3REZGqrNbIiIiIiLSEmoLQLKzs9G9e3f89NNP0NfXR79+/SCEUCjTs2dPXLt2Dbt27VJXt0REREREpEXUFoD8/PPPuHDhAsaMGYPY2FgEBQUplalXrx6aNm2KP//8U13dEhERERGRFlFbALJz5040aNAAa9euhYGBQZHlmjRpgsTERHV1S0REREREWkRtAUhcXBzatGkDPb3i17Xr6+vj2bNn6uqWiIiIiIi0iNoCEENDw1IFFnFxcahZs6a6uiUiIiIiIi2itgCkZcuWuHz5MpKTk4ssExcXh6tXr6Jt27bl7ic7OxuzZ89G48aNYWBggHr16mHMmDF48OBBmdsKDw+Hp6cnrKysYGBggMaNG+Pbb79FZmZmkXUePnyICRMmwMnJCVKpFEZGRnB1dcWcOXOQnp6uVH7Tpk2QSCRFvnx9fcs8biIiIiIibaW2c0DGjh2LkydPYvjw4dixYwesrKwU8p8/f44xY8bgxYsXGDduXLn6yMnJQc+ePREeHo66devC09MT8fHx2LhxI4KDgxEeHg5HR8dStRUQEIDRo0ejoKAA7u7usLe3x5UrV7Bw4UIEBwfjzJkzMDMzU6hz+/ZtdO7cGcnJyXBwcMCAAQOQk5ODsLAwzJ8/H4GBgQgLC4O5ublSf25ubmjZsqVSevv27cv1WRARERERaSO1BSDDhw9HUFAQduzYAUdHR3Tq1AkAcO7cOXh6euLUqVNIS0vDhx9+iAEDBpSrj++//x7h4eHo2LEjjh07BhMTEwDA0qVLMX36dIwZMwYnT54ssZ379+/jk08+QUFBAdavX48xY8YAAPLy8uDn54ft27djxowZWLdunUK9r776CsnJyRg/fjx++eUX6OrqAgBSU1PRt29fhIeHY+nSpZg3b55Sn4MHD8bcuXPLdd1ERERERFWFWg8iDAgIwE8//QQDAwMcO3YMwMunBkFBQZBIJPjhhx+wcePGcrWdl5eHVatWAQBWr14tDz4AYNq0aXB1dcWpU6dw5cqVEtvatGkTcnJy0KtXL3nwAbxcIL9q1SqYmppiw4YN+OeffxTqnT59GgAwa9YsefABAObm5vjyyy8BAJcuXSrX9RERERERVQdqDUAkEglmzJiBR48e4cKFC9i5cye2b9+OM2fO4MmTJ5g5cyYkEkm52j537hxSU1PRqFEjtGrVSinfx8cHAFSeP/I6WZDSvXt3pTxLS0u4uroiPz8fISEhCnlSqbTEtmvVqlViGSIiIiKi6kptU7Bepauri7Zt21Zosfnrrl27BgBwd3dXmS9Lj4qKKrEt2SLzonbjkgURsj5levfujU2bNmHBggVKU7B+/vlnAFB4ovKqK1euYMaMGUhLS0OdOnXQs2dPdOvWrcSxEhERERFVJW8kAHkTEhISAAC2trYq82Xp9+7dK7Eta2vrYsvGxcWpzPf398eVK1ewZs0aHDp0CK1bt0ZOTg7OnTsHAwMDbN26FT169FDZZnBwMIKDg+Xv58+fj27dumHnzp2oXbt2iWMmIiIiIqoK1BaAFPXLvyoSiQTr168vU/sZGRkAACMjI5X5xsbGAKByK9zXde3aFdu2bcP27dsxf/586Ovry/MuX76M69evq2yrTp068p2+jh07hvj4eHmel5cXWrdurdRX3bp1MXfuXHh6esLR0RHZ2dm4ePEivvzyS5w6dQoDBgxAeHi4wpqS1+Xm5iI3N1f+Pi0trcRrJCIiIiJ6G6ktANm0aVOJZSQSCYQQ5QpA1GnkyJH4/vvvkZCQgEGDBmHx4sWwt7fH+fPnMXbsWOjp6SE/Px86OopLZKKiotC/f3/o6uriwIED6Nq1KzIzMxEYGIiZM2fi5MmTCAsLQ5MmTeR1+vTpgz59+sjfm5mZYeDAgejRowdat26Ny5cvY9euXRg+fHiR4/X391e5sxYRERERkbZR2yL00NBQla/jx49j06ZNGDFiBCQSCaZNm4YTJ06UuX3ZrldZWVkq82XrOkxNTUvVVnBwMGxtbXH06FG0aNECZmZm6NOnD/T19TF9+nQAimtEXrx4AR8fHzx8+BB79+7FoEGDYGFhgfr162Py5Mn4/vvv8fTpU8yePbvU1zNp0iQAwNGjR4stO3PmTKSmpspfiYmJpeqDiIiIiOhto7YnICUtqP7www/Rv39/jB49GoMGDSpz+w0aNADw8gwPVWTp9vb2pWrPzc0NMTEx2LVrFyIiIuQHEvr6+sLf3x8A0KxZM3n58PBw3L59G40aNVK5EH7o0KGYPn26fKve0nB2dgYAPHr0qNhyUqm0VDtwERERERG97TS6CH348OH4+eefMXfu3DI/BXFzcwMAREREqMyXpbu6upa6TSMjI/j5+cHPz08hPSwsDIDiNr2yAEfVKeevpj979qzU/cvKytavEBERERFVdWo9B6Q0nJ2dcfny5TLX69y5M8zNzXH37l1ERkYq5QcGBgIABg4cWKHxRUVF4dSpU2jWrBk6d+4sT69Tpw4AICYmRuVCd9kBhA4ODqXua8+ePQCK3lqYiIiIiKiq0WgAUlhYiKioKKXF3aWhr6+PCRMmAAA+//xz+ZoPAFi6dCmioqLQrVs3hZ2oVq1aBRcXF8ycOVOpvcjISOTn5yukRUdHw9vbG0IIrFy5UiGvY8eOsLGxQWZmJiZMmKCwK9XDhw8xdepUAP87EFHG398fKSkpCmkvXrzAvHnzsHv3bhgaGuKjjz4qy0dBRERERKS1NDIFKysrC3///Tf8/f1x+/ZtDBgwoFztfPfdd/jzzz8RFhYGZ2dneHh44N69e7hw4QKsra2xYcMGhfIpKSmIiYlRucZiypQpuHXrFtzc3GBtbY3ExEScP38eEokE69atUzrPw8DAAOvWrcPQoUOxZcsWHD9+HG3atEF2djbOnz+P9PR0uLu74+uvv1ao980332DevHlo06YN7OzskJaWhsjISDx8+FB+dkj9+vXL9XkQEREREWkbtQUgxZ1jISOEgLW1NRYtWlSuPgwMDBAaGgp/f39s27YN+/fvh6WlJfz8/LBgwYIiDylUZdSoUdi6dSuuXbuG58+fw9raGh988AFmzJiBli1bqqwzePBgXLx4EYsXL8bp06dx6NAh6Ovrw9nZGcOGDcOUKVNgaGioUGf27Nk4f/48YmJiEBERASEEbG1t8emnn2Lq1KkKW/YSEREREVV1EiGEUEdDDg4OkEgkKvP09fVRt25ddOvWDZ9//jlsbGzU0WW1lZaWBnNzc6SmpsLMzKyyh1OlLZ68H4a5ZqiR9wweYd/hqZEFOo98DqQ/BEzrAdOjK3uIREREREre5vtFtT0BefVUcCIiIiIiIlXUtgj94MGDOHz4sLqaIyIiIiKiKkhtAciQIUPwyy+/qKs5IiIiIiKqgtQWgFhbW6NmzZrqao6IiIiIiKogtQUg3bt3x8WLF6GmNe1ERERERFQFqS0AWbBgAVJSUjB16lTk5OSoq1kiIiIiIqpC1LYL1vbt29GvXz+sXLkSO3bswHvvvYcGDRrAwMBAqaxEIsGsWbPU1TUREREREWmJcgcgjo6OGDp0KH766ScAwNy5cyGRSCCEQFJSErZt21ZkXQYgRERERETVU7kDkPj4eCQnJ8vfb9y4US0DIiIiIiKiqkttU7BGjx6trqaIiIiIiKiKUtsidCIiIiIiopIwACEiIiIiIo2p0BSsyMhIzJ8/v1x1Z8+eXZGuiYiIiIhIC1UoALl27RquXbtWpjpCCEgkEgYgRERERETVUIUCkEaNGqFz587qGgsREREREVVxFQpAunTpgg0bNqhrLERERBqRn5+P/Pz8yh4GEVGp6OnpQU9PbZvXVrqqcyVEREQlyMrKQkpKCjIzMyt7KEREZWJsbAwrKysYGRlV9lAqjAEIERFVC3l5eUhMTESNGjVQt25dSKVSSCSSyh4WEVGxhBDIzc3F06dPkZiYiIYNG0JfX7+yh1UhDECIiKhaSEpKgq6uLuzt7aGrq1vZwyEiKjVDQ0OYmpoiLi4OSUlJsLW1rewhVQjPASEioipPCIGsrCyYm5sz+CAiraSrqwtzc3NkZWVBCFHZw6mQcj8BKSwsVOc4iIiI3pgXL16goKAAhoaGlT0UIqJyMzQ0REpKCl68eKHV07D4BISIiKo82Y9mfPpBRNpM9m+Ytj8IYABCRETVBhedE5E2qyr/hjEAISIiIiIijWEAQkREREREGsMAhIiIiN4KycnJ+OKLL9CkSRMYGhrC0tIS7u7umDFjRrnamz9/PnR0dHD9+vUiyzx69Ah6enqQSCQYM2ZMse11794dEokEmzZtKrLMyZMnIZFI4ODgUGSZhIQEfPXVV3B3d4elpSX09fVRu3Zt9O7dG2vWrEFGRkZJl6ZRBQUFWLZsGVq0aAFDQ0NYW1tj2LBhiI6OLld70dHRGDlypPw8HgcHB0yYMAEpKSlF1snKysL333+PZs2awdDQELVq1cL777+PkydPFtvX4cOH0atXL1hYWMDIyAgtWrTAzz//jBcvXqgs7+fnB4lEUuTr119/VaozePBg1K5d+637e3ub8RwQIiIiqnRXrlxBnz598M8//6BZs2bw9PREWloabt26hWXLlmHRokVlau/JkydYtGgRfHx80KJFiyLLbdu2DQUFBQCAPXv2YM2aNTAwMKjQtRRn7dq1mDp1KnJzc2FjY4NOnTrBzMwMjx8/xtmzZ/Hf//4X8+fPx40bN2BlZfXGxlFahYWFGDp0KPbt2wcLCwv0798fKSkpCAwMREhICEJDQ9GuXbtSt3fixAkMHDgQWVlZcHFxQadOnXDjxg2sXr0aBw4cwPnz55XOuMjIyECPHj1w+fJlWFpa4r333kNqaiqOHz+Oo0eP4vfff1cZPP7000/4+uuvoaOjg/bt28PGxgbnz5/HV199hf/+9784dOgQatSooXKcffr0QZ06dZTSmzRpopQ2e/ZstG7dGj///DPmz59f6s+iWhOkdVJTUwUAkZqaWtlDqfIWTdonVn16XKz7KFDcauIizrbqIMRiFyHmmL38LxFphezsbHHr1i2RnZ1d2UMhFZKSkoSVlZUwMjISBw4cUMq/cOFCmducNGmSACAiIiKKLefm5iYAiLp16woAYseOHUWW7datmwAgNm7cWGSZ0NBQAUDY29sr5f36668CgDAxMRGbN28WhYWFCvmZmZni559/FqampiIuLq7YcWvKb7/9JgAIZ2dn8fjxY3l6YGCgACCcnJzEixcvStVWZmamqF27tgAgZs+eLU8vLCwUX3zxhQAgevfurVRvwoQJAoBo3bq1SEpKkqefO3dOmJiYCH19fREfH69Q5+LFi0IikYgaNWqII0eOyNNTU1NFjx49BACxcOFCpb5Gjx4tAIjQ0NBSXZNMnz59hJGRkUhJSSlTvbIqy79lb/P9IqdgERERUaWaM2cOUlJSsGjRIgwaNEgpvyy/sAMvp+ts3rwZzZs3R6tWrYosd+PGDVy7dg12dnbw9/cHAPzxxx9lG3wpJSYmYsqUKZBIJDh48CA+/PBDpR2NjIyMMGPGDFy4cAHm5uZvZBxltXTpUgDAzz//jNq1a8vTvb29MWjQINy5cwcHDhwoVVt79+7FkydP0KRJE8yZM0eeLpFIsHDhQjg4OODYsWO4du2aPC8vLw8bNmwAAPzyyy+wtraW53Xq1AmTJk1CXl4eli9frtDXunXrIISAn58f+vTpI083MzPDr7/+ColEgqVLl8qfflXUqFGj5N87KhkDECIiomro2LFjkEgk6Ny5c7HlAgICIJFIMHLkyDcyjuzsbGzduhXGxsb46KOP1NLm7t27kZqaiuHDhxdbThZsjBgxAt7e3jAyMsLRo0eRnJyslnG8atWqVcjJycGwYcPQo0ePYsu+8847qFmzptrHUFZxcXGIjo6GoaEh+vfvr5Tv4+MDAAgKCipVe1euXAEAdO3aFTo6iregNWrUkH8XXw1ooqOjkZWVBalUio4dOyq1KfssXw+CZH11795dqU7jxo1Rr149pKSk4Ny5c6Uae0kGDx4MQ0ND/Pbbb2ppr6pjAEJERFQNrVmzBgDwySefFFvOy8sLZmZmCAwMfCM35pcvX0Z6ejpatWoFQ0NDHD58GNOmTcP48eOxfPlyPHz4sMxtBgcHA1B98ylTWFiIgIAAAC9/vTYxMcHgwYORn5+PHTt2lOtaihMSEgLgZbCjLWRPIpo3b65yrYS7uzsAICoqqlTtZWZmAkCRwVWtWrUU+n21jrm5ucozMGR14uLikJaWVqG+XrV3715MnDgR48ePx6JFi/DXX38VfWEATExM0KZNG/z111+IjY0ttiwxACEiIqp20tLScPjwYejq6sLT07PYsoaGhujduzfy8vKwd+9ehbxNmzYVu2OQqtfrQcGtW7cAADY2Nhg8eDD69euHZcuWyRdrOzk5Yfv27WW6vjNnzkBPT6/Y6VehoaF48OAB3Nzc0Lx5cwAvAxFA/dOw8vLy5Ncpu2lXFwcHhzL/HZS0c5RMQkICACgtCpeRpd+7d69U7cmmTxVVPi4uTilfVic5ORnZ2dlF1nl1vCX1JYSQpxc1lpUrV2LVqlVYu3YtvvzySzRt2hSff/458vPzi7w+2VTBU6dOFVmGXuIuWERERNVMaGgo8vLy0KZNG1haWpZYvkePHggMDMSRI0fw6aefytOdnJwwevToMvXt4uKi8P7Zs2cAgIMHD0JXVxerV6/G0KFDkZWVhVWrVmHx4sUYPXo03nnnHbRs2bLE9pOSkvDkyRM0bNgQhoaGRZaTBRmyoAMAevXqBRsbG1y6dAkxMTEqdzwqj2fPnkEIAQAKaxjUwcfHp9jta1VRtbuTKrJtZY2MjFTmGxsbAwDS09NL1V7Xrl2xcOFChISEICUlRWGXrwcPHuC///2vUntOTk6oW7cuHj16hM2bN+Ozzz5TaFO2PuT1el27dkVYWJjKOnv27EFqaqrKsbdq1QodO3ZEz549YWtri8ePH+Pw4cP47rvvsGbNGujr62PZsmUqr0/23Y6MjCzV51GdMQAhIqJqb+DKs0hOz63sYZSatakUQRO7lLt+REQEAMDNzU0hPTc3F5cuXULt2rXh7OwsT3d1dVWoJ9OlSxd06VL+cQAvp0IBQH5+Pn744QeMHz9enrdo0SLcu3cPu3fvxqJFi+RTpoqTlJQEoOipN8DLdSd79+6Fjo6OwpQoPT09DB8+HCtWrMAff/yB77//vryXpTGLFy+u7CGUWu/eveHu7o6IiAi8//77WL16NZo2bYrr16/j008/lT9deHV9iEQiwddff43JkydjxowZkEql8i2aly1bhpCQEOjp6SE/P1+h3vjx47F69WqEh4fjww8/xKxZs2BtbY1jx47h3//+t8o6ADB58mSF9w0bNsT48ePRrVs3uLu7Y9WqVZg2bRrs7OyUrk8WzL+JqYpVDadgERFRtZecnovHaTla86posPT48WMAUNjVCHg5hcXDwwPz5s1TSLexsVGop04mJibyP6tahC5LK+20Ftkv26ampkWW2b9/P9LT09GzZ0/Uq1dPIU/2RCQgIED+1EJG1RqE18nqvFq2Zs2a8vfadHMq+7vJyspSmS9bZ1HcZ/0qiUSCvXv3olmzZrh8+TLat28PU1NTdOrUCUlJSZg7dy4A5eBx4sSJmDhxIjIyMjBmzBjUqlULDRs2xMqVK/H999/Ly79az87ODnv37oWFhQX++OMPNG7cGDVr1sQHH3yARo0ayc8NKe1i/2bNmmHQoEHIz8/H8ePHVZYxMzMDADx//rxUbVZnfAJCRETVnrWptLKHUCYVHW9RN9Ky6Sivn+gsK//6r8Vnz57F77//Xqa+XVxc8PXXX8vf29vbA3g5zUfV9CTZieKyJxslkW1fW9y0INn0q5iYGJVPcCQSCeLj43H27Fl4eHjI02VTkYq6IX81TzY9CQD09fXRtGlT3Lx5ExEREUWuqSiPL774osxTsL7++mulqXCqNGjQAABw//59lfmydNnfYWnY29sjMjIS+/btQ1hYGLKzs9GsWTOMHDlSvsaoWbNmCnUkEgl++eUXjBkzBgcOHMCDBw9gY2MDb29vNG3aFHPmzIGhoSEcHR0V6r333nuIjY3Fjh07cOPGDejq6qJTp07w9vaWB7av91Uc2VPBR48eqcyXBb8WFhalbrO6YgBCRETVXkWmM2kj2dz713+Nl91QPnjwQCFdVk62c5DMnTt3ynzuQbdu3RQCENlC8ezsbOTm5kIqVQyunj59CkDxSUlxZE9rZPVel5SUJF9rkJiYiMTExCLb+uOPPxQCEFngUNwuR7K814OM/v374+bNm9i2bZvKs07KKzAwsNSLwGX8/PxKFYDIpujduHEDL168UNoJSzYlTzZFr7T09PQwdOhQDB06VCE9LCwMQNG7l7Vs2VJpHdDp06dRUFCAzp07Q09P+ba2Zs2a+Pe//62Ufv78eejo6KBr166lHrdsvdKrwaWqfHWv86mKOAWLiIiompHt+iQ7K0Hm0qVLAICbN28iJydHni4r9/qvxX5+fhBClOn1+g5MDRo0gJubG4QQKqdZydKK29HqVTY2NqhTpw4SExNVPqnYvn078vPz4ePjU+QYZTsr7d69G7m5/5vuJrtZPXTokNL0LJmDBw8CgELgAgATJkyAVCrFrl27EBoaWuw1/PXXX/Kb2ZLEx8eX+e+guO2JX9WwYUO88847yM7Olm8j/KrAwEAAwMCBA0vVXnEeP36MwMBA1KpVC15eXqWut3LlSgDAuHHjSl0nJCQEsbGx6Nu3r8q1HKrk5ubKP4OidjKLjo4GgFJtllDdMQAhIiKqZnr37g0DAwNERETIb4YzMjKwefNmDBgwANnZ2diyZQuAl08m1q1bBwAlbtlbXl9++SWAl9OJXp3eEhkZiSVLlgCA0k5GxfHw8EBBQQGuXr2qlCebflXcIYUODg7o2LEjnj9/Lj9TBHh5+nf9+vURHR2NWbNmKZ2ivWbNGvz5558wMTHBxx9/rJBnZ2eH5cuXQwiBQYMG4Y8//lAKYrKzs7F8+XK0b99ePp2nsk2bNg3Ay7+jV6fB7d27FwcPHoSTk5PS92Lfvn1wcXHBhx9+qNTejRs3FIJb4OWTN09PT6Snp2PJkiVKu5clJSUpbLELvNy0YM6cOQgMDESPHj2UnqYALwPn1z/jsLAwfPTRRzAwMJCf8i7z119/4Y8//lAIOoGXTwB9fX2RmJgINze3Ig/vvHjxIoCXT/moBIK0TmpqqgAgUlNTK3soVd6iSfvEqk+Pi3UfBYpbTVzE2VYdhFjsIsQcs5f/JSKtkJ2dLW7duiWys7MreyhvjQULFggAwtDQUHh5eYkmTZoIiUQizp07Jzp37iz09fWFl5eXaNy4sQAgmjRpIrKyst7YeEaPHi0ACAsLC9GvXz/Ro0cPIZVKBQAxduzYMrW1adMmAUB8//33Cum3bt0SAISZmVmJ34VffvlFABCenp4K6efOnRMWFhYCgGjQoIHw8fERH3zwgWjSpIkAIKRSqdi7d2+R7a5evVp+XbVr1xYDBgwQI0aMED179hRGRkYCgKhXr55ITk4u0zW/KQUFBWLIkCECgKhZs6bw8fER3bt3FxKJRBgaGorw8HClOhs3bhQARLdu3ZTyRo8eLczMzET37t3F8OHDxbvvviv/PGbNmqVyDKGhoUIikQh3d3fh7e0tvLy8RN26dQUA0apVK/HPP/+orGdvby9sbW1F3759xfDhw0WbNm3k4w4ODlbZj+w6e/XqJUaMGCG6d+8uTE1NBQBha2srYmJiVPaVnp4uDAwMhIvLm703KMu/ZW/z/SIDEC30Nn+hqhoGIERVAwMQ1VasWCGaNGkipFKpcHZ2Flu2bBFCCHHv3j3Rv39/YWZmJmrWrClGjBghHjx48EbHUlhYKP7zn/+I1q1bCyMjI2FsbCw6duwoNm3aVOa2srKyhLm5uWjatKlC+syZMwUAMXr06BLbePz4sdDV1RU1atQQKSkpCnkJCQli8uTJwsXFRRgaGgqpVCocHR3Fxx9/LG7dulVi2/fu3RMzZswQbm5uwtzcXOjp6QkbGxvRu3dvsXbtWpGRkVGm633T8vPzxZIlS0SzZs2EgYGBqFWrlvDx8RE3b95UWb64AGTfvn2iT58+ok6dOqJGjRrCxsZGeHp6itDQ0CL7T0hIEH5+fsLZ2VkYGRkJExMT0bp1a7FkyRKRm5tbZD1/f3/Rvn17YWlpKfT19YW9vb0YN26cuHv3rsryDx48EFOmTBEdOnSQj8/ExES4u7uLOXPmiKdPnxbZ15YtWwQAsWTJkiLLqENVCUAkQhQxiZHeWmlpaTA3N0dqaqp8yzd6MxZP3g/DXDPUyHsGj7Dv8NTIAp1HPgfSHwKm9YDp0ZU9RCIqhZycHMTFxaFhw4YwMDCo7OGQBkydOhXLly/H5cuX0bp168oeDlVxffr0wdmzZ5GQkKC0WYM6leXfsrf5fpFrQIiIiKjKmTlzJkxMTODv71/ZQ6EqLiIiAseOHcP06dPfaPBRlTAAISIioirHxsYGM2bMwN69e3H9+vXKHg5VYfPnz4eNjY18MwUqGQMQIiIiqpJmz56NwsJCtGjRorKHQlXY/v378eTJk1KfVUMMQIiIiIiISIMYgBARERERkcYwACEiIiIiIo3RugAkOzsbs2fPRuPGjWFgYIB69ephzJgxePDgQZnbCg8Ph6enJ6ysrGBgYIDGjRvj22+/RWZmZpF1Hj58iAkTJsDJyQlSqRRGRkZwdXXFnDlzkJ6eXmS9oKAgdOvWDWZmZjAzM0P37t0REhJS5jETEREREWkzrQpAcnJy0LNnTyxYsAAZGRnw9PSEnZ0dNm7ciFatWiE2NrbUbQUEBKBLly44ePAg7O3t0a9fP+Tm5mLhwoXo1KkT0tLSlOrcvn0bLVu2xOrVq1FQUIABAwagR48eSExMxPz589GhQwekpqYq1Vu+fDkGDRqEsLAwdO7cGT179sTFixcxYMAArFq1qkKfCRERERGRNtGqAOT7779HeHg4OnbsiL///hs7d+7EhQsXsGTJEiQnJ2PMmDGlauf+/fv45JNPUFBQgPXr1+PKlSvYu3cvbt++jeHDhyMqKgozZsxQqvfVV18hOTkZ48ePx507d7Bnzx6EhIQgPj4eHTp0wK1bt7B06VKFOjExMfjiiy8glUpx+vRpHD58GPv370dkZCRq1aqFqVOn4s6dO2r5fIiIiIiI3nZaE4Dk5eXJnxasXr1aYauzadOmwdXVFadOncKVK1dKbGvTpk3IyclBr169FIIWfX19rFq1CqamptiwYQP++ecfhXqnT58GAMyaNQu6urrydHNzc/nez5cuXVKos2LFChQUFOCzzz5Dx44d5emy6V75+flYsWJFaT8GIiIiIiKtpjUByLlz55CamopGjRqhVatWSvk+Pj4AXq61KIksSOnevbtSnqWlJVxdXZGfn6+0RkMqlZbY9usnYMrakI2vvGMmIiIiIqoKtCYAuXbtGgDA3d1dZb4sPSoqqsS2ZIvMa9asqTJfFkTI+pTp3bs3AGDBggUoKCiQp6empuLnn38GAIUnKs+fP0dCQgIAqAya7OzsYGVlhXv37qlcc0JEREREVNVoTQAiu5G3tbVVmS9Lv3fvXoltWVtbF1s2Li5OZb6/vz9atGiBNWvWwMnJCT4+PhgwYAAcHBwQHx+PrVu3okePHkpjrlmzJoyNjSs8biIiIiIibac1AUhGRgYAwMjISGW+7Aa/uK1wZbp27QoA2L59O/Ly8hTyLl++jOvXr6tsq06dOjh58iR69+6N+Ph4+SL058+fo1OnTmjdunWZxlzacefm5iItLU3hRUREVBWcPHkSEomkxNf8+fPL3PaYMWNgbGyMpKSkIstcvHix1H04ODhAIpHg5MmTRZbZtGkTJBKJymneMrdu3cLEiRPRvHlzmJubQyqVon79+hg0aBC2bNmidG9S2dR5BAJQvmMQnj59ihkzZsiPQbCxsYGPjw8iIyOL7SsgIACdO3eGqakpTExM0LZtW/z2228QQiiVLc93UQiBVq1aoUWLFigsLCzX51Ed6VX2ACrDyJEj8f333yMhIQGDBg3C4sWLYW9vj/Pnz2Ps2LHQ09NDfn4+dHQU47OoqCj0798furq6OHDgALp27YrMzEwEBgZi5syZOHnyJMLCwtCkSRO1jtff3x/z5s1Ta5tERERvgzp16mD06NEq8woKCrB161YAgIeHR5navX79OjZv3ozp06fDxsamyHJ//PGH/M8BAQGYPXt2mfopCyEEZs+eDX9/fxQUFKBBgwbo0aMHDA0NkZiYiCNHjiAoKAjz5s3D3bt339g4ykJ2BEJ4eDjq1q0LT09PxMfHY+PGjQgODkZ4eDgcHR1L3V5AQABGjx6NgoICuLu7w97eHleuXMHChQsRHByMM2fOwMzMTKHOo0eP0KVLF8TGxqJOnTp4//338fjxY+zduxdBQUEICgqST5N/1b///W/8+uuv0NfXR8eOHWFsbIywsDCMGzcO586dw6ZNmxTKl+e7KJFIMHv2bHh5eWHTpk2l3pG12hNaYurUqQKAmDp1qsr8yMhIAUC4u7uXqr3IyEhha2srACi8nJycxFdffSUAiOHDh8vL5+XlCWdnZ6GjoyOuXLmi1N6SJUsEADFs2DB52rVr1wQAUbNmzSLH0bJlSwFAREVFFVkmJydHpKamyl+JiYkCgEhNTS3VtVL5LZq0T6z69LhY91GguNXERZxt1UGIxS5CzDF7+V8i0grZ2dni1q1bIjs7u7KHQmVw6NAhAUDY2dmJwsLCMtUdNGiQqFGjhnjy5EmRZfLy8oSVlZUAIOrUqSMAiPDw8CLL29vbCwAiNDS0yDIbN24UAES3bt2U8r7++msBQNSuXVuEhIQo5T99+lR88803okaNGsVemyZ9++23AoDo2LGjSE9Pl6fL7ntUXWdREhMThYGBgQAg1q9fL0/Pzc0Vw4cPFwDEuHHjlOoNGDBAABDvv/++yMjIkKfv27dP6OjoCCsrK5GWlqZQJzAwUH4PdvnyZXn6w4cPRfPmzQUAsW3btlKPvbjvYmFhoXBxcRH169cXL168KHWb5VGWf8tSU1Pf2vtFrZmC1aBBAwAvz/BQRZZub29fqvbc3NwQExODjRs3YuLEiRg/fjx+//13REZGQk/v5YOhZs2aycuHh4fj9u3baNiwocqF8EOHDgXwv616Xx3zs2fPinysWJpxS6VS+QnqshcREVFVJ/vFeeTIkZBIJKWul5iYiODgYPTp06fYpx9HjhxBSkoKOnfujPHjxwNQfCKiThcvXsRPP/0EQ0NDhIaGol+/fkplatasiR9++AGhoaFvZAxlpc4jEIDyHYMg+7vU09PD2rVrFdbUDh48GL6+vkhJScGGDRsU+lq7di0A4IsvvlCYIl+3bl35mW2yDYRKo7jvokQiwciRI/HgwQMcPHiw1G1WZ1oTgLi5uQEAIiIiVObL0l1dXUvdppGREfz8/PDLL79g9erV+Pjjj+WP5wDFbXplgYK5ubnKtmTpz549k6dZWFjIg5CrV68q1UlMTERKSgrs7e0ZVBARkUYdO3YMEokEnTt3LrZcQECA/AZLkzIzM3HgwAEAwL/+9a8y1d2wYQMKCwsxfPjwYsvJbipHjRqFUaNGAQB27tyJFy9elGPExVuyZAmEEJg0aRLeeeedYsuW9HeiKeo8AgEo3zEIsvu7hg0bqvyxVrb5j+y7Upq+unXrBh0dHURGRso3DCpOab6LI0aMAAD89ttvJbZHWhSAdO7cGebm5rh7967KBUeBgYEAgIEDB1aon6ioKJw6dQrNmjVT+AegTp06AF6ebK5qwbjsAEIHBweF9P79+yuM702MmYiIqKzWrFkDAPjkk0+KLefl5QUzMzMEBgYiOTlZE0MDAOzduxeZmZlo1aoVmjZtWqa6wcHBAFTffMqkpqbi4MGD0NfXx7Bhw9CwYUN06tQJKSkpOHLkSEWGrqSwsFDepuxGVRuo8wgEoHzHIJT36ITi6unr68uf5rxeT5XSfBcdHR1hZ2eHEydOIDs7u8Q2qzutCUD09fUxYcIEAMDnn3+uMKVp6dKliIqKQrdu3RQes61atQouLi6YOXOmUnuRkZHIz89XSIuOjoa3tzeEEFi5cqVCXseOHWFjY4PMzExMmDABubm58ryHDx9i6tSpAJQPHJw8eTJ0dXXx66+/Ijw8XJ5++/Zt/PDDD9DT08PkyZPL+nEQERGVW1paGg4fPgxdXV14enoWW9bQ0BC9e/dGXl4e9u7dq5An2/GpLK/igoJXyZ5OlPXpR0ZGBq5evYp69eqhXr16RZYLDAxETk4O3n//fVhaWgKA/CmIuqdhxcbGIi0tDVKpVGF6tzqU9fOXSCSIj48vVdvqPAIBKN8xCKWt8/TpU/nuoyXVe/r0qXxH0dKMvbTfxXbt2iEvL0/hfo9U06pdsL777jv8+eefCAsLg7OzMzw8PHDv3j1cuHAB1tbWSvP/UlJSEBMTg0ePHim1NWXKFNy6dQtubm6wtrZGYmIizp8/D4lEgnXr1imc5wEABgYGWLduHYYOHYotW7bg+PHjaNOmDbKzs3H+/Hmkp6fD3d0dX3/9tUK9Jk2aYNGiRZg2bRo8PDzQq1cv6Ovr49ixY8jOzsYvv/wCJycn9X9YRERERQgNDUVeXh7atGkjv/kuTo8ePRAYGIgjR47g008/lac7OTkVuWtQUVxcXEos8+jRIxw/fhy6urolTqN63a1bt1BQUFDijpSyIEMWdADAsGHDMHnyZAQFBSE1NbXIaddlJVvTULNmTejq6qqlTZmyfv4AFNZyFEedRyAAL49B2LZtG7Zv34758+dDX19fnlfUMQjt2rWDVCrFkydPcOTIEfTt21eeJ4RQ2MkqPT1dfm1du3bFjh07sGnTJoU6ABTuF0sae1m+i7LvdmRkpNJ9JCnSqgDEwMAAoaGh8Pf3x7Zt27B//35YWlrCz88PCxYsKDJCV2XUqFHYunUrrl27hufPn8Pa2hoffPABZsyYgZYtW6qsM3jwYFy8eBGLFy/G6dOncejQIejr68PZ2RnDhg3DlClTYGhoqFRv6tSpcHJywqJFi3DmzBkAQJs2bfDll19iwIAB5fosiIhIfT4I/gAp2SmVPYxSszK0ws4BO8tdXzavXra+UiY3NxeXLl1C7dq14ezsLE+Xra98fR1mly5d0KVLl3KPoyjbt29HQUEB+vbtK58CXVqyMz+KmrIDvPxl//Tp07CwsFCYBl2rVi3069cPBw4cwO7du0ucnvY2eH0r2bdZeY5BMDc3x/jx47Fs2TKMHj0av/76K3r27InHjx9j9uzZiI6Olpd9td4XX3yBwMBA7Ny5Ew0aNMCECRNgZGSEPXv2YPbs2UUeufC6snwXZcG8JqcqaiutCkCAl4+C58+fX6oDiebOnYu5c+eqzPvkk0/K9Q9Lq1atEBAQUOZ6AwcO5FoPIqK3VEp2CpKyij6srqp5/PgxAKB27doK6QkJCfDw8MDIkSPl004AyHeSktV708o7/Qp4ubYDAExNTYssExAQACEEfHx8IJVKFfJGjRqFAwcOYOvWrUr3CaXZiUv8/wF3r5aVrVN49uwZCgoK1P4U5E2RPU3IyspSmS+bDl/cZ/16e8HBwRgwYACOHj2Ko0ePyvOcnJwwffp0/PTTT0rBo7+/PxITExEYGAgvLy95ur6+PlasWIHPP/8cwMvNf2Rat26NjRs3YuzYsVi0aBEWLVokz+vfvz9q1KiB/fv3FxuoAmX7Lso2FHr+/HmJZas7rQtAiIiI1M3K0Kqyh1AmFR1vUTfSsukor86lf7X8678Wnz17Fr///nuZ+nZxcVGarvyq6OhoXL16FSYmJhg8eHCZ2gb+tytlcVNrZNOvTp48qfQER3YK+enTp3Hv3j2FnZdkU5GKuiF/Ne/V7WIdHR1hZmaGtLQ03Lx5s0w7dpbEz8+vzHUWL14MK6uSv0PqPgIB+N8xCLt27UJERIT8QEJfX1/4+/sDgNI6GalUit27d+PMmTM4cuQIkpOTYWdnB19fX/l3U3ZC+qtGjRqFHj16YNeuXfj7779hYGCAd999F/3795cfJljcmpyyfhdlwe+rgRCpxgCEiIiqvYpMZ9JGspvP16eKyG4oHzx4oJAuKyf7JV/mzp072Lx5c5n67tatW7EBiCw48PLyKnLtQXFkT2uePn2qMv/KlSvyaTt37tzBnTt3VJYTQiAgIADffPONPM3W1ha3bt1CbGxskf3L8l6dFq6jo4O+ffti165d2LZtm1oDkLJ+/sDLGSKlCUDexBEIwP+OQXg9eFJ1DMKrPDw8FE4hB4AtW7YUW6d+/fryjYJksrOzERkZCVNT0yJ3+ALK/l2UHcUgWwBPRdOaXbCIiIhIPZo3bw4ASgfIybaUv3nzJnJycuTpsnKv/1rs5+cHIUSZXidPnixyXEIIbNu2DUD5pl/Jxqinp4eYmBiV+bIpNV988UWJY3x1GhrwcmEzAIVzKl5VWFgoz3v9RnnatGmQSCT45ZdfFNYtqCK7ES+Nsn7+QgilIwOKoqkjEICij0EojhACq1evBgCMHTu21H1t2LABmZmZ+Ne//qVy7a6s7bJ+F2V/r0WtJab/YQBCRERUzfTu3RsGBgaIiIiQn7qdkZGBzZs3Y8CAAcjOzpb/spydnY1169YBQIlb9lbUmTNncO/ePdSvXx89e/YsVxvGxsZo1aoVHj16pPQkp6CgANu3bweAYnc08vDwQP369REdHa0QpI0ZMwYmJiY4cuSI/DN5te1vv/0WMTExsLW1hbe3t0J++/bt8eWXXyI7Oxs9e/bEoUOHlPpNTU3FnDlz3podlMpzBAKg3mMQgJdrk2SbC8hkZ2dj3LhxuHjxIvz8/NCuXTulepcvX1ZKO3DgAL788ktYWVlh3rx5RV57eb6LFy9ehL6+Pjp06FCq8tUZp2ARERFVM5aWlvj2228xa9Ys9O/fH++//z5u3ryJ+/fvY8eOHXj27BkmTpyIo0eP4saNG/j777/RpEkTfPTRR290XLInDiNGjChxd6Li9O/fH5cuXcLJkycVTnA/duwYnjx5gsaNGxc79UZHRwcffPABli5dij/++EN+g123bl1s2bIFw4cPx2effYZly5ahZcuWKCgowMWLF5GQkAALCwvs2rULBgYGSu36+/tDT08P/v7+6N+/P+zt7dGqVSsYGhri/v37uHDhAvLy8hR2IKtsZT0CAVDvMQgAcOLECYwdOxZt2rRBgwYNkJ2djXPnzuHp06fo06cP1q5dq3Lsbdu2RaNGjfDOO+/A2NgYN27cwM2bN1GrVi0cPny42GloZf0u3r17F/fv30ffvn2LfKpC/8MnIERERNXQd999hxUrVqBBgwYICQlBYWEhNm/ejE6dOmHbtm3o1asX/vzzTyQnJ2PEiBE4ceLEG72xys3NlU/pefVsjvIYM2YMdHV15VNoZGRz+ktztoiszPbt2xV+sR8yZAgiIiLw8ccf48WLF9i/fz9CQkJgZGSEyZMnIyoqCh07dlTZpkQiwffff4+oqCh8/vnnMDIywvHjxxEYGIi7d++iT58+2Lp1K27evFneS1c72REIs2bNgpGREfbv34979+7Bz88PERERcHR0LFN7o0aNQtOmTXHt2jUEBgYiNjYWH3zwAS5dulTkNKrWrVvDx8cHjx8/xsGDB3H69Gk0bdoU69evx+HDh1UGe8DLYxDMzMxw9uxZ7N+/H3l5eZg2bRpu3bqFNm3aFDnG8nwXZd+1skwFq84kQrZfHGmNtLQ0mJubIzU1Vb7lG70Ziyfvh2GuGWrkPYNH2Hd4amSBziOfA+kPAdN6wPTi5/ES0dshJycHcXFxaNiwYZE3K1S1DBkyBMHBwUhMTCzzWSJEZSGEwDvvvIOMjAzEx8dDT+/NTTAqy79lb/P9Ip+AEBERUZWzYMECFBYWYvHixZU9FKri9u/fj5iYGMyfP/+NBh9VCQMQIiIiqnKaN2+O0aNHY+3atUoLmInURQiB+fPno3nz5uU6k6W6YgBCREREVZJsu1XZ2SBE6iaRSHD16lVcv369QhsnVDf8pIiIiIiISGMYgBARERERkcYwACEiIiIiIo1hAEJERERERBrDAISIiIiIiDSGAQgREREREWkMAxAiIiIiItIYBiBERERERKQxDECIiIiIiEhjGIAQEREREZHGMAAhIiIiIiKNYQBCREREle7SpUsYNmwY6tWrhxo1asDCwgIeHh7YuHEjhBDlarNnz56wtbVFbm5ukWV27doFiUQCiUSCLVu2FNuerFx8fHyRZebOnQuJRAI/P78iy4SHh+OTTz5B48aNYWpqCgMDAzg4OGDYsGHYt28fCgsLS7o0jXr27BkmT54Me3t7SKVS2NvbY8qUKXj+/Hm52jt8+DB69eoFCwsLGBkZoUWLFvj555/x4sWLIuvcv38fn332GRo0aACpVIp69erBz88PcXFxRdYpKCjAypUr0bp1axgbG8Pc3Bxdu3bF3r17ix1feHg4PD09YWVlBQMDAzRu3BjffvstMjMzlcoKIdCqVSu0aNHirft7e5sxACEiIqJKtWfPHnTs2BG7d+9G3bp14eXlBXd3d4SHh2PMmDEYNWpUmdsMCQlBaGgovvnmG0il0iLL/fHHH/I/b926tVzjL60XL17gk08+QceOHbF+/Xro6Ojgvffeg6enJ2xsbLBnzx54eXmhV69eb3QcZZGSkoJ27drhl19+gZ6eHgYPHgxTU1OsWLEC7du3x9OnT8vU3k8//YR+/frhxIkTaNq0KXr37o2kpCR89dVX6Nevn8og5MaNG2jVqhXWrVsHXV1dDBgwADY2Nti8eTNatmyJa9euKdUpKCjA4MGDMWnSJPz999/o0qUL2rVrhytXrsDb2xtz585VOb6AgAB06dIFBw8ehL29Pfr164fc3FwsXLgQnTp1QlpamkJ5iUSC2bNn48aNG9i0aVOZPotqTZDWSU1NFQBEampqZQ+lyls0aZ9Y9elxse6jQHGriYs426qDEItdhJhj9vK/RKQVsrOzxa1bt0R2dnZlD4Ve8+LFC2FjYyMAiICAAIW8W7duCUtLSwFAnDhxokzturq6Cmtra5Gbm1tkmaSkJKGnpyeMjIyEmZmZ0NHREQ8ePCiyPAABQMTFxRVZZs6cOQKAGD16tFKer6+vACAaN24szp07p5T/4MED8emnn4qGDRsWe22aNHLkSAFAeHl5iRcvXsjTJ06cWOR1FuXixYtCIpGIGjVqiCNHjsjTU1NTRY8ePQQAsXDhQoU6hYWFokWLFgKAGDNmjMIYfvnlFwFANG3aVOTn5yvUW7x4sQAgHBwcxJ07d+Tp0dHRol69egKACAsLU6iTmJgoDAwMBACxfv16eXpubq4YPny4ACDGjRundF2FhYXCxcVF1K9fX2F8b0JZ/i17m+8X+QSEiIiIKs1ff/2FpKQkNGnSBCNGjFDIe+edd+RPPy5dulTqNs+dO4eoqCh88MEH0NfXL7Lcjh07kJ+fjyFDhsDHxweFhYXYtm1b+S6kBLt378aOHTtQu3ZtnD59Gp06dVIqU69ePfz6668KT2Uq06NHj7B9+3bo6+tjzZo10NPTk+ctWrQI1tbW2Lp1K5KSkkrV3rp16yCEgJ+fH/r06SNPNzMzw6+//gqJRIKlS5eioKBAnnfu3Dlcv34dlpaWWLFihcIYJk6ciE6dOuHWrVsIDg5W6Gvt2rUAgB9++AGNGjWSp7u4uMiffvz8888KdTZt2oScnBz06tULY8aMkafr6+tj1apVMDU1xYYNG/DPP/8o1JNIJBg5ciQePHiAgwcPluqzqO4YgBAREVVDx44dg0QiQefOnYstFxAQIL/BehOKmx71qlq1apW6zd9//x0AMHz48GLLyaZcjRo1Sh7ovKmb/8WLFwN4uUakdu3axZYt6e9EU44cOYLCwkJ4eHgojVkqlWLgwIEoKCjAoUOHStXelStXAADdu3dXymvcuDHq1auHlJQUnDt3TqlO69atYWJiolSvR48eAIADBw7I01JTU3H37t0i+5LVOXr0qML6oOLGZ2lpCVdXV+Tn5yMkJEQpXxY8//bbb0p5pIwBCBERUTW0Zs0aAMAnn3xSbDkvLy+YmZkhMDAQycnJah+Ho6MjGjVqhJiYGKWnD9HR0di6dStq1qyJIUOGlLrNkJAQGBoaol27dkWW+fvvv3Hx4kXUrl0bvXr1Qvfu3WFra4uoqChcv3693NejSkpKCi5evAiJRAJfX1+1tv0mydZWuLu7q8yXpUdFRZWqPdki7po1a6rMlwWZr67pqEidourJ6mRnZ+Pvv/+uUF8yjo6OsLOzw4kTJ5Cdna2yPv0PAxAiIqJqJi0tDYcPH4auri48PT2LLWtoaIjevXsjLy9PafegTZs2yXeGKu3r9V+XdXV1sXnzZlhYWGDkyJFo3bo1fH190bNnT7i6usLW1hbHjx+HpaVlqa7tr7/+QnJyMlq1aqUwXed1sicdvr6+0NXVhUQikf+Kre6nIJGRkQBe3qRaWFiord34+Pgyf/4SiaTU7SckJAAAbG1tVebL0u/du1eq9qytrYssL4SQp7+aX1wdAPJdsF7Nt7S0hK6ubpH1Xt05q6J9vapdu3bIy8tDeHi4ynz6n6L/l0lERFRN7Fp4CVlpeZU9jFIzMtPHsG/alrt+aGgo8vLy0KZNm1Ld2Pfo0QOBgYE4cuQIPv30U3m6k5MTRo8eXaa+XVxclNI6d+6MU6dOYciQIYiIiEBERASAl3Pve/XqBUdHx1K3L/s1vkmTJkWWEUIgICAAABR22Bo1ahR+/vlnbNu2DT/++CN0dNTzO61szYDsBlddTExMyvz5l0VGRgYAwMjISGW+sbExACA9Pb1U7XXt2hVhYWHYvHkzPvvsM4W8PXv2IDU1Vam9rl27Ani5BujWrVto2rSpPC8rKwu7du1SqmNgYIC2bdsiPDwcmzZtwo8//qjQ14YNG+R/fr2vbdu2Yfv27Zg/f77C+qHLly/Ln4wVdb2y73ZkZKR8mhepxgCEiIiqvay0PGQ+L/qsiKpGdoPv5uamkJ6bm4tLly6hdu3acHZ2lqe7uroq1JPp0qULunTpUuHxbN++HR999BE6dOiA7du3o1mzZnj48CEWL16MJUuWIDQ0FGFhYaVaLyJbEF3UNBrg5cLmuLg4uLi4oE2bNvL0Fi1awM3NDdeuXcOJEyfw3nvvVfja3iQrKyut2vp1/PjxWL16NcLDw/Hhhx9i1qxZsLa2xrFjx/Dvf/8benp6yM/PVwj8mjRpgiFDhmDfvn0YNGgQ/vOf/6Bt27aIjY3FlClT5MHd68Hi119/jcGDB2PJkiWwsrLCqFGjUFhYiI0bN+LXX39V2dfIkSPx/fffIyEhAYMGDcLixYthb2+P8+fPY+zYsSrrvEoWzL+JqYpVDadgERFRtWdkpg9jC6nWvIzMit7ZqTQeP34MAEoLixMSEuDh4YF58+YppNvY2CjUU6fbt29j9OjRsLKyQnBwMNq1awdjY2M4Oztj3bp1GDBgACIiIhR+tS6O7Fd0U1PTIsvIplipOl9EllbeM0HE/x+a+OpUJ9naAW27MZUt+s7KylKZL1szUdxn/So7Ozvs3bsXFhYW+OOPP9C4cWPUrFkTH3zwARo1aiTfeer14HH9+vXo2rUr7t69i3fffRdmZmZo2bIlrly5It/J6vU6np6e+OmnnyCEwIwZM1C3bl3Ur18f3333HT7++GO0atVKqZ6JiQmCg4Nha2uLo0ePokWLFjAzM0OfPn2gr6+P6dOnq+xLxszMDADKfUBjdcInIEREVO1VZDqTNipqHYBsaols6s3r5V//5ffs2bPyHadKy8XFBV9//bX8/Y4dO/DixQv07dtX5S5Hw4YNQ3BwME6fPo1///vfJbZvbm6ucC2vy83NlU/b2bFjBw4fPqyQL6u3Z88erFmzRmH6kZGREbKysoq8IQf+d7Mum54E/O9JU2xsLJ4/f662dSApKSn44osvylyvtE9NGjRoAODlKeSqyNLt7e1L3fd7772H2NhY7NixAzdu3ICuri46deoEb29vfPTRRwCAZs2aKdSpWbMmTp48icOHD+PkyZNITU1Fo0aNMHLkSERHR6usAwBffvklhgwZgsDAQMTHx8Pc3Bz9+/dHt27d5OtXXq/n5uaGmJgY7Nq1CxERESgoKIC7uzt8fX3h7+9fZF/A/4Jfda7zqaoYgBAREVUzVlZWAJR/kZfdUD548EAhXVbu9a1w79y5g82bN5ep727duikEILI+ZYHD62Tpz549K1X7sqc1RZ3QHRwcLP+F+saNG0W2k5GRgf379yucTWJra4u///4bsbGxCmsRXhUbGysvK2NtbY127drh4sWL2LFjh9L6h/LKyMgo8+cPlD4AkQVOr0+9k5Gly6bolVbNmjVVBpPnz5+Hjo6OfN3HqyQSCfr164d+/foppK9fvx6A6q1zAcDZ2RkzZ85USEtISMCDBw/g5OSE+vXrK9UxMjKCn58f/Pz8FNLDwsKK7Uv2HVX3Wp+qiFOwiIiIqpnmzZsD+N+5BzKyw/5u3ryJnJwcebqs3Ou//Pr5+UEIUabXyZMnFdqoU6cOgJeLfFWRjcnBwaFU1ya7aY6JiVGZL5tatWrVqiLHKLtBf303LNmNsapzIICXU5JOnDgBAPDw8FDIkz2pmDt3bokH98ludEvi4OBQ5s9fNkWsNPr27QsdHR2cOXNGacy5ubkICgqCrq6uUlBQHiEhIYiNjUXfvn1hZ2dXqjpZWVlYv3499PX1y7QYf+XKlQCAcePGlbpOVFQUTp06hWbNmhV5TovsaUzLli1L3W619WYPWqc3ITU1VQAQqamplT2UKm/RpH1i1afHxbqPAsWtJi7ibKsOQix2EWKO2cv/EpFWyM7OFrdu3RLZ2dmVPZS3wj///CMMDAwEAHHixAkhhBDp6enCzs5ODBgwQAAQ69atE0IIkZWVJZo1ayYAiNWrV6t9LFeuXBEABACxZs0ahbzz588LY2NjAUD897//LXWbNjY2wtDQULx48UIh/Z9//hH6+vpCV1dXPHnypMj6qampwsDAQOjq6orHjx/L069evSp0dXVFjRo1xMGDBxXqZGdni1GjRgkAok2bNirb9fX1FQBEkyZNRFhYmFL+o0ePxOeffy4aNmxY6mt900aOHCkACG9vb4XPc9KkSQKAGD16tFKdr7/+WjRp0kSsXLlSKe/y5cuisLBQIe3cuXPC2tpaGBgYiL/++kupTkxMjNI9zz///CP/rs6dO1epTkZGhrh165ZS+q+//ip0dXVFkyZNRE5OjlL+1atXlb43t27dEk5OTkIikcj/96KKra2t0NfXF1lZWUWWqaiy/Fv2Nt8vMgDRQm/zF6qqYQBCVDUwAFG2YMECAUAYGhoKLy8v0aRJEyGRSMS5c+dE586dhb6+vvDy8hKNGzeW3zS/qRurL774Qh6ENGvWTAwdOlR07txZ6OjoCABi3LhxZWrPz89PABBnz55VSF+zZo0AIHr37l1iG15eXgKAWLZsmUL6qlWr5ONq1aqVGD58uBg8eLCwsbERAIStra2IiYlR2WZeXp4YM2aM/FpdXFyEl5eX+OCDD0T79u2Frq6uACB69epVput9k5KTk0WjRo0EANGoUSPxwQcfiObNmwsAwtnZWfzzzz9KdUaPHi0AiDlz5ijl2dvbC1tbW9G3b18xfPhw0aZNGyGRSIShoaEIDg5WOYY5c+YIAwMD4eHhIXx9fcX7778vTExMBADh5+cnCgoKlOrExcXJv0+DBw8WQ4cOFY6OjgKAcHBwELGxsSr76tatm7C2thbvvfeeGD58uOjSpYvQ1dUVenp64j//+U+Rn9OdO3cEANG3b98iy6gDAxCqNG/zF6qqYQBCVDUwAFFtxYoVokmTJkIqlQpnZ2exZcsWIYQQ9+7dE/379xdmZmaiZs2aYsSIEeLBgwdvdCx79+4VvXv3FrVq1RJ6enqiZs2aokePHmLbtm1lbuvcuXMCgBg/frxCeseOHQUAsXHjxhLb2L17twAg3N3dlfLCw8OFr6+v/BdvExMT4ebmJr799luRkpJSYtthYWFizJgxwsnJSRgZGQmpVCrs7e3FsGHDxIEDB5SeEFS2f/75R0ycOFHY2dkJfX19YWdnJyZNmiSePXumsnxxAYi/v79o3769sLS0FPr6+sLe3l6MGzdO3L17t8j+T506JTw9PeWft6Wlpejdu7fYu3dvkXVSU1PFZ599Jpo2bSpMTU2FkZGRaNasmZgzZ45IT08vst5vv/0mD0Jq1Kgh6tWrJ0aMGCGuXr1aZB0hhJg/f74AIPbs2VNsuYqqKgGIRIgyTAakt0JaWhrMzc2Rmpoq3/KN3ozFk/fDMNcMNfKewSPsOzw1skDnkc+B9IeAaT1genRlD5GISiEnJwdxcXFo2LAhDAwMKns4pAGtWrXC/fv3cf/+/VKdH0JUXkIIvPPOO8jIyEB8fDz09N7cHk9l+bfsbb5f5CJ0IiIiqnJ++OEHpKSk4LfffqvsoVAVt3//fsTExGD+/PlvNPioShiAEBERUZXTr18/9OjRAz/++CNyc6vPKfekWUIIzJ8/H82bN1fatpeKxjCNiIiIqiTZlrhEb4pEIsHVq1crexhah09AiIiIiIhIYxiAEBERERGRxjAAISIiIiIijWEAQkREREREGsMAhIiIiIiINIYBCBERERERaYzWBSDZ2dmYPXs2GjduDAMDA9SrVw9jxozBgwcPytxWeHg4PD09YWVlBQMDAzRu3BjffvstMjMzVZaXSCQlvnr27KlQ5+TJk8WW79ChQ7k+ByIiIiIibaRV54Dk5OSgZ8+eCA8PR926deHp6Yn4+Hhs3LgRwcHBCA8Ph6OjY6naCggIwOjRo1FQUAB3d3fY2/8fe/cdHlXR9nH8u+kJIQkldAgdpFfpEFCpSklAqoLogw3LA6JgARUVRQEL+IiiIAhYQhNQQTSAlCAQkSqI0osQSkJJAknm/WPfXVnSIWSzye9zXXvBzpwz5z6zSzh3zsyZELZu3cobb7zBsmXL+OWXX1ItWz948OB021u+fDkxMTG0adMmzfoqVarQunXrNMtFRERERAoKl0pAXnvtNaKiomjRogUrV67E398fgMmTJzNy5EiGDh3K6tWrM23n6NGjPPTQQyQnJ/Ppp58ydOhQAK5cucKQIUOYP38+o0aNYvr06Q77zZo1K832zp8/z5dffgnAoEGD0tymdevW6e4vIiIiIlJQuMwQrCtXrjB16lQApk2bZk8+AEaMGEG9evVYs2YNW7duzbStWbNmkZCQwF133WVPPgC8vLyYOnUqhQsX5rPPPuPMmTNZiu2bb74hMTGR5s2bU61atWyemYiIiIhIweEyCcj69euJjY2lSpUqNGzYMFV97969AVi6dGmmbdmSlNDQ0FR1RYsWpV69eiQlJbF8+fIsxfbFF18AcN9992VpexEREXG0Z88eBg4cSOnSpfH29qZixYoMHz6cmJiYG27z1Vdfxc3NjR07dqS7zYkTJ/Dw8MBisTj8UjItoaGhWCyWDEc02OZ+VqxYMd1tDh8+zHPPPUejRo0oWrQoXl5elCxZko4dO/Lhhx9y8eLFzE4tVyUnJzNlyhTq1q2Lr68vwcHB3HvvvezZs+eG2ruRz/ry5cu89tpr1K5dG19fX4oVK0aXLl0yHfny/fffc9dddxEUFISfnx9169Zl4sSJXL16Nd199u3bxwMPPEBISAheXl4ULlyYpk2bMmXKFK5cueKwrTGGhg0bUrduXVJSUrLVDwWZyyQgv//+OwCNGjVKs95Wvn379kzbsk0yL1KkSJr1xYoVczhmRg4fPswvv/yCp6cnffv2TXe7P//8kzFjxjBs2DCef/55vvvuO31RRUREgJ9//pkmTZowb948goKCuPvuu/H29mbatGk0bNiQo0ePZrvNf/75h7fffpvevXtTt27ddLebN28eycnJACxYsICEhIQbPo+s+N///kf16tWZOHEix44do2XLlvTu3ZvatWuzbt06Hn/8capWrXpTiVdOSklJoU+fPowYMYKjR4/SrVs3ateuTUREBE2aNOHXX3/NVns38llfvHiRdu3a8dJLL3Hy5EnuvPNOateuzU8//USHDh347LPP0jzWW2+9RdeuXfn555+pVasWHTt25NSpUzz33HN07do1zSRkw4YNNGzYkFmzZlGoUCF69uxJy5Yt2bVrFyNGjKBjx44kJSXZt7dYLIwdO5adO3dqqH12GBfx3//+1wDmv//9b5r127ZtM4Bp1KhRpm0NGDDAAOa5555Ls75u3boGMOHh4Zm29cYbbxjAdO/ePc36yMhIA6T5qlu3rtm3b1+mx7hebGysAUxsbGy295XsefvJRWbqwz+Z6Q9EmN01app1DZsb805NY8YFWP8UEZcQHx9vdu/ebeLj450dilzn0qVLpmTJkgYwY8eOtZenpKSYZ555xgCmY8eO2W73ySefNICJjo7OcLv69esbwJQuXdoA5ssvv0x323bt2hnAzJw5M91tbP/vh4SEpKr76KOPDGD8/f3N559/blJSUhzqL126ZCZOnGgKFy5sDhw4kGHcueWTTz4xgKlWrZo5efKkvTwiIsIApmrVqubq1atZautGP+vhw4cbwDRu3NicOnXKXr5+/Xrj7+9vvLy8zMGDBx32+fXXX43FYjGenp7mhx9+sJfHxsaa9u3bG8C88cYbqY7VsGFDA5gJEyY4lB87dsxUrlzZAOazzz5zqEtJSTE1a9Y0ZcuWzXJf3Kjs/CzLy9eLLnMHxHY70s/PL836QoUKAXDhwoVM22rbti0A8+fPT3UrbcuWLfZbtVlpK7PhV4GBgYwaNYqoqCjOnDnDmTNn+Omnn2jevDk7duygY8eOxMbGZniMxMRE4uLiHF4iIiL5wcKFC/nnn3+oUaMG48aNs5dbLBbeeOMNKlasyMqVK7M0KsHm8uXLfP7559SpUyfNYds2O3fu5Pfff6d8+fJMmDABgDlz5tz4yWTgyJEjPP3001gsFr799lvuv/9+LBaLwzZ+fn6MGjWKTZs2ERgYeEviyK7JkycDMHHiREqWLGkvDw8Pp3v37uzfv58lS5Zkqa0b+ayvXLliv8Px/vvvExwcbK9r2bIlTz75JFeuXOHdd991ONb06dMxxjBkyBA6depkLw8ICOCjjz7CYrEwefJk+90vsF5r/vbbb/j5+fHss886tFemTBmGDx8OwObNmx3qLBYLAwcO5NixY3z77bdZ6ouCzmUSkJw0cOBAypUrx+HDh+nevTs7d+7kwoULrFy5kvDwcDw8rA8Hc3PLuHuio6PZvXs3QUFB3HPPPWlu07BhQyZOnEizZs0oWrQoRYsWpUOHDqxbt442bdpw8OBBPvzwwwyPM2HCBAIDA+2v8uXL39iJi4iI/L+VK1disVho1apVhtvNnTvXfoF1K9jmZbZt2zbV/7uenp72+LJ6kQvWh8PExsbSv3//DLezJRsDBgwgPDwcPz8/VqxYwenTp7NzClkydepUEhISuPfee2nfvn2G2952223pDhPPTQcOHGDPnj34+vrSrVu3VPXZmX8LN/ZZ79mzh8uXL+Pt7U2LFi1StWnry+u/HxnN961evTplypQhJiaG9evXO8SQ2bUf/DtU/1oDBgwA4JNPPsl0f3GhBMT21KvLly+nWW+b11G4cOEstbVs2TLKlSvHihUrqFu3LgEBAXTq1AkvLy9GjhwJpD9HxMZ296NPnz54e3tn+VwA3N3dee655wBYsWJFhtuOGTOG2NhY++vIkSPZOpaIiMj1bL/8euihhzLcLiwsjICAACIiIm7JhXlOzsu0WbZsGZD2xadNSkoKc+fOBayP0Pf396dnz54kJSXZH62fk2wPtrFdqLoCW5/XqVMHT0/PVPXZmX8LN/ZZ2/YJDAxMdcfo2n0OHDjgMELkRo7l7e1N27ZtuXz5MhMnTnTY/vjx40ybNg1PT880R71UrlyZ8uXL8/PPPxMfH5/mMeVfLpOAVKhQASDdiWi28pCQkCy1V79+ffbu3cvMmTN54okneOyxx5gxYwbbtm2z3wGpXbt2uvsnJydnuvZHZmyP7D1x4kSG23l7exMQEODwEhERuVFxcXF8//33uLu706NHjwy39fX1pWPHjly5coWFCxc61M2aNQuLxZKt1/VJgW1IzaFDh9I8/oEDBzKsT8svv/yCh4dHhsOvIiMjOXbsGPXr16dOnTrAv/+f5/QwrCtXrrB7924g/Yfp3KiKFStm+zPIypppYH3QDkC5cuXSrLeVZ/WzuZHP2rbP6dOn07ywt+1zbbyZHcsYYy+/vv6jjz6ifPnyjBkzhlq1anHvvffSuXNnqlatijGG5cuXU7169TTjv/3227ly5QpRUVFp1su/XGYhwvr16wPWYU9psZXXq1cvy236+fkxZMgQhgwZ4lC+YcMGIOPfnPz000+cOHGCkJCQdFc/z8y5c+eAf+eviIiI5IbIyEiuXLlCkyZNKFq0aKbbt2/fnoiICH744Qcefvhhe3nVqlUZPHhwto5ds2ZNh/dt27bljTfeYPny5cTExFC8eHF73bFjx/jxxx+BrM3LBDh16hT//PMPlSpVwtfXN93tbEnGtb9EvOuuuyhRogSbN29m79691KhRI8vnlZFz585hjAFwmMOQE3r37p3tJ2aVKlUqS9vl5PxbuLHPumrVqpQuXZoTJ07w+eef88gjjzi0ee0TsK7dr23btmzYsCHNfRYsWGCff3t97DVq1GDdunX06tWL6Oho+6OGLRYL7du3z/CX07bv9rZt2zIdZlfQuUwC0qpVKwIDA/nrr7/Ytm0bDRo0cKiPiIgASHcuRlZt376dNWvWULt27QzHxdqGXw0aNCjNW4JZsWDBAiDnfxsiIiLZcyC8N0l55LGnWeFRvDiVFkTc8P62X9rZfrlnk5iYyObNmylZsqTDwrq2X+5d/0vA1q1b07p16xuOA6Bjx440atSI6OhounTpwrRp06hVqxY7duzg4Ycftj/yNCtj88GagEDGw6jj4+NZuHAhbm5uDkOiPDw86N+/P++99x5z5szhtddeu4kzyx3vvPOOs0PIshv5rC0WC6NHj+app55i1KhReHt706NHD+Li4pgyZQrLly/Hw8ODpKQkh/0ee+wxpk2bRlRUFPfffz8vvfQSwcHBrFy5kkcffTTNfcD6mODw8HD7cKomTZpw5swZPv30U9544w1++uknfv311zQTSVsyfyuGKuY3LjMEy8vLy/70gccff9w+tg+sT2jYvn077dq1o3HjxvbyqVOnUrNmTcaMGZOqvW3btjk8xxmsE53Cw8MxxvDBBx+kG8vly5dZtGgRkPnig++++26qORvGGKZPn86UKVOwWCw8+uijGbYhIiK3VlJMDEn//OM6r5tMlk6ePAng8FQjsA5hadOmDa+88opDeYkSJRz2y0kWi4WFCxdSu3ZttmzZQrNmzShcuDAtW7bk1KlTvPzyy0Dm8zJtbL/ZzmhO6OLFi7lw4QIdOnSgTJkyDnW2OyJz586137W4NtbM2Pa5dtsiRYrY37vSxWlOzr+FG/+sn3jiCZ544gkuXrzI0KFDKVasGJUqVeKDDz7gtddes29/7X7ly5dn4cKFBAUFMWfOHKpXr06RIkXo27cvVapUsS86ee0+Z8+epU+fPly9epXvv/+e9u3bU7hwYSpWrMj48eN5/PHHOXjwYLpJn22I/Pnz57PUHwWZy9wBAXjxxRdZtWoVGzZsoFq1arRp04ZDhw6xadMmgoODUy1EExMTw969e9OcY/H000+ze/du6tevT3BwMEeOHGHjxo1YLBamT5+e4a2zxYsXc/HiRZo2bZrp7dl3332XZ555hkaNGlGpUiUSEhLYsWMHBw4cwM3Njffff98haRIRkdzncc1QEFdws/GmdyFtG45y/Urctu2v/23xunXrmDFjRraOXbNmTUaPHu1QFhISwrZt21i0aBEbNmwgPj6e2rVrM3DgQPu8k4yGvlzL9vjajIYF2YZf7d27N807OBaLhYMHD9qfWGljG4qU3gX5tXXXDq/28vKiVq1a7Nq1i+jo6HTnVNyIZ555JttDsEaPHp1qKFxacnr+rW3b7H7WFouF999/n6FDh7JkyRKOHTtGiRIlCA8Pp1atWowbNw5fX18qV67ssN+dd97J33//zZdffsnOnTtxd3enZcuWhIeH88ADD6Q61vLlyzl79ix33HEHZcuWTRV7nz59+OCDD1i7dm2a52ZLfoOCgrLcHwWVSyUgPj4+REZGMmHCBObNm8fixYspWrQoQ4YMYfz48dn6Bz1o0CC++OILfv/9d86fP09wcDB9+/Zl1KhRqYZ3Xe/a4VeZGTlyJCtXrmTXrl3s3r2bq1evUrp0aQYNGsSTTz5J06ZNsxyziIjcGjcznMkV2cbeX//beNsF5bFjxxzKbdtd//jR/fv38/nnn2fr2O3atUuVgIB1+FOfPn3o06ePQ3lW5mVey3a35uzZs2nWnzp1yj7X4MiRIxk+WXLOnDkOCYjtOuPvv/9Odx9b3fXXJN26dWPXrl3MmzeP7t27Z+FMsiYiIiJbE/QBhgwZkqUExDZEb+fOnVy9ejXVk7BuZP4t3Phn3aBBg1TXaGvXriU5OZlWrVrZHyJ0rSJFiqQ50mTjxo24ubnZ14aDf7//6a3BYiu3zeG9nq08p+f55EvOWwNRblReXtkyv9FK6CL5g1ZCdzR//nwDmEaNGjmUv/jiiwYwvr6+Dn31/vvv3/CK5DfjxIkTpnDhwqZYsWLm8uXLWd6vVKlSxt3d3Vy6dClV3bvvvmsA07t373T3P3DggAFMUFCQSUhIsJd/8cUXBjC33XZbqlXMbe68804DmNdee82h/PDhw8bb29tYLBbz888/Zxj/nj17zNmzZzPcJrfcdtttBjCLFi1KVde9e3cDmIiIiJs+zo1+1r179zaA+frrr7O8z7Jlywxgunbt6lD+2WefGcBUqlTJJCUlpdpvxowZBjCdOnVKs92wsDADZPr53gythC4iIiIuqWPHjvj4+BAdHU1kZCRgHXb1+eefc/fddxMfH8/s2bMB64Tt6dOnA2T6yN4btXPnThISEhzKjh49So8ePbhw4QKTJk3K8IlW12vTpg3Jycn89ttvqepsw68yWqSwYsWKtGjRgvPnz9vXFAHr6t9ly5Zlz549vPTSSw6raIN1bZVVq1bh7+/Pgw8+6FBXvnx53n33XYwxdO/enTlz5qSaYxIfH8+7775Ls2bN7MN5nG3EiBEAPPvss/YJ/mBd1fzbb7+latWqqb4XixYtombNmtx///2p2ruRz/rUqVMOj9gFSEpKYty4cURERNC+fftUd1PAuhjh9X28YcMGHnjgAXx8fOyrvNt07twZb29vDhw4wEsvvURKSoq9bu/evYwdOxb4dwHG6/366694eXnRvHnzNOvlGk5OgOQG5OWMNr/RHRCR/EF3QFIbP368/W5HWFiYqVGjhrFYLGb9+vWmVatWxsvLy4SFhZnq1asbwNSoUSNbv5nOjsGDB5uAgAATGhpq+vfvb+644w7j7e1tAPPSSy9lu71Zs2aleRdi9+7dBjABAQGZfhdsd3169OjhUL5+/XoTFBRkAFOhQgXTu3dv07dvX1OjRg0DGG9vb7Nw4cJ02502bZr93EqWLGnuvvtuM2DAANOhQwfj5+dnAFOmTBlz+vTpbJ/3rZCcnGx69eplAFOkSBHTu3dvExoaaiwWi/H19TVRUVGp9pk5c6YBTLt27VLV3chnHRkZaSwWi2nUqJEJDw83YWFhpnTp0gYwDRs2NGfOnElzv5CQEFOuXDnTuXNn079/f9OkSRN73MuWLUtznw8++MBYLBYDmMqVK5vw8HATGhpqj7Fr167m6tWrqfbbv3+/AUznzp0z6M2bl1/ugCgBcUF5+QuV3ygBEckflICk7b333jM1atQw3t7eplq1amb27NnGGGMOHTpkunXrZgICAkyRIkXMgAEDzLFjx25ZHIsWLTKdOnUypUqVMp6enqZEiRKmR48eJjIy8obau3z5sgkMDDS1atVyKB8zZowBzODBgzNt4+TJk8bd3d14enqamJgYh7rDhw+bp556ytSsWdP4+voab29vU7lyZfPggw+a3bt3Z9r2oUOHzKhRo0z9+vVNYGCg8fDwMCVKlDAdO3Y0//vf/8zFixezdb63WlJSkpk0aZKpXbu28fHxMcWKFTO9e/c2u3btSnP7jBKQG/msDx8+bIYMGWKqVatm/Pz8jL+/v2ncuLGZNGmSSUxMTHe/CRMmmGbNmpmiRYsaLy8vExISYoYNG2b++uuvDM83MjLS9OzZ05QqVcp4eHiYgIAA07x5czNt2rQ0h2YZY8yrr75qALNgwYIM275Z+SUBsRhz3b0pyfPi4uIIDAwkNjZWq6LfYu88tRjfxAA8r5yjzYYXOesXRKuB5+HCcShcBkbucXaIIpIFCQkJHDhwgEqVKuHj4+PscCQX/Pe//+Xdd99ly5Ytetqk3FLGGG677TYuXrzIwYMH05wMn1Oy87MsL18vag6IiIiI5DtjxozB39+fCRMmODsUyecWL17M3r17efXVV29p8pGfKAERERGRfKdEiRKMGjWKhQsXsmPHDmeHI/mUMYZXX32VOnXqMGTIEGeH4zKUgIiIiEi+NHbsWFJSUqhbt66zQ5F8ymKx8Ntvv7Fjx45UC3VK+tRTIiIiIiKSa5SAiIiIiIhIrlECIiIiIiIiuUYJiIiIiIiI5BolICIiIiIikmuUgIiIiIiISK5RAiIiIiIiIrlGCYiIiIiIiOQaJSAiIiIiIpJrlICIiIiIiEiuUQIiIiIiTrV161befPNNwsLCKFeuHBaLBYvFkqV9Z82axe23346/vz9Fixala9eubNiw4YZjmT17NhaLheXLl6e7TWJiIkWKFMFisdChQ4cM2xsyZAgWi4WXX3453W0OHjyY6TmfOXOGV199lRYtWhAcHIynpyfFixenXbt2TJw4kdOnT2d6brktJz+bo0eP8sgjj1ChQgW8vb0pU6YMQ4YM4cCBA+nuk5yczAcffEDjxo0pVKgQgYGBtG3bloULF2Z4rKioKHr06EHx4sXx8fGhevXqvPDCC1y6dCndfY4fP87w4cOpWrUq3t7e+Pn5Ua9ePcaNG8eFCxdSbd+zZ09KlizJxYsXs94J+YkRlxMbG2sAExsb6+xQ8r23n1xkpj78k5n+QITZXaOmWdewuTHv1DRmXID1TxFxCfHx8Wb37t0mPj7e2aFIGnr06GGAVK/MPPXUUwYwvr6+pkePHqZTp07Gw8PDuLu7m0WLFmU7jvj4eFO+fHnTtGnTDLeLiIiwx+jm5maOHDmS7raDBw82gBk3bly62xw4cCDDc160aJEJCAgwgAkKCjKdOnUy/fv3Nx07drSXBwQEmJ07d2bpPHNDTn42O3bsMMWLFzeAqVixogkLCzP169e3n/e2bdtS7ZOUlGTuvvtuAxh/f3/TsWNHc+eddxo/P78MP48vvvjCuLu7G8A0atTI9OrVy1SoUMEApl69emlee+3bt88EBwc7xNe1a1cTFBRkAFOrVi1z/vx5h322bt1qAPPSSy9lqy+y87MsL18vKgFxQXn5C5XfKAERyR+UgORtb775pnnppZfMt99+a06cOGG8vb0zTUB+/PFHA5hixYqZffv22cs3bNhgvLy8TFBQkDl37ly24pg8ebIBzMKFCzPczpYwlS5d2gDmzTffTHfbm01AvvvuO+Pm5mY8PDzMpEmTzJUrVxzqExMTzaeffmpKlixpIiMjM4w7t+TkZ5OSkmLq1q1rADN06FBz9epVe937779vv8BPSkpy2O+dd96xJwT79++3l+/Zs8eUKVPGAGbDhg0O+xw5csT4+PgYwHz66af28sTERNO/f38DmGHDhqWKsVevXgYwjz32mEMc58+fN82bNzeAGTt2bKr9OnXqZPz8/ExMTEyW+sIYJSDiRHn5C5XfKAERyR+UgLiWrCQgXbp0MYCZMmVKqronn3zSAOadd97J1nGrVatmihYtmuoi/1pnzpwxnp6extfX1yxbtswApnbt2ulufzMJyMWLF+2/WZ81a1aGsR89etQcOHAgw21yS05+Nr/88osBTNGiRc2FCxdS1bds2dIAZvHixQ7lVapUMYCZO3duqn0+/vhjA5iePXs6lI8fP94A5q677kq1z5kzZ0zhwoWNh4dHqoShWLFiBjAnTpxItd/ChQsNYLp06ZKqbs6cOQYwkyZNSvvk05BfEhDNARERESmAVq5cicVioVWrVhluN3fuXCwWCwMHDsylyDIXHx/Pzz//DEDv3r1T1dvKli5dmuU216xZw59//kl4eDienp7pbvfVV19x9epVunfvTteuXalYsSK7du3it99+y+ZZZG727NmcPn2aZs2aMXjw4Ay3LVu2LBUrVszxGLIrpz+brVu3AtC4cWP8/f1T1bdv3x6AJUuW2MtiY2P566+/AAgNDU13nxUrVpCYmJjqWGntU7RoUerVq0dSUlKq+UHe3t6ZnkexYsVSlfXs2RNfX18++eSTTPfPb5SAiIiIFEAffvghAA899FCG24WFhREQEEBERESemei8d+9eEhMTCQ4Oply5cqnqGzVqBMD27duz3OayZcuAtC8+rzVnzhwABg0ahMViYcCAAQB88cUXWT5WVtkudG3HcAU5/dnYJn4XKVIkzXrbhf3vv/+eap/09rPtEx8fz759+27qWAAdO3YEYPz48SQnJ9vLY2NjmThxIgBDhw5N1Z6/vz9NmjThjz/+4O+//07zmPmVEhAREZECJi4uju+//x53d3d69OiR4ba+vr507NiRK1eupHp60KxZs+xPb8rqK7ML/Kw4fPgwQJoXuACFChUiKCiIc+fOpfkEorT88ssvADRt2jTdbfbv38/GjRspXrw4nTt3BqyJCMC8efMcLj5zwrZt24B/L9pzSmhoaLY/t1mzZmWp7Zz+bIKDgwE4dOhQmvW2p2BdW1+0aFHc3d3T3e/aJ2ddW38jxwKYMGECdevW5cMPP6Rq1ar07t2bu+++m4oVK3Lw4EG++OIL+12X691+++2A9Q5cQeLh7ABEREQkd0VGRnLlyhWaNGlC0aJFM92+ffv2RERE8MMPP/Dwww/by6tWrZrp0KDr1axZM9vxXs/26FI/P790tylUqBDnz5/nwoULFC5cONM2t2/fjpubG1WrVk13G9tdjr59++LhYb2Euu2222jUqBHR0dGsWrWKTp06ZedUMnTmzBng3wvjnNK5c+dsD9fKqF+uldOfTdu2bQHYvHkzu3fvplatWva6y5cv8/XXXwM4JDM+Pj40bdqUqKgoZs2axZtvvunQ5meffWb/+7X7tW3blnnz5jF//nxeffVVvLy87HVbtmxhx44dqfYBKFWqFKtXr6Z///6sXLmSgwcP2uvCwsJo3Lhxuudn+/dgSzYLCiUgIiIi09vBxVPOjiLr/EvAwzf+G9Po6GgA6tev71CemJjI5s2bKVmyJNWqVbOX16tXz2E/m9atW9O6desbjiOvuHjxIvHx8RQtWjTDtTjmzp0LwH333edQft999xEdHc2cOXNyNAG5VUaPHu3sELKsRo0a9OrVi0WLFtG9e3c+/vhjmjZtyt9//83TTz9tT9Lc3BwH9YwePZqePXsyadIkihcvzqBBg0hJSWHmzJl89NFHeHh4kJSU5LDfwIEDee211zh8+DDdu3fnnXfeISQkhI0bN/Kf//wnzX3Amrx269YNd3d3lixZQtu2bbl06RIRERGMGTOG1atXs2HDBmrUqJHq/Gy/AMgrwxtzixIQERGRi6fgwnFnR5FrTp48CUDJkiUdyg8fPkybNm0YOHCgw5yGEiVKOOznbLbJyJcvX053G9t4/qzc/YiNjc10240bN7J//36qVatGs2bNHOr69+/PM888w+LFi7l06RKFChWy12VlQUVjTJrlxYoV49ixY5w+fTrNi9e8KKc/G4BPP/2UM2fOsHbtWu644w57eeHChZk4cSIjRoxINW+jR48evPXWWzz//POMGjWKUaNG2euGDRvGb7/9xubNmx328/f3Z9myZdx9992sWLGCFStW2OuqVq3KyJEjeeuttxz2uXr1Kr179+b48eNs3rzZPlwuKCiIp556iuTkZEaOHMnYsWP56quvUp1bQEAAAOfPn89SX+QXSkBERET8Szg7guy5yXjTuyi2DS25fnVm2/bX/+Z33bp1zJgxI1vHrlmz5k3/Br5ChQqAdXXstFy6dInz589TpEiRLF3kBgYGAqmH1lzLNvn8/Pnzad718fT05NKlSyxcuNDhDoltKFJGF+S2umsTF4AGDRpw7NgxoqOjc/RO05tvvskff/yRrX0eeuihLMWQ058NWCeFr169mu+//57Vq1cTGxtLlSpVGDhwIHv27AGgdu3aqfZ79tln6dWrFxERERw8eJDAwEC6detGu3bt7HNUrt+vfv367N27l6+//pro6GiSk5Np1KgR/fr1Y8KECan2iYqK4s8//6RKlSppztXp06cPI0eOZO3atWmemy35DQoKylJf5BdKQERERG5iOJMrKl68OJB62IftovHYsWMO5bbtrn+U6P79+/n888+zdex27drddAJSo0YNvL29OX36NMeOHaNs2bIO9bahYrahY5nx9/fH19eX8+fPk5KSkirRunr1qn2uwenTpzMcLjNnzhyHBMR2oZvRU45sdddP3O7WrRvLly9n/vz5PPnkk1k6l6z44Ycfsj3pOTQ0NEsJSE5/NjYWi4WuXbvStWtXh/JPP/3UHl9aqlWrxpgxYxzKDh8+zLFjx6hatWqq+MCaNA4ZMoQhQ4Y4lG/YsCHVsWz/ZmxJ7PVs5efOnUuz3lae0/N88jo9BUtERKSAqVOnDvDvugc2mzdvBmDXrl0kJCTYy23bXf/b4iFDhmCsixpn+bV69eqbjt/X15cOHToA8M0336Sqj4iIAOCee+7Jcpv169cnJSWF/fv3p6r77rvvOHPmDE2aNEn3vGxDr3766SdOnDhh39c2iToyMpL4+Pg0j/3tt98C0KZNG4fy+++/n+DgYKKiojJN9I4fP+4w+Tkjq1evzvbndv3FeHpuxWeTnsuXL/Ppp5/i5eWVrYchfPDBB4B1KFZWbd++nTVr1lC7dm2HtXNKlSoFWB8/nNYdNNu/qfQm/dvu4DRo0CDLseQHSkBEREQKmI4dO+Lj40N0dDSRkZGAddjV559/zt133018fDyzZ88GrGslTJ8+HSDTR/bmphEjRgDw2muv8eeff9rLN27cyPTp0wkKCuLBBx/Mcnu2i3/bBeO1bMOv+vfvn+7+fn5+dO/enZSUFObNm2cvb9WqFU2aNOHs2bM89thjDgvfgXUBvVmzZuHu7s7w4cMd6goVKsSsWbNwc3PjoYceYsqUKVy9etVhm6SkJGbPnk3jxo2znIDcajfy2fz666/UrFnTYY6Hzb59+4iLi3MoO3v2LH379uXw4cM8//zzqe4eXbp0yX5xf63p06czZcoUatSokeZdpW3btpGUlORQtmfPHsLDwzHG2JMXmxYtWlCiRAkuXbrE8OHDHT7f48eP89///hdIe1FG23mD9c5ggXLrF1uXnBYbG2sAExsb6+xQ8r23n1xkpj78k5n+QITZXaOmWdewuTHv1DRmXID1TxFxCfHx8Wb37t0mPj7e2aHkGePHjzeA8fX1NWFhYaZGjRrGYrGY9evXm1atWhkvLy8TFhZmqlevbgBTo0YNc/ny5VsSy7Jly0yzZs3sL4vFYgCHsmXLlqXa76mnnjKA8fPzMz169DBdunQxHh4ext3d3SxatChbMaxevdoA5qGHHnIoP3funPH29jZubm7m6NGjGbbx7bffGsDUr1/foXzv3r2mXLlyBjAlSpQwPXv2NP379zcNGjQwgHFzczNTp05Nt92FCxeawoULG8AEBQWZzp07mwEDBphOnTqZoKAge/muXbuydc63UnY/m8jISAOYkJCQVHXjxo0zPj4+pk2bNqZfv36mS5cuxt/f3wBmyJAhJjk5OdU+Bw4cMICpXbu26dmzp+nTp4+pXLmyAUzFihXN33//nWbc7dq1M8HBwebOO+80/fv3N61btzbu7u7Gw8PDfPzxx2nus2jRIuPh4WEAU7ZsWdOjRw/TsWNH+2fWqFEjc+HChVT7Xbhwwfj4+JiaNbN+PZGdn2V5+XpRCYgLystfqPxGCYhI/qAEJG3vvfeeqVGjhvH29jbVqlUzs2fPNsYYc+jQIdOtWzcTEBBgihQpYgYMGGCOHTt2y+KYOXOmATJ8zZw5M919GzdubPz8/OwX5+vXr7+hOKpXr26KFCliEhMT7WXTp083gGnXrl2m+ycmJpoiRYoYwGzfvt2hLiYmxrzwwgumXr16plChQsbLy8uUL1/e9OvXz0RFRWXa9unTp83LL79smjVrZooWLWo8PDxMsWLFTNu2bc3bb79tzpw5k+3zvdWy89lklICsWbPG9OjRw5QrV854eXmZokWLmo4dO5qFCxeme+zY2FjzyCOPmFq1apnChQsbPz8/U7t2bTNu3Lg0kwGbTz75xJ6EeHp6mjJlypgBAwaY3377LcNzjY6ONgMGDDDlypUznp6eplChQqZBgwbmjTfeSDdxnz17tgHMpEmTMmz7WvklAbEYk86z3yTPiouLIzAwkNjYWPvj2+TWeOepxfgmBuB55RxtNrzIWb8gWg08b31cZ+EyMDL17V0RyXsSEhI4cOAAlSpVwsfHx9nhSB713nvv8fTTTxMREUF4eLizw5F8rlOnTqxbt47Dhw+nesBDerLzsywvXy9qDoiIiIgI8PDDD1OhQoVUK2eL5LTo6GhWrlzJyJEjs5x85CdKQEREREQAHx8fxo8fz5YtW1i2bJmzw5F87NVXX6VEiRI8++yzzg7FKbQOiIiIiMj/u//++7n//vudHYbkc4sXL3Z2CE6lOyAiIiIiIpJrlICIiIiIiEiuUQIiIiIiIiK5RgmIiIiIiIjkGiUgIiIiIiKSa5SAiIhIgaG1d0XEleWXn2FKQEREJN9zd3cH4OrVq06ORETkxtl+htl+prkqJSAiIpLveXp64u3tTWxsbL75DaKIFCzGGGJjY/H29sbT09PZ4dwULUQoIiIFQvHixTl27BhHjx4lMDAQT09PLBaLs8MSEcmQMYarV68SGxvLxYsXKVu2rLNDumlKQEREpEAICAgAICYmhmPHjjk5GhGR7PH29qZs2bL2n2WuTAmIiIgUGAEBAQQEBHD16lWSk5OdHY6ISJa4u7u7/LCra7lcAhIfH8+ECRP48ssvOXz4MEWLFqVz586MHz8+27ekoqKimDBhAuvXr+fixYtUqFCBPn368Pzzz1OoUKFU22flVn379u35+eefU5WvX7+e119/naioKK5cuUKtWrUYPnw4999/f7ZiFhGRm+fp6Zmv/jMXEXElLpWAJCQk0KFDB6KioihdujQ9evTg4MGDzJw5k2XLlhEVFUXlypWz1NbcuXMZPHgwycnJNGrUiJCQELZu3cobb7zBsmXL+OWXX1Ld4ho8eHC67S1fvpyYmBjatGmTqm7BggX07duXlJQU2rZtS/Hixfnpp58YPHgw27dv55133sleR4iIiIiIuCiXSkBee+01oqKiaNGiBStXrsTf3x+AyZMnM3LkSIYOHcrq1aszbefo0aM89NBDJCcn8+mnnzJ06FAArly5wpAhQ5g/fz6jRo1i+vTpDvvNmjUrzfbOnz/Pl19+CcCgQYMc6s6ePcvQoUNJTk5mwYIFhIWFAfDPP//QunVrJk2axN13301oaGg2ekJERERExDW5zGN4r1y5wtSpUwGYNm2aPfkAGDFiBPXq1WPNmjVs3bo107ZmzZpFQkICd911lz35APDy8mLq1KkULlyYzz77jDNnzmQptm+++YbExESaN29OtWrVHOpmzJhBXFwcPXr0sCcfACVLlmTixIkATJo0KUvHERERERFxdS6TgKxfv57Y2FiqVKlCw4YNU9X37t0bgKVLl2bali1JSeuuQ9GiRalXrx5JSUksX748S7F98cUXANx3332p6mxt2OK7Vrdu3fDx8WHVqlUkJCRk6VgiIiIiIq7MZRKQ33//HYBGjRqlWW8r3759e6ZtXbp0CYAiRYqkWV+sWDGHY2bk8OHD/PLLL3h6etK3b99sxe3l5UWdOnVISEhg3759mR5LRERERMTVuUwCcvjwYQDKlSuXZr2t/NChQ5m2FRwcnOG2Bw4cyHJbc+fOxRhDly5d7ImLTVxcHLGxsTkWt4iIiIiIq3OZSegXL14EwM/PL81622NzL1y4kGlbbdu2Zd68ecyfP59XX30VLy8ve92WLVvYsWNHltvKaPiVLeabjTsxMZHExET7e1tSExcXl2l8cnMSEi/DFXeSrlzmYnIyl5KTiEtIhkQDnsmgz0BERETyINt1ojHGyZGk5jIJSE4aOHAgr732GocPH6Z79+688847hISEsHHjRv7zn//g4eFBUlISbm4Z3yCKjo5m9+7dBAUFcc8999yyeCdMmMArr7ySqrx8+fK37JiSAfsovwvwYqAzIxERERHJ0JkzZwgMzFvXKy6TgNieenX58uU0623zOgoXLpyltpYtW8bdd9/NihUrWLFihb2uatWqjBw5krfeeivdOSI2trsfffr0wdvbO92YbXFfv65IVuMeM2YMI0aMsL8/f/48ISEhHD58OM99ofKruLg4ypcvz5EjR9L8HCXnqc9zn/o896nPnUP9nvvU57kvNjaWChUqULRoUWeHkorLJCAVKlQArGt4pMVWHhISkqX26tevz969e/n666+Jjo62L0jYr18/JkyYAEDt2rXT3T85OTndtT9sAgICCAwMJDY2lqNHj1KrVq0bitvb2zvNBCcwMFD/iHNZQECA+jyXqc9zn/o896nPnUP9nvvU57kvsxE9zuAyCUj9+vUB67CntNjK69Wrl+U2/fz8GDJkCEOGDHEo37BhA5D2Y3ptfvrpJ06cOEFISEiaq59fG/fatWuJjo5OlYBcvXqVnTt34uPjQ/Xq1bMct4iIiIiIq8p7KVE6WrVqRWBgIH/99Rfbtm1LVR8REQFw03Mxtm/fzpo1a6hduzatWrVKdzvb8KtBgwZhsVjS3a5bt24O8V1r2bJlJCQkcOedd+Lj43NTcYuIiIiIuAKXSUC8vLwYPnw4AI8//rh97gTA5MmT2b59O+3ataNx48b28qlTp1KzZk3GjBmTqr1t27aRlJTkULZnzx7Cw8MxxvDBBx+kG8vly5dZtGgRkPbTr6710EMPERAQwJIlS1i4cKG9/NSpUzz77LMAjBw5MsM2ruft7c24cePSHJYlt4b6PPepz3Of+jz3qc+dQ/2e+9TnuS8v97nF5MVnc6UjISGB0NBQNm3aROnSpWnTpg2HDh1i06ZNBAcHExUVReXKle3bv/zyy7zyyisMHjyYWbNmObQVGhrK7t27qV+/PsHBwRw5coSNGzdisVj48MMP+c9//pNuHPPmzWPgwIE0bdqUX3/9NdO4FyxYwL333osxhtDQUIoVK8aqVas4f/48I0aMYNKkSTfcJyIiIiIirsRl7oAA+Pj4EBkZyUsvvYSfnx+LFy/m0KFDDBkyhOjoaIfkIzODBg2iVq1a/P7770RERPD333/Tt29fNm/enGHyAY7Dr7IiPDyctWvX0qlTJ3777Te+++47qlatyqxZs5R8iIiIiEiB4lJ3QERERERExLW51B0QERERERFxbUpA8oj169fTtWtXihYtir+/P7fffjuzZ8++4faWLl1Ku3bt7M/bDg0NZfny5Wlum5yczNdff80zzzxD27ZtKVSoEBaLJdXjiV1NfHw8Y8eOpXr16vj4+FCmTBmGDh3KsWPHst3WuXPneOqppwgJCcHb25uQkBCefvppzp8/n+4+ycnJTJkyhbp16+Lr60twcDD33nsve/bsuYmzyvuc2e979+5lypQp9O/fnypVqmCxWLBYLBw8ePDmTiqPc1afX716lZUrVzJ8+HDq1KmDn58fvr6+3HbbbTzzzDOcPn06B84ub3Lm93zWrFn069eP2267jaJFi+Ll5UWZMmXo3bs369evv8kzy7uc/TP9WleuXKFWrVpYLBY8PFxmRYNsc2afDxkyxP4zPK3XRx99dJNnlzflhe/5xYsXeeWVV6hXrx7+/v4EBgZSp04dHn/8cS5evHiDZ3YdI04XERFh3N3djcViMe3atTPh4eEmKCjIAGbkyJHZbm/KlCkGMB4eHqZz586mR48extfX1wDmgw8+SLX9uXPnDJDqNXjw4Bw4O+eIj483zZs3N4ApXbq0uffee83tt99uABMcHGz++uuvLLd1+vRpU7VqVQOYypUrm3vvvdfUrl3bAKZ69ermzJkzqfZJTk42vXr1MoAJCgoy4eHhpl27dsZisRg/Pz+zadOmnDzdPMPZ/f7UU0+l+V0+cOBADp5l3uLMPv/xxx/tfVyxYkUTFhZm7rnnHlO8eHEDmFKlSpk//vgjp0/Z6Zz9PW/cuLHx8PAwDRs2NPfcc4/p06ePqVevngGMxWIx//vf/3LydPMEZ/f59caNG2csFosBjLu7+82cWp7l7D4fPHiwAUynTp3M4MGDU71+/vnnnDzdPMHZfW6MMX///bepVKmSfb/evXube+65x1SvXt0A5siRIzlyrkpAnOzMmTMmICDAAGbBggX28pMnT9q/OJGRkVlu748//jDu7u7G29vbbNiwwV6+d+9eU6xYMePh4WH+/PNPh30uXrxo7rvvPvPee++ZDRs2mJkzZ7p8AvLCCy8YwLRo0cJcuHDBXj5p0iQDmHbt2mW5rYEDBxrAhIWFmatXr9rLn3jiiXT76ZNPPjGAqVatmjl58qS9PCIiwgCmatWqDm3lF87u9xkzZpjnnnvOREREmIMHD5oaNWrk+wTEmX3+008/mXvvvTdVQn3+/HnTqVMne1z5jbO/51FRUSYuLi5V+ZIlS4y7u7vx8fExp0+fztY55XXO7vNr7d6923h5eZlhw4bl6wTE2X1uS0Cycw3k6pzd5wkJCaZGjRrG3d3dfPTRR6nqd+zYYS5dupStc0qPEhAne+uttwxgevTokapu4cKFBjB33313ltt79NFHDWCeeuqpVHWTJ082gBk+fHiGbcyfP9+lE5DExEQTGBhoABMdHZ2q3vabwi1btmTa1vHjx42bm5vx8vJySCSMsf5DDQ4ONu7u7uaff/5xqLvtttsMYBYtWpSqze7duxvAREREZO/E8ri80O/Xy+8JSF7sc5tjx47Z744cPHgwayfkAvJynxtjzB133GEAs2TJkizvk9flpT5PSUkxrVu3NiVKlDBnz57NtwlIXujzgpaA5IU+t12Tjho16uZOJgs0B8TJbPMyevfunaquW7du+Pj4sGrVKhISEm66PVvZ0qVLbzRcl7B+/XpiY2OpUqUKDRs2TFWfnX744YcfSElJoU2bNpQsWdKhztvbm3vuuYfk5GS+++47e/mBAwfYs2cPvr6+dOvW7aaO70qc3e8FUV7u8zJlyhAcHAzA8ePHs7SPK8jLfQ7g6ekJWBfvzS/yUp9Pnz6ddevWMWnSJIoUKXIDZ+Ma8lKfFxR5oc8/+eQTAJ544okbPY0sUwLiZL///jsAjRo1SlXn5eVFnTp1SEhIYN++fZm2df78eQ4fPgyQ5pe3fPnyFC9enEOHDhEXF3eTkeddGfXpteXbt2+/JW3Z9qlTp479YuBGj+9KnN3vBVFe7vPz589z7tw5AEqVKpWlfVxBXu7zn376iZ9//pkiRYrQvHnzLO3jCvJKn584cYLRo0dzxx13ZHkdMFeVV/ocYOHChTzxxBM89thjvP322/zxxx+ZHtMVObvPjxw5wv79+ylXrhzly5dn/fr1PPfcczzyyCO89dZb7N+/P+snkwX599ENLiAuLo7Y2FgAypUrl+Y25cqVY8uWLRw6dIh69epl2J4t+ShSpAiFChVKt72YmBgOHTpE3bp1byL6vMvWDxn1KcChQ4duSVs5eXxX4ux+L4jycp9PmzaNpKQk6tatS6VKlbK0jyvIS30+c+ZM1qxZQ0JCAn/99RdbtmwhMDCQ+fPnExQUlOnxXUVe6fPhw4eTkJDAhx9+mHnQLi6v9DnABx984PD+ueee49FHH+W9997LV08gc3af7969G7DevX788cdTfc9ffPFF3nzzTUaOHJnp8bNCd0Cc6NpHmfn5+aW5jS2RuHDhQpbbS6+t7LbnqjLrh5zs07TaysnjuxJn93tBlFf7/LfffuO1114D4K233sp0e1eSl/p8/fr1fP7553z11Vds2bKFokWL8tlnn9GpU6dMj+1K8kKfL1myhIULFzJ69GiqV6+etcBdWF7o84YNG/LRRx+xb98+Ll++zN9//820adMICgriww8/ZNSoUVk7GRfh7D633bGOjo7mo48+4uWXX+bIkSOcOHHC/nP8mWeeSXdJh+zKP6mjk/Tq1Svb6zrMnj2b22+//RZFJCLiPP/88w9hYWEkJCTw9NNP06VLF2eHlG/NmDGDGTNmcPHiRfbu3cvEiRMJDw/nP//5Dx9//LGzw8s3Lly4wPDhw6levTpjxoxxdjgFxlNPPeXwvlKlSjz22GO0a9eORo0aMXXqVEaMGEH58uWdFGH+kpKSAkBSUhKPPvoo48aNs9c9++yzxMTE8Pbbb/PGG2+kOb81u5SA3KQDBw6wd+/ebO1z+fJlAPz9/R3KAgICUm176dIlAAoXLpxpu7b2bO2nJTvtuarM+iEn+zSttnLy+K7E2f1eEOW1Pr9w4QJdu3bl4MGD9OnTh0mTJmV6XFeT1/rc1k7jxo356quvSEhI4JNPPqFTp06Eh4dnGoMrcHafP//88xw9epRVq1bh7e2d9cBdmLP7PCO1a9eme/fuRERE8NNPP7n8osk2zu7za69JH3jggVT7PPDAA7z99tts2rSJhIQEfHx8Mo0jIxqCdZO2bduGsT7OOMuv0NBQAAICAggMDATg6NGjabZvKw8JCck0lgoVKgDW22i2L9fNtOeqbP2Qk32anbZy8viuxNn9XhDlpT5PSEige/fuREdH07FjR7744gvc3PLffzF5qc/TYpscvWTJkizvk9c5u8+XLl2Kj48P48ePJzQ01OEFkJycbH+/bdu2LJ1TXufsPs9MtWrVAOuDAfILZ/f5tX+vWLFiqn1sZcnJyZw9ezbTGDKjOyBOVr9+fdauXUt0dDS1atVyqLt69So7d+7Ex8cnS2NOg4KCqFChAocPH+a3336jdevWDvVHjhwhJiaGkJCQNO+25Bf169cHrOMY02Irz2xS/422Zdtn586dXL16NdWTsLJzfFfi7H4viPJKnyclJdG3b19Wr15Ny5YtWbhwYb56DOy18kqfp6d48eIAnD59Osv75HV5oc8TEhJYs2ZNuu3a6s6fP59pDK4gL/R5RmzzFdJ74I4rcnaf16xZEx8fHxISEjh37pz9Meo21yYd194tuWG3fKURyZAWIsx51y7m89tvv6Wqv9HFfK5fsEcLETrKC/1+vYK0EKGz+jwlJcUMGjTIAKZBgwbm3LlzN3NKeV5e6POMjBs3zgDm8ccfz/I+eV1e7nMKwEKEea3PExISTPny5Q1gfvnllyzt4wryQp/36NHDAGb69Omp2pw7d64BTOXKlbN3YulQAuJkZ86cMQEBAQYwCxYssJf/888/pmrVqumuAlqjRg1To0YNc/ToUYfyP/74w7i7uxtvb2+zceNGe/m+fftMsWLFjIeHh/nzzz8zjMnVExBjjHnhhRcMYFq2bGkuXrxoL580aZIBTLt27Ry2/+CDD0yNGjXM6NGjU7U1cOBAA5jw8HBz9epVe/mTTz6Zbj998sknBjDVqlVz+Ae+YMECA5iqVas6tJVfOLvfr5ffExBjnN/ntrqaNWuaU6dO5dh55WXO7PPdu3ebr776yiQmJjqUp6SkmPnz5xtfX19jsVjMr7/+evMnmoc4+3uenvyagBjj3D7fs2ePmT17tklISHAoP3XqlOnZs6cBTP369U1KSsrNn2ge4uzv+fr16w1gypUrZ/bu3Wsv//vvv03lypUNYCZOnHjzJ2qUgOQJERERxs3NzVgsFtO+fXvTu3dvExQUZAAzYsSINPcB0r2wst3p8PDwMF26dDE9evQwvr6+BjDvv/9+mu09+uijplmzZqZZs2b2xKd48eL2smbNmuXkKd9y8fHxplmzZgYwpUuXNvfee6/9fXBwsPnrr78ctrf91jCtf5CnT582VapUMYCpUqWK6du3r6lTp449wThz5kyqfZKTk02vXr0MYIoUKWJ69+5tQkNDjcViMb6+viYqKupWnbpTObvft27d6vCd9fHxsf9m3lb2ySef3KrTdwpn9vnixYvtP4vuuusuM3jw4DRfe/bsuZVdkOuc2eeRkZEGMIGBgaZDhw5mwIABpmvXrqZixYoGMG5ubmbKlCm38Oydw9k/W9KTnxOQvPA9L1KkiLnrrrvMgAEDTGhoqClcuHCaF8j5RV74no8dO9YAxs/Pz9x1112mc+fO9n7v0qWLSUpKypFzVQKSR6xbt8507tzZBAUFGT8/P9OkSRMza9asdLfPKAExxphvv/3WtGnTxvj7+xt/f3/Tpk0bs3Tp0nTba9eunb3N9F6u5vLly+all14yVapUMV5eXqZUqVJmyJAh5siRI6m2zegfsTHWO1VPPPGEKV++vPHy8jLly5c3Tz75ZIbDTZKSksykSZNM7dq1jY+PjylWrJjp3bu32bVrVw6dYd7kzH63/aeV0WvcuHE5d7J5hLP6fObMmZn2d3p3cV2ds/r81KlT5tVXXzUdOnQw5cqVM97e3sbX19dUq1bNDB061GzdujWHzzTvcPbP9LTk5wTEGOf1+bFjx8zTTz9tmjdvbkqVKmU8PT2Nv7+/adSokRk3bpw5e/ZsDp9p3pEXvucLFiwwbdq0MYULFza+vr6mQYMGZsqUKTk6csNijDGIiIiIiIjkgvz3jEQREREREcmzlICIiIiIiEiuUQIiIiIiIiK5RgmIiIiIiIjkGiUgIiIiIiKSa5SAiIiIiIhIrlECIiIiIiIiuUYJiIiIiIiI5BolICIiOchisWT4Cg0NvaF2Dx48eFP73woVK1ZMdX4BAQE0bdqUd955hytXruRaLC+//DIWi4VZs2blyn63WmhoaKq+LVSoELVq1WLkyJGcPn3a2SGKiNwwD2cHICKSHw0ePDjN8po1a+ZyJLdeeHg4/v7+GGM4ePAgGzduZMuWLSxdupQff/wRLy8vp8UWGhrKmjVrOHDgABUrVnRaHDeqU6dOlCpVCoATJ04QFRXF5MmT+eqrr9i0aRNly5a9qfZXr15N+/btGTx4cJ5LwkQk/1ICIiJyCxSki7l33nnH4eJ+27ZthIaGsnbtWj7++GOGDx9+y2MYPnw4/fr1o3Tp0rmyX24ZPXq0w12vEydOcMcdd7Bnzx7GjRvHjBkznBeciMgN0hAsERHJUQ0aNGDEiBEALF68OFeOWbx4cWrWrElgYGCu7OcspUuXZty4cQCsWLHCydGIiNwYJSAiIk7wyy+/MHz4cOrVq0eRIkXw9fWlZs2ajB49mvPnz2erre+++4677rqLsmXL4u3tTZkyZWjdujWvvPJKmtv/8MMPdOvWjeDgYLy9valcuTIjRozgzJkzOXBmVg0bNgTgyJEjacZapEgRfHx8qFGjRrrnbIxh7ty5tG7dmpIlS+Lj40P58uW58847mTZtmsO218/lsM2ZWbNmDQCVKlVymE+R3n4A9erVw2Kx8Mcff6R5bmfOnMHLy4uSJUuSlJTkULdp0yb69OlD6dKl8fLyoly5cjz00EMcPnw4S/2WFbVr1wbg1KlTqeqy870aMmQI7du3B+Dzzz936J+XX37ZYdsjR44wfPhwqlSpgo+PD0WLFuXuu+9mw4YNOXZeIlJwKAEREXGCUaNG8emnn+Lr68sdd9zBHXfcQVxcHG+99RatW7fm4sWLWWpn2rRpdOvWjcjISKpWrUp4eDh16tTh0KFDqS4iwTqkp0uXLqxatYoaNWrQvXt3PDw8mDJlCs2aNeOff/7JkfO7cOECAN7e3vayCRMm0K1bN1avXk3jxo3p2bMnly9f5q233krz2M8++yyDBg1iy5Yt1K9fn7CwMKpVq8b27dt5++23Mzy+v78/gwcPpmTJkoB1nsrgwYPtr4wMHDgQgLlz56ZZ/80333D16lX69u2Lh8e/I5k//PBDWrZsycKFCwkJCaFnz54UK1aMTz/9lCZNmrBnz54Mj5tVtr4tUaJEqrrsfK9at25Np06dAKhSpYpD/zRo0MC+3caNG6lfvz7Tpk3D09OTbt26UadOHVasWEHbtm356quvcuS8RKQAMSIikmMAk5Ufrd999505f/68Q1lCQoIZNmyYAcwrr7ziUHfgwAEDmHbt2jmUV6hQwVgsFrN582aH8pSUFBMZGelQ9vXXXxvA1KlTx/z5558O244dO9YApm/fvlk4S6uQkBADmAMHDqSq69evnwHMwIEDjTHG/Prrr8bNzc34+/ubqKgoh3Pu06ePAUx4eLi9PD4+3nh7e5vChQubv//+26Htq1evmrVr1zqUjRs3zgBm5syZDuXt2rVLN8b09jt8+LCxWCymSpUqae7TunVrAzicx8aNG427u7spW7as2bJli8P2M2bMMIBp1qxZmu2lxRb39Z+hMcb+WT300EOp6rL7vYqMjDSAGTx4cJpxxMbGmtKlSxt3d3fzxRdfONRt3rzZFClSxPj7+5tTp05l+dxERJSAiIjkIFsCkt4rvQthm8uXLxsPDw/TqFEjh/L0EhBfX19TpEiRLMVWv359A5gdO3akqktJSTENGjQw7u7u5vTp01lq7/oEJCUlxRw8eNA899xzBjAWi8WeKNx///0GMGPGjEnVzj///GN8fX2Nm5ubOXz4sL0MMA0aNMhSLDmZgFy738aNGx3KDx48aCwWi6latapDeY8ePQxgli5dmuZxunfvbgATHR2dpfNJKwE5fvy4+eCDD4yPj4+pWrWqOX78eJbaMib971VmCciUKVMMYEaOHJlm/eTJkw1gJk+enOVYRET0FCwRkVsgvWE+/v7+9r8fO3aMpUuX8scffxAXF0dKSgoAXl5e/Pnnn1k6TuPGjVm3bh0PPvggI0aMsM8PuN6pU6f4/fffqVatGnXq1ElVb7FYaNWqFdu2bWPr1q32oTlZUalSpVRlXl5evPvuu7Rp0wawzk2Af4c3XatEiRJ07NiRJUuWsH79evr160eJEiUoV64c27ZtY/To0QwbNozKlStnOaabNXDgQNasWcO8efNo3ry5vXzevHkYYxzOIyUlhZ9++gk/P790+61NmzZ8++23/Prrr/b5MVlhm6NxrUaNGhEZGUlAQECa++TE98pm5cqVAISFhaVZb/t8f/3112y1KyIFmxIQEZFbILPH8E6ePJnRo0dz9erVmzrOtGnT6NmzJ5999hmfffYZJUuWpF27doSFhdG7d2/c3d0B66RsgD///NNhEnZaYmJishWDbR0Qi8WCv78/NWvWpFevXpQpU8a+zfHjxwHSXYvDVn7s2DF72eeff06/fv146623eOuttwgJCaFdu3b069ePLl26ZCvG7OrduzdPPPEEX331FVOmTLH3o21eyLUJSExMjH1uRWZrnmS3b23rgCQnJ3PgwAE2bNhAdHQ0Tz31FDNnzky1fU59r2xs35tWrVpluF12z0tECjYlICIiuSwqKoqRI0cSGBjIe++9R2hoKKVKlbJP2C5TpgwnTpzIUlv16tVj9+7d/PDDD3z33XesXr2ar7/+mq+//poWLVqwevVqvLy87L8FL1WqVKZ3N0JCQrJ1PtevA3Ij0kqKOnTowP79+1m2bBk//PADq1evZvbs2cyePZvw8HAiIiJu6pgZKVKkCF27dmXRokWsWrWKTp068fvvv7Nr1y6aNm1KtWrV7Nva+tbf35/w8PAM203vDlV6rl8HZO3atXTq1IlZs2bRrVs3evfuba/Lye+Vje3cevfuTaFChdLdLj8usCkit44SEBGRXLZo0SIAXn/99VRDteLj4zl58mS22vPx8aFnz5707NkTgF27djFgwAA2btzIjBkzeOyxxyhXrhxgXffCGYsklilThgMHDnDo0CFq1aqVqt72m/brV/YOCAhgwIABDBgwALBeZPfp04cFCxbw3Xff0bVr11sW88CBA1m0aBFz586lU6dO9rsfgwYNctiuePHi+Pj44ObmxsyZMzO9w3Qz2rZty9ixY3n++ed5/vnn6dWrl/3uTE5/rwDKlSvH3r17GT16NI0bN775ExARQY/hFRHJdefOnQOwJwXX+uabbzDG3FT7tWvX5vHHHwdg586d9mPVrFmT3bt3s2/fvptq/0bY5grMnz8/Vd3p06dZsWKFfR5KRpo3b859990H/HtuGbENibp+vY6suPvuuwkMDGTx4sVcunSJ+fPn4+7uTt++fR228/DwIDQ0lLi4OH766adsHye7nn76aUqVKsWff/7p8AjcG/leZdY/d911F/BvciMikhOUgIiI5LLq1asD8OmnnzqM1d+9ezfPPfdcltu5fPky77//fqoF5lJSUvjhhx8AKF++vL38pZdeIiUlhfDwcLZt25aqvTNnzvDJJ59k40yy7vHHH8fNzY3333+fLVu22MuvXLnCE088QXx8PGFhYfZ4Dx8+zKxZs7h8+bJDOwkJCURGRgKO55Ye2zyUvXv3Zjtmb29vevfuzYULF3jmmWc4evQod955p31tkWu98MILuLm58cADD7B69epU9RcvXuSzzz4jPj4+23Fcz9fXl9GjRwPWtVVsicWNfK8y65+HH36YEiVKMHHiRD7++GP7kCybpKQkVqxYkaVkUETEzrkP4RIRyV/IwjogMTExplSpUgYwlSpVMvfee6+58847jaenp+nTp4/98bbXSusxvOfOnTOA8fT0NM2bNzf9+vUzYWFhpnz58gYwFStWNDExMQ7tPP/88wYwbm5uplGjRqZPnz6md+/epmHDhsbd3d0EBgZm+VwzWgckLa+//roBjIeHh7nzzjtNv3797LFWq1bNnDx50r7tb7/9ZgDj5+dn2rZtawYMGGB69OhhgoODDWCaNGliEhIS7Nun9zjdBQsWGMAEBASY3r17mwcffNA8+OCDme5n8/PPPzs8RnnOnDnpnt///vc/4+7ubl9rJSwszPTt29c0a9bMeHt7G8CcO3cuS32V0TogxljXSSldurQBzOLFi40xN/a9MsaYevXqGcA0bdrUDBkyxDz44INmyZIl9vqNGzea4sWLG8CUL1/edOnSxQwYMMB06NDBBAUFGcAsWrQoS+clImKM1gEREclRWUlAjDHmyJEjZsCAAaZs2bLGx8fH3HbbbebNN980SUlJWU5Arl69aqZNm2bCwsJMlSpVjJ+fnwkKCjL16tUzr7zyijlz5kyax16zZo3p06ePKVOmjPH09DTFihUz9erVM8OHDzdr1qzJ8rlmNwExxphly5aZO+64wwQGBhovLy9TtWpV8+yzz5qzZ886bBcXF2cmTZpkunbtaipWrGh8fHxMsWLFTJMmTcyUKVPMpUuXHLbPKJGYMmWKqVWrlj0JuLZvM0tAkpOTTbly5ezJ0IULFzI8v99++80MHjzYhISEGC8vLxMUFGRq165thg4dapYtW2ZSUlKy1E+ZJSDGGPP+++/bEweb7H6vjDHmzz//ND179jTFihUzbm5uBjDjxo1z2ObEiRPm2WefNbVr1zZ+fn7Gz8/PVKlSxfTo0cPMmjUr034REbmWxZibHGwsIiIiIiKSRZoDIiIiIiIiuUYJiIiIiIiI5BolICIiIiIikmuUgIiIiIiISK5RAiIiIiIiIrlGCYiIiIiIiOQaJSAiIiIiIpJrlICIiIiIiEiuUQIiIiIiIiK5RgmIiIiIiIjkGiUgIiIiIiKSa5SAiIiIiIhIrlECIiIiIiIiuUYJiIiIiIiI5BolICIiIiIikmuUgIiIiIiISK5RAiIiIiIiIrlGCYiIiIiIiOQaD2cHINmXkpLC8ePHKVy4MBaLxdnhiIiIiEgeY4zhwoULlClTBje3vHXPQQmICzp+/Djly5d3dhgiIiIikscdOXKEcuXKOTsMB0pAXFDhwoUB6xcqICDAydGIiIiISF4TFxdH+fLl7deNeYkSEBdkG3YVEBCgBERERERE0pUXh+vnrQFhIiIiIiKSrykBERERERGRXKMEREREREREco0SEBERERERyTVKQEREREREJNcoARERERERkVyjBERERERERHKNEhAREREREck1SkBERERERCTXKAEREREREZFcowRERERERERyjRIQERERERHJNUpA0rF161befPNNwsLCKFeuHBaLBYvFcsPtnTt3jqeeeoqQkBC8vb0JCQnh6aef5vz58zkXtIiIiIhIHmcxxhhnB5EX9ezZkyVLlqQqv5HuiomJoUWLFuzfv5/KlSvTpEkTdu3axa5du6hevTobN26kaNGiWW4vLi6OwMBAYmNjCQgIyHY8IiIiIpK/5eXrRd0BSUeLFi146aWX+Pbbbzlx4gTe3t433NbTTz/N/v37CQsLY+/evXz11Vfs3LmTJ554gn379jFixIgcjFxEREREJO/SHZAs8vHxITExMdt3QE6cOEG5cuXw8PDg8OHDlCxZ0l6XmJhI+fLlOXv2LMePH6dEiRJZajMvZ7QiIiIi4nx5+XpRd0BusR9++IGUlBTatGnjkHwAeHt7c88995CcnMx3333npAhFRERERHKPEpBb7PfffwegUaNGadbbyrdv355rMYmIiIiIOIsSkFvs8OHDAJQrVy7Nelv5oUOHci0mERERERFn8XB2APndxYsXAfDz80uzvlChQgBcuHAh3TYSExNJTEy0v4+Li8vBCG+9HROnsXV3EZLcsjeR3/z/S0RERMQV+cafp9YfK9jaoA9uKZd46PMhzg4pT1AC4gImTJjAK6+84uwwbtjW3UW45FPK2WGIiIiI5JqS/+yh848v438phitegeyo3dnZIeUZSkBuMX9/fwAuX76cZv2lS5cAKFy4cLptjBkzxuFRvXFxcZQvXz4Ho8ya/VtP8evSv7mSkJyt/S55///TvUwKnldjb0FkIiIiInlHjX2raL1xBu4pSZwLLMvhcnVxS05/tEtBowTkFqtQoQIAR48eTbPeVh4SEpJuG97e3je1DklO+XXp35w7mXYilSGLdaqRd8Ip3uswIfu7Xy3B9od+yv5xRURERHJTYiI89RSsn25936sXRWbNom8eewyusykBucXq168PQHR0dJr1tvJ69erlWkw36kJMDOCX7TsZFgMeSYkEn1yGJTkwy/slpxhMijd+F7veQLQiIiIiuSwlBTZvBosFXnsNRo8GNz3z6XpKQG6xzp074+bmxi+//MKpU6ccFhtMTExk6dKluLu707WrC1xkX04ELz+8r8TSauOL2d79n6IQt++dbO9XOrhQtvcRERERyXW+vrBoEezeDZ015yM9SslyyNSpU6lZsyZjxoxxKC9dujT9+/fnypUrPPbYYyQlJdnrnn32WU6fPs2gQYOyvAq6M1n+/08DnPPP3uuforC6bnVKBfhk61UluBAjO9Zw5mmLiIiIpM0Y+PBD690OmwoVlHxkQndA0rF8+XLGjx9vf3/lyhUAmjdvbi976aWX6NatGwAxMTHs3buXEydOpGrr3XffJSoqigULFlCzZk2aNGnCrl272LlzJ9WqVWPy5Mm3+GxylrHAgDuzfyejSnAhokaG5nxAIiIiIrktIQEefRRmzbK+79gRbr/dqSG5CiUg6Th9+jSbNm1KVX5t2enTp7PUVvHixfn11195+eWXWbx4MYsWLaJkyZI8+eSTvPLKKwQFBeVU2LmmVIBPtrYv5O2uOxkiIiKSPxw+DOHhsGWLdY7HW29B06bOjsplWIwxWuvNxcTFxREYGEhsbCwBufhUhY+HLuCqVxE8r5xj2GfhuXZcERERkTwjMhLuvRdiYqBYMfjyS7jzTmdHlYqzrhezQnNARERERESyYupUuOsua/LRoIH1DkgeTD7yOiUgIiIiIiJZ4e8PyckwaBCsXw8VKzo7IpekOSAiIiIiIukxxrquB8CQIRASAqGh/5ZJtukOiIiIiIhIWn78ERo3hmsfPNS+vZKPm6QERERERETkWsbAxInW9Tx++81xnQ+5aRqCJSIiIiJic/EiPPggfP219f3QodbH7EqOUQIiIiIiIgKwfz/06gU7d4KnJ7z/Pjz8sIZc5TAlICIiIiIimzZZh1ydPw+lSsGCBdCypbOjypeUgIiIiIiI1KgBwcFw220QEQFlyjg7onxLCYiIiIiIFEyXL4Ovr3WIVVAQrFplvfvh5eXsyPI1PQVLRERERAqeP/6wPmJ32rR/yypUUPKRC5SAiIiIiEjBsmQJ3H67NQmZPBkSEpwdUYGiBERERERECoaUFBg7Fnr2hAsXoG1b2LgRfHycHVmBojkgIiIiIpL/nT8PAwfCd99Z3z/1FLz9tvVxu5KrlICIiIiISP6WmAjNm8Pevda7HZ98AoMGOTuqAktDsEREREQkf/P2tq5uHhIC69cr+XAyJSAiIiIikv8kJ8PJk/++f+YZ+P13aNTIeTEJoARERERERPKbM2egSxe44w7rZHOwrvURGOjcuARQAiIiIiIi+cm2bdCkCfz4Ixw8aH0veYoSEBERERHJH+bNg5YtrYlH5coQFQVt2jg7KrmOEhARERERcW1JSTBihPUxu/Hx0LkzbN4Mdes6OzJJgxIQEREREXFtzz0HU6ZY//7887BsGRQt6tyYJF1KQERERETEtT3zDFSvDgsWwOuvg7u7syOSDGghQhERERFxPVu2WCebA5QuDbt2gYcubV2B7oCIiIiIiOu4cgWGD4emTeGrr/4tV/LhMvRJiYiIiIhrOHkS+vSBdeus7w8edGo4cmOUgIiIiIhI3hcVBeHhcPw4BATA3Llw993OjkpugIZgiYiIiEje9vHH0LatNfm47TbrI3aVfLgsJSAiIiIikndt2QIPPwxXr0JYGGzaZH3ilbgsDcESERERkbyrSRMYMwYKF4bRo8FicXZEcpOUgIiIiIhI3rJuHVSuDGXKWN+/8YZz45EcpSFYIiIiIpI3GANTp0L79tC7NyQmOjsiuQV0B0REREREnC8+Hh55BGbPtr6vUAGSk50bk9wSSkBERERExLkOHbJOMI+OBjc3mDgRRozQfI98SgmIiIiIiDhPZCTcey/ExEDx4tbVzTt0cHZUcgspARERERER50hJgf/+15p8NGoECxdCSIizo5JbTJPQRURERMQ53Nzgm2/gscesT75S8lEgKAERERERkdxz4AB8/vm/76tVg2nTwNfXeTFJrtIQLBERERHJHStXQr9+EBtrXePjrrucHZE4ge6AiIiIiMitZQy8+SZ07gznzllXN7/tNmdHJU6iOyAiIiIicutcuABDh0JEhPX9Qw9ZFxv09nZuXOI0SkBERERE5Nb480/o2RN27wZPT2viMWyYs6MSJ1MCIiIiIiK3xs8/W5OP0qVhwQJo0cLZEUkeoARERERERG6NYcMgLg4GDbImISJoErqIiIiI5JTYWHj8cetEcwCLBUaNUvIhDnQHRERERERu3p491vke+/bBiRPWVc1F0qA7ICIiIiJycxYtgttvtyYf5crBmDHOjkjyMCUgIiIiInJjkpPhpZcgLAwuXoR27WDrVmja1NmRSR6mIVgiIiIikn3nz8PAgfDdd9b3Tz8NEydaH7crkgElICIiIiKSfUlJsGsX+PrCJ59YkxGRLFACIiIiIiLZV7w4LF4MxkDDhs6ORlyIEhARERERyVxSErzwAtSoAUOHWssaNHBqSOKalICIiIiISMbOnIF+/WDVKvD2hk6doGxZZ0clLkoJiIiIiIik77ffrE+5OngQ/Pxg5kwlH3JT9BheEREREUnbF19Ay5bW5KNKFYiKgnvvdXZU4uKUgIiIiIiII2NgxAi47z5ISIAuXWDzZqhb19mRST6gBEREREREHFksEBho/fuLL8LSpVCkiHNjknxDc0BERERExColBdz+//fTL70Ed94JrVo5NybJd3QHRERERESsk8tbt4bLl63v3dyUfMgtoQREREREpCC7cgUef9y6tsfGjdZVzUVuIQ3BEhERESmoTpyAPn1g/XrrvI9XXoEnnnB2VJLPKQERERERKYg2boTwcGsSEhgIc+dCt27OjkoKACUgIiIiIgXNggXQvz9cvQq1asHixVCtmrOjkgJCCYiIiIhIQdOkifWuR2iodfK5v7+zI5ICRAmIiIiISEFw6RIUKmT9e0iIdWHBkBDr3A+RXKSnYImIiIjkd2vXQpUq8O23/5ZVrKjkQ5xCCYiIiIhIfmUMvP8+3HEH/PMPvPOOtUzEiZSAiIiIiORH8fEweDA89RQkJcGAAfDDD7rrIU6nOSAiIiIi+c2hQ9CrF/z2G7i7w9tvw9NPK/mQPEEJiIiIiEh+8s8/0LgxnDkDxYvD119D+/bOjkrETkOwRERERPKTkiWta3w0bgxbtyr5kDxHd0BEREREXN2lS5CQAMWKWd9Pnmyd9+Hr69y4RNKgOyAiIiIiruyvv6BFC+jd25p0AHh6KvmQPEsJiIiIiIir+uEH66rmO3bAnj1w4ICzIxLJlBIQEREREVdjDEyYAF27wvnz0KyZdb5HtWrOjkwkU5oDIiIiIuJKLlyABx6ABQus7//zH/jgA/D2dm5cIlmkBERERETEldx3HyxZYp3nMXUqDBvm7IhEskVDsDIQHx/P2LFjqV69Oj4+PpQpU4ahQ4dy7NixbLf1448/0q1bN4KDg/H09KRYsWJ07NiRRYsW3YLIRUREJN964w2oUQPWrFHyIS5JCUg6EhIS6NChA+PHj+fixYv06NGD8uXLM3PmTBo2bMjff/+d5bbeffddOnbsyPfff0/16tUJDw+nZs2arFq1irCwMF544YVbeCYiIiLi0lJS4Ndf/31fqxbs2mV98pWIC1ICko7XXnuNqKgoWrRowb59+/jqq6/YtGkTkyZN4vTp0wwdOjRL7Zw+fZrRo0fj6elJZGQk69ev58svv2T9+vWsXr0ab29vJkyYkK2ERkRERAqI2Fjo2RNatYJffvm33N3daSGJ3CwlIGm4cuUKU6dOBWDatGn4+/vb60aMGEG9evVYs2YNW7duzbStTZs2kZiYSIcOHWjXrp1DXdu2benUqRPGGLZs2ZKzJyEiIiKubfduuP12WLrUmnDcwBBwkbxICUga1q9fT2xsLFWqVKFhw4ap6nv37g3A0qVLM23LO4tPpChmW7lUREREZOFC66N19+2D8uVh3Tro18/ZUYnkCCUgafj9998BaNSoUZr1tvLt27dn2tbtt99OUFAQP//8M2vWrHGoW7t2LStWrKBatWq0adPmJqMWERERl5ecDM8/D+HhcPEihIZa1/do0sTZkYnkGCUgaTh8+DAA5cqVS7PeVn7o0KFM2woMDOTTTz/Fzc2N9u3b07p1a/r160fr1q0JDQ2ladOmrFixAi8vr5w7AREREXFNCxZYFxgEGDECfvwRgoOdG5NIDtM6IGm4ePEiAH5+fmnWFypUCIALFy5kqb2wsDC+//577r33XtavX28vDwgIoGPHjpQtWzbD/RMTE0lMTLS/j4uLy9JxRURExMX06QMrVsAdd8CAAc6ORuSW0B2QXDBp0iTuvPNO2rZty/bt27l48SLbt2+nQ4cOjB07lrCwsAz3nzBhAoGBgfZX+fLlcylyERERueW+/da6ujmAxQKffqrkQ/I1JSBpsD316vLly2nWX7p0CYDChQtn2tbq1at55plnaNCgAd988w1169alUKFC1K1bl4iICBo0aMDy5cv5/vvv021jzJgxxMbG2l9Hjhy5gbMSERGRPCUpCZ55Bnr0gAceAGOcHZFIrlACkoYKFSoAcPTo0TTrbeUhISGZtjVnzhwAevXqhZubY3e7u7vb736sXbs23Ta8vb0JCAhweImIiIgLi4mBTp1g0iTr+6pVrQsOihQAmgOShvr16wMQHR2dZr2tvF69epm2ZUtWAgMD06y3lZ87dy7bcYqIiIgLio6GXr3g8GEoVAhmzrTO/RApIHQHJA2tWrUiMDCQv/76i23btqWqj4iIAOCee+7JtK1SpUoBpLvQ4ObNmwGoWLHijQUrIiIirmP2bOuq5ocPW+96REUp+ZACRwlIGry8vBg+fDgAjz/+uH3OB8DkyZPZvn077dq1o3HjxvbyqVOnUrNmTcaMGePQVs+ePQGYO3cuy5Ytc6hbsmQJ8+bNw83NjV69et2isxEREZE84cIFGD0aEhKga1fYvBnq1HF2VCK5TkOw0vHiiy+yatUqNmzYYF8o8NChQ2zatIng4GA+++wzh+1jYmLYu3cvJ06ccCjv2bMnffr04ZtvvuGee+6hSZMmVKpUiQMHDtjvirz++uvUqFEj185NREREnKBwYes6HytWwNix4KbfA0vBpG9+Onx8fIiMjOSll17Cz8+PxYsXc+jQIYYMGUJ0dDSVK1fOUjsWi4WvvvqKTz/9lLZt27J//34WLVrEwYMH6dq1K99//z3PP//8LT4bERERcYpff4XFi/9936IFvPyykg8p0CzG6JlvriYuLo7AwEBiY2Nz9YlYHw9dwFWvInheOcewz8Jz7bgiIiIu6dNP4bHHwMMDNm3ScCvJVc66XswKpd8iIiIiOenKFXj0UXjoIevfO3aE/3/Ev4goARERERHJOcePQ/v28NFH1lXNX3vNOu8jj/0GWsSZNAldREREJCesXw+9e8PJkxAUBPPmQZcuzo5KJM9RAiIiIiKSE5YvtyYfderAokXWdT5EJBUlICIiIiI5Yfx461Cr4cPB39/Z0YjkWZoDIiIiInIjjhyBRx6BxETre3d360KDSj5EMqQ7ICIiIiLZtWYN9OkDp09DoUIwaZKzIxJxGboDIiIiIpJVxsB778Edd1iTj/r1rUOuRCTLlICIiIiIZMXly3DfffD005CcDAMHwoYNUKmSsyMTcSkagiUiIiKSmYMHoVcv2LbNOtfjnXfgqaesa32ISLYoARERERHJTFKSNQkJDoavv4bQUGdHJOKylICIiIiIZKZqVVi8GCpXhvLlnR2NiEvTHBARERGR6126BAMGwI8//lvWrp2SD5EcoDsgIiIiItfav98632PnToiMhL//Bl9fZ0clkm/oDoiIiIiIzfffQ9Om1uSjVCmIiFDyIZLDlICIiIiIpKTA669Dt25w/jy0aAFbt0KrVs6OTCTf0RAsERERKdiuXIF+/WDRIuv7hx+2Ljbo7e3cuETyKSUgIiIiUrB5ekKRIuDlBdOmwUMPOTsikXxNQ7BERESkYEpOtv5psVgTj6goJR8iuUAJiIiIiBQsKSkwdix07/5vEuLjAw0bOjcukQJCQ7BERESk4Dh/HgYNguXLre9/+ME68VxEco0SEBERESkYdu2yru/x55/WOx4ff6zkQ8QJlICIiIhI/hcRAUOGWFc4r1DB+sSrRo2cHZVIgaQ5ICIiIpK/TZ4MffpYk48OHWDLFiUfIk6kBERERETyt/btrauZjxwJK1ZAcLCzIxIp0DQES0RERPKfCxegcGHr3xs2hD/+sA69EhGn0x0QERERyV/mz4eQEPj113/LlHyI5BlKQERERCR/SEqyDrMaMADOnYOPPnJ2RCKSBg3BEhEREdd3+jT06wc//2x9P2YMjB/v3JhEJE1KQERERMS1bd0KYWFw+DD4+8Pnn1vfi0iepAREREREXNe2bdCqFSQmQrVqsHgx1Krl7KhEJANKQERERMR11asHHTta/z5nDgQGOjceEcmUEhARERFxLf/8Y33Erp8fuLnBl1+Cj4/17yKS5+lfqoiIiLiOqCjrKubDhoEx1jJbIiIiLkH/WkVERMQ1fPIJtGsHx49DdLT1Ubsi4nKUgIiIiEjelpgIDz9svetx5Yr1CVebNkHRos6OTERugBIQERERybuOHYPQUPj4Y7BY4PXXISLCOgdERFySJqGLiIhI3pSSAl26wI4dEBQE8+ZZ34uIS9MdEBEREcmb3NzgvfegYUPYskXJh0g+oQRERERE8o74eGuyYdO+vfV9lSrOi0lEcpQSEBEREckbDh+GNm2gQwf4449/y/WIXZF8xaXngCQlJbF8+XJ+/fVXYmJiaNasGUOHDgXg+PHjxMTEUKtWLTw8XPo0RURE8r/ISLj3XoiJgWLF4PRpqFnT2VGJyC3gslfm69atY9CgQRw5cgRjDBaLhatXr9oTkI0bN3LvvffyzTffEBYW5uRoRUREJE3GwLvvwqhRkJxsne+xcCFUrOjsyETkFnHJe5q7d++mc+fOnDhxgieeeIKvv/4aY1sN9f/dc889+Pn5sWDBAidFKSIiIhm6fBkGDYIRI6zJx333wfr1Sj5E8jmXvAMyfvx4EhIS+O677+jYsWOa23h5edGoUSN+++23XI5OREREsuSDD6yP1nV3hylTYPhw61ofIpKvuWQCEhkZye23355u8mFTtmxZfv/991yKSkRERLJlxAjYvBmeeALatXN2NCKSS1xyCNb58+cpX758pttdunSJq1ev5kJEIiIikiljYO5cSEqyvvf0tK5qruRDpEBxyQSkRIkS7N+/P9Pt9uzZk6VERURERG6xixehb1/rnI9nn3V2NCLiRC6ZgHTo0IFt27YRGRmZ7jaLFi1i//793HXXXbkYmYiIiKSyfz80bw7ffGO961G9urMjEhEncskEZPTo0Xh5edGzZ0/+97//cfLkSXvduXPn+Oyzz3jwwQcpVKgQI0aMcGKkIiIiBdzy5dCkCezaBaVKwerV8Mgjzo5KRJzIJROQmjVrMn/+fFJSUhg+fDhly5bFYrHw+eefU7x4cf7zn/+QmJjI3LlzqVSpkrPDFRERKXhSUuDVV+GeeyA2Flq2hOho658iUqC5ZAIC0LNnT3bu3MkTTzxBzZo18fHxwcvLi8qVK/Pwww+zfft2unfv7uwwRURECqZDh2DiROvE80cfta50Xrq0s6MSkTzAJR/DaxMSEsK7777r7DBERETkepUqweefw/nz8OCDzo5GRPIQl7wDMnv2bDZs2JDpdlFRUcyePTsXIhIREREWL4a1a/99Hx6u5ENEUnHJBGTIkCHMmDEj0+0+/fRTHnjggVyISEREpABLSYGXXoJevaBPHzhxwtkRiUge5tJDsDKTkpKCxWJxdhgiIiL51/nzMHAgfPed9X3//lC8uFNDEpG8LV8nIH///TcBAQHODkNERCR/2rnTetdj/37w8YFPPrEuNCgikgGXSUBeffVVh/fbtm1LVWaTlJTE3r17Wbt2rRYiFBERuRW++QYeeAAuXYKQEFi4EBo1cnZUIuICXCYBefnll7FYLBhjsFgsbNu2jW3btmW4T4kSJXjjjTdyJ0AREZGCZOFCa/Jxxx3w5ZcadiUiWeYyCcjMmTMBMMYwdOhQWrduzYPpPFnDy8uLMmXK0Lx5c7y9vXMzTBERkYJhxgzrCudPPQUeLnM5ISJ5gMv8xBg8eLD9759//jldunRxKBMREZFbaNs2mDkT3n0XLBYoVAhGjnR2VCLiglwmAblWZGSks0MQEREpOObOhf/8B+LjoVo1GD7c2RGJiAtzyXVAREREJBdcvQr//a/1yVbx8dCli/WRuyIiN8El74CAdS7I3LlzWbJkCX/++ScXLlzAGJNqO4vFwl9//eWECEVERFzYqVPQty+sXm19/8IL8Mor4O7u1LBExPW5ZAJy5coVunXrxs8//5xm0gHYn5glIiIi2bR1q3V9jyNHwN8fZs+2vhcRyQEuOQRr0qRJ/PTTT9x99938+eef3HfffVgsFhITE9mzZw8vv/wyhQoVYtSoUaSkpDg7XBEREddy5QqcPAnVq8OmTUo+RCRHueQdkK+++oqiRYsyb948ChUqhJubNY/y9PSkRo0ajB07lvbt29O+fXtq1KjB0KFDnRyxiIiIC2nRAr791vpnYKCzoxGRfMYl74Ds37+f22+/nUKFCgHYE5Dk5GT7Nm3atKFVq1Z8+OGHTolRRETEZZw8CZ06we+//1vWubOSDxG5JVwyAXF3dyfwmh+KtkTk9OnTDtuVLVuWvXv35mpsIiIiLmXjRmjUCFauhAceAM2fFJFbzCUTkLJly3L06FH7+6pVqwIQFRXlsN327dvx9/fP1dhERERcxscfQ7t2cOIE1KoFX35pXWRQROQWcskEpHnz5uzcuZPExEQAunbtCsDTTz/NDz/8wI4dO3jiiSfYs2cPzZo1c2aoIiIieU9iIgwbBg8/bF3rIzwcoqKsk85FRG4xl0xAwsPD8fHxYeXKlYD1DsjTTz/N4cOH6datGw0aNGDatGn4+fkxceJEJ0crIiKSh5w9a73r8ckn1rsdb7wB33wDhQs7OzIRKSBc8ilY3bp148SJEw5lkyZNomnTpixevJhz585RvXp1nnzySapVq+akKEVERPKgwEDrq0gRmDfPOtlcRCQXuWQCkp5+/frRr18/Z4chIiKStxgDycng4WFdyXz+fDh/HipXdnZkIlIAueQQrKzavn27EhIRESnY4uNhyBB4/PF/y4oWVfIhIk6TLxOQqKgo7rnnHho2bMg333zj7HBERESc49AhaN0aZs+GGTNgxw5nRyQi4jpDsC5dusR7773HihUrOHXqFCVKlKBLly48+eST+Pn5AbB582bGjBlDZGQkxhh8fX159NFHnRy5iIiIE/z8M/TtCzExULw4fPUV1K3r7KhERFwjAbl06RKtWrVix44dmP9fIGnv3r2sW7eOpUuXsnbtWl5//XXGjx9PcnIyPj4+PPLIIzz33HOULFnSydGLiIjkImNgyhQYNQpSUqyLDC5cCCEhzo5MRARwkSFYkyZNYvv27QQHB/Pmm2+ydOlS5s2bx6BBg4iKiqJHjx688sorpKSkMGzYMP7++28mT55808lHfHw8Y8eOpXr16vj4+FCmTBmGDh3KsWPHbqi9gwcP8sgjj1CpUiW8vb0pXrw4LVq04O23376pOEVEROweewxGjrQmH/ffD+vWKfkQkTzFYmy3FPKwRo0asXfvXrZv306VKlUc6l5++WVeffVVLBYLX375JX369MmRYyYkJNC+fXuioqIoXbo0bdq04eDBg/z6668EBwcTFRVF5WxM4Pv+++/p3bs38fHxNGrUiGrVqnHmzBl27NhBoUKF2L9/f5bbiouLIzAwkNjYWAICAm7k9G7Ix0MXcNWrCJ5XzjHss/BcO66IiGTDd99Br14waZJ14rlWNhcpkJx1vZgVLjEEa//+/bRo0SJV8gHw4IMP8uqrr9KoUaMcSz4AXnvtNaKiomjRogUrV67E398fgMmTJzNy5EiGDh3K6tWrs9TWH3/8QVhYGIULF+bHH3+kZcuW9rqUlBSio6NzLG4RESmAYmOta3sAdO0Kf/0F5co5NyYRkXS4xBCsixcvUr58+TTrbOU1atTIseNduXKFqVOnAjBt2jR78gEwYsQI6tWrx5o1a9i6dWuW2hsxYgQJCQnMmjXLIfkAcHNzo0mTJjkWu4iIFCDGwIQJULUqHDjwb7mSDxHJw1wiAQGwZHIL2cvLK8eOtX79emJjY6lSpQoNGzZMVd+7d28Ali5dmmlbR44cYcWKFVSuXJmuXbvmWIwiIlLAXbgAffrA889bn3T15ZfOjkhEJEtcYggWWO+CHD58+IbqK1SokK1j/f7774B17klabOXbt2/PtK3Vq1eTkpJCy5YtSUpKYuHChaxfv57k5GTq1KlD3759KVKkSLbiExGRAu7PP6FnT9i9Gzw9YepUGDbM2VGJiGSJyyQgCxYsYMGCBWnWWSyWdOstFgtJSUnZOpYtkSmXzi1sW/mhQ4cybWv37t0A+Pv706ZNG6KiohzqX3jhBSIiImjfvn22YhQRkQJq2TIYNMg676N0aViwAFq0cHZUIiJZ5hIJSIUKFTIdgpWTLl68CGBf4PB6hQoVAuDChQuZtnXu3DkAZsyYgb+/P/PmzaNz586cPn2a8ePH88UXX9CrVy927dpF2bJl02wjMTGRxMRE+/u4uLhsnY+IiOQTS5dC9+7Wv7dqBd98Y01CRERciEskIAcPHnR2CDcsJSUFgKSkJKZPn869994LQJEiRZgzZw579+5l8+bNfPjhh7z++utptjFhwgReeeWVXItZRETyqLvugqZN4fbbYfJkyMH5jyIiucVlJqHnJttTry5fvpxm/aVLlwAoXLhwltvy9/dP8zHBDzzwAABr1qxJt40xY8YQGxtrfx05ciTT44qISD5x4AAkJ1v/7uMDq1db53wo+RARF6UEJA22SetHjx5Ns95WHpKFlWVt26Q3jKxixYoAnDp1Kt02vL29CQgIcHiJiEgBsGgR1KsH48b9W5bO8GAREVehBCQN9evXB0h3gUBbeb169TJty/YYX9tckOudPXsWwGGtERERKeCSk+HFFyEsDC5ehA0b4OpVZ0clIpIjlICkoVWrVgQGBvLXX3+xbdu2VPUREREA3HPPPZm21bJlS4oVK8bJkyfZu3dvqnrb0Ku01hsREZEC6Nw5uOcesM0L/O9/YeVK6+N2RUTyASUgafDy8mL48OEAPP744/Y5HwCTJ09m+/bttGvXjsaNG9vLp06dSs2aNRkzZoxDWx4eHowYMQJjDI8//rjDE6xWrVrFrFmzsFgsPPzww7f4rEREJM/bscM6yfz778HXF774wjrZ3MMlnhkjIpIl+omWjhdffJFVq1axYcMGqlWrRps2bTh06BCbNm0iODiYzz77zGH7mJgY9u7dy4kTJ1K1NWrUKCIjI1m1ahXVq1enefPmxMTEEBUVRXJyMq+//jq33357bp2aiIjkRZcuQYcO1lXNK1a0zv9o0MDZUYmI5DjdAUmHj48PkZGRvPTSS/j5+bF48WIOHTrEkCFDiI6OpnLlylluy9PTk++++4633nqL4sWLs2LFCnbs2EG7du1YunQpzz///C08ExERcQmFCsGUKXDnnbBli5IPEcm3LMYY4+wgJHvi4uIIDAwkNjY2V5+I9fHQBVz1KoLnlXMM+yw8144rIpJvxcTAiRNQt+6/ZSkp4KbfD4rIzXHW9WJWuPwQrLNnz7J161ZiYmIICQmhZcuWzg5JREQkc7/9Br16QVISbN0KJUtay5V8iEg+57I/5U6fPs2AAQMoVaoUnTt3ZtCgQcyYMcNeP2PGDIoWLcq6deucGKWIiEga5syBli3h0CHr4oLpPKpdRCQ/cskE5OzZs7Rs2ZIvv/ySOnXq8Nhjj3H9SLKwsDAuXLhgf2SuiIiI0129Ck8/DfffDwkJ0KULbN4MNWs6OzIRkVzjkgnI66+/zl9//cXYsWOJjo7mgw8+SLVN0aJFqVevnn2dDREREac6dQruugvee8/6/sUXYelSKFLEuXGJiOQyl0xAFi9eTPXq1Xn55Zcz3K5KlSocO3Ysd4ISERHJyIsvwpo1ULiw9RG748eDu7uzoxIRyXUumYAcO3aM+vXrZ7qdxWJxWPhPRETEad5+G7p3h19/hZ49nR2NiIjTuGQCEhAQkOaCf9f766+/CA4OzoWIRERErnPlCnz+OdjmKAYGwpIlmu8hIgWeSyYgTZs2ZfPmzRw4cCDdbX7//Xe2bdtGq1atcjEyERERrGt7tG8PQ4ZAGvMURUQKMpdMQJ544gkSExPp1asXe/bsSVW/f/9+7rvvPowxDB8+3AkRiohIgbVhAzRubP0zMBCqVnV2RCIieYpLJiCdO3fm2WefZfv27dSpU4eaNWtisVhYsWIF9evX57bbbmPnzp08//zztG7d2tnhiohIQWAMfPQRhIZa74DUrg1btkDXrs6OTEQkT3HJBATgzTff5KuvvqJu3brs27cPYwwnTpxgx44dVKtWjblz5zJ+/HhnhykiIgVBQgI89BA8+qh1rY/evSEqSnc/RETS4OHsAG5Gnz596NOnD6dPn+bgwYOkpKRQrlw5ypYt6+zQRESkINm2zTrh3M0NJkyAUaPAYnF2VCIieZJLJyA2wcHBetqViIg4T/PmMG0aVK5sXWxQRETS5ZJDsJo0acJ7773HyZMnnR2KiIgURMZYE44//vi37OGHlXyIiGSBSyYg0dHRjBgxgvLly9OpUyfmzJnDxYsXnR2WiIgUBPHxMHgwDB8OvXrBpUvOjkhExKW4ZAKyfft2Ro0aRdmyZfnxxx8ZMmQIJUuWpH///ixfvpzk5GRnhygiIvnRwYPQqhXMmQPu7jBsGPj5OTsqERGX4pIJSJ06dXjzzTc5ePAga9as4aGHHsLHx4evvvqK7t27U6pUKR5//HE2bNjg7FBFRCS/+OknaNIEfvsNiheHH3+E//5Xk81FRLLJJROQa7Vp04bp06dz8uRJFi1aRHh4OJcuXeJ///sfbdq0oUqVKs4OUUREXJkxMGkSdOwIZ85YFxncutW60rmIiGSbyycgNp6envTo0YOvv/6af/75h0ceeQRjDAcPHnR2aCIi4sqSk2HJEkhJsc79+OUXqFDB2VGJiLisfPEYXps///yTuXPnMn/+fPbv3w+Aj4+Pk6MSERGX5uEB33wDS5fCgw9qyJWIyE1y+QTk5MmTfPnll8ydO5fo6GiMMbi5udGhQwcGDhxIeHi4s0MUERFX88MPsHEjvPKK9X3JktaVzkVE5Ka5ZAISFxfHggULmDdvHqtXryYlJQVjDA0bNmTgwIH079+f0qVLOztMERFxNcZYVzJ/8UXr35s2hbvvdnZUIiL5iksmIKVKlSIxMRFjDBUrVmTAgAEMHDiQ2267zdmhiYiIq7pwAYYMgYULre+1sKCIyC3hkgmIn58fQ4YMYeDAgbRq1crZ4YiIiKvbu9e6qOCePeDlZV3lXEOuRERuCZdMQE6ePImHh0uGLiIiec2yZTBwIMTFQdmysGABNGvm7KhERPItl3wMr5IPERHJMYmJ1uSjTRvr+h5KPkREbimXuJJfu3YtALfffjs+Pj7291nVtm3bWxGWiIjkB+Hh1kfsduoEnp7OjkZEJN9ziQQkNDQUi8XCnj17qF69uv19ViUnJ9/C6ERExKXs3g2PPALz5kG5ctYyPelKRCTXuEQCcv/992OxWAgMDHR4LyIiki0LFlifdHXxIjz1lPW9iIjkKpdIQGbNmpXhexERkQwlJ8NLL1nX+AAIDYWPPnJqSCIiBZVLJCAiIiI37OxZGDAAVqywvh8xAt56C/RAExERp3DJp2BVrlyZ5557LtPtxowZQ5UqVXIhIhERyZP++guaNLEmH76+MHcuTJqk5ENExIlc8ifwwYMHOX36dKbbxcTEcPDgwVsfkIiI5E2lSkHhwlCpEixaBPXrOzsiEZECzyUTkKy6dOkSnnqkoohIwZKUBO7uYLFAoULw7bfg7w/Fijk7MhERwUWHYGUmJSWFPXv2EBkZSYUKFZwdjoiI5JaYGOt6Hm+++W9ZSIiSDxGRPMRlEhB3d3f7C+Dzzz93KLv25enpSZ06dfjnn3/o37+/kyMXEZFcER0NjRvDzz9bE5CYGGdHJCIiaXCZIVjly5e3r/1x+PBh/Pz8KF68fLHC0wAAmc9JREFUeJrbenl5UaZMGbp3786TTz6Zm2GKiIgzzJkDw4ZBQgJUq2ad75HO/xEiIuJcLpOAXDuZ3M3NjT59+vDZZ585LyAREXG+q1fhmWfg/fet77t1gy++gKAgp4YlIiLpc5kE5FqRkZGUKlXK2WGIiIgzGQNdu8KqVdb3Y8fCuHHg5jKji0VECiSXTEDatWvn7BBERMTZLBbo0wc2bbLe9eje3dkRiYhIFrhEArJ27VoAbr/9dnx8fOzvs6pt27a3IiwREXGGc+egSBHr34cNsyYeuisuIuIyXCIBCQ0NxWKxsGfPHqpXr25/n1XJycm3MDoREckViYnw1FOwciVs2QJFi1rLlXyIiLgUl0hA7r//fiwWC4GBgQ7vRUSkgDh+HHr3ho0brUOvfvwR+vZ1dlQiInIDXCIBmTVrVobvRUQkH1u3zjrX4+RJ69Ot5s2DLl2cHZWIiNwgPSpERETyJmPgww+hfXtr8lGnDmzerORDRMTF5bsEZM+ePURERLBp0yZnhyIiIjfj/ffh8cchKQnuvdc6/KpqVWdHJSIiN8klE5CvvvqKDh06pEoyRo0aRZ06dejbty8tW7akV69emoAuIuKqBg2yJhwTJ8KXX4K/v7MjEhGRHOCSCcgXX3zBtm3baNiwob1sw4YNTJo0icKFC9OvXz8qVqzIt99+y9y5c50YqYiIZMu+ff/+vVgx2L4dRo2yTjwXEZF8wSUTkJ07d1KvXj28vLzsZXPmzMFisfD1118zd+5cNm/ejL+/PzNmzHBipCIikiXGwHvvQa1a8PHH/5b7+jovJhERuSVcMgE5deoUZcuWdSiLjIykRIkSdOzYEYCiRYvStm1b9u/f74wQRUQkqy5fhvvug6efhuRk68rmIiKSb7lkAuLr60tcXJz9/YkTJ9i3bx/t2rVz2C4oKIhz587ldngiIpJVBw9Cq1Ywdy64u8O774LuXIuI5GsumYBUrlyZX375hfPnzwMwd+5cLBaL/e6HzcmTJylRooQTIhQRkUz9+CM0bgzbtkFwMKxaZV3pXPM9RETyNZdMQIYMGUJcXByNGzcmPDycF198EX9/f3r06GHf5urVq2zZsoXq1as7MVIREUnToUPQtSucPQtNmsDWrRAa6uyoREQkF7jESujX+89//kNkZCQLFizgwIEDFCpUiOnTp1OsWDH7NsuWLSM2NpYOHTo4MVIREUlTSAi8/DL89Zd1sUEfH2dHJCIiucQlExBPT0+++eYbDh48yOnTp6lZsyaFCxd22KZSpUosWrSI5s2bOylKERFxsH+/dZ5HpUrW988/b/1TQ65ERAoUl0xAbCpWrEjFihXTrGvQoAENGjTI1XhERCQd330HAwdChQqwYQMUKqTEQ0SkgHLpBATgypUrbNu2jWPHjgFQtmxZGjRo4LBGiIiIOElKCrzxBowda13r47bb4NIlawIiIiIFkssmIAkJCYwdO5bp06dz8eJFhzp/f38eeeQRXnnlFXw0rlhExDni4mDwYFi82Pr+kUesiw3qF0QiIgWaSyYgiYmJ3HnnnWzcuBGAevXqUbFiRSwWCwcPHuT333/nnXfeYf369fz00094e3s7OWIRkQLmjz+gVy/rn15e1onmDz7o7KhERCQPcMkEZMqUKWzYsIHWrVszbdo06tat61C/c+dOhg8fzi+//MK7777Lc88956RIRUQKqCeesCYfZcvCggXQrJmzIxIRkTzCJdcBmT9/PsHBwSxfvjxV8gFQp04dli1bRvHixZk7d64TIhQRKeA++wzCwqzreyj5EBGRa7hkArJ//35CQ0NTPXr3Wv7+/oSGhvLXX3/lYmQiIgXU+fNw7S98ype33vkoWdJpIYmISN7kkkOwPDw8uHz5cqbbXb58GQ8PlzxFERHXsWsX9OxpXefD19d650NERCQdLnkHpG7duvz888/8/fff6W5z4MABfv75Z+rVq5eLkYmIFDAREdYhVvv3W9f4SGdtJhERERuXTEAefvhh4uPjCQ0N5dNPPyU+Pt5eFx8fz8yZMwkNDSUhIYFHHnnEiZGKiORTyckwZgz06WNd1+OOO6zzPRo1cnZkIiKSx7nk+KT77ruPdevW8cknnzBs2DCGDRtG8eLFAYiJiQHAGMPDDz/MwIEDnRmqiEj+c/Ys9O8PK1da3z/zDEyYABryKiIiWeCSd0AApk+fzjfffEPr1q3x9PTk9OnTnD59Gk9PT9q0acM333zD//73P2eHKSKS//z8szX58PWF+fPh7beVfIiISJa59P8Y4eHhhIeHk5SUxJkzZwAoVqyYJp6LiNxKvXtb73h07QqaZyciItnkUlfq3333HYsXL+bIkSN4e3tTv359HnjgASpWrEhJPepRROTWSEqC11+HRx7597G6o0c7NyYREXFZLpOADBw4kC+//BKwzu8AWLp0KW+//TZffvkl3bt3d2Z4IiL50+nT0Lfv/7F352FRlW8fwL+HZQaQXRYXEEQQFBXFLVfEFNdEcUUt0NLKLMtflmYuqeWerylmmfuuiJq4ZCWaorjhliimIiBugMoiO9zvH9NMDjMDMzAwLPfnuuYqnu3cZ86A557znPMAERGSqVcREYBetZ29yxhjrAqoFgnI+vXrsXPnThgYGODtt99GmzZtkJGRgfDwcJw7dw7vvPMO4uPjYWFhoetQGWOs5rh8GRgyBEhMBExNgSlTOPlgjDFWbtUiAdm8eTP09PRw9OhRvPnmm7LyGTNmYNy4cdiyZQvCwsIwbtw4HUbJGGM1yKZNkilXubmAmxtw4ADQvLmuo2KMMVYDVIuvsm7cuIE33nhDLvmQ+uqrr0BEuHHjhg4iY4yxGiYvD5g8GRg3TpJ8vPUWcPEiJx+MMca0plokIOnp6WjSpInSOml5enp6ZYbEGGM1U04O8Mcfkv+fO1dy5YOntzLGGNOiajEFi4igr6+vtE7v3/nIRUVFlRkSY4zVTObmkqTjn38kVz8YY4wxLasWCQhjjLEK9PPP/029AgAPD8mLMcYYqwDVYgoWILkRXV9fX+lLEASV9bwoIWOMqZCbC0ycCLz/PvDpp8D167qOiDHGWC1QbRIQIirTqzxTs7KzszF79mw0bdoURkZGaNCgAcaPH4+kpKRy7cs///wDY2NjCIKAXr16lWssxhgrk6QkwMcHWLcOEARg/nygZUtdR8UYY6wWqBaXB3Rxf0dOTg569uyJqKgo1K9fH/7+/njw4AE2btyI8PBwREVFwcXFpUxjT5w4Ebm5uVqOmDHG1HTmDDBsGPD0KWBpCezcCfTtq+uoGGOM1RLV5gpIZVuwYAGioqLQqVMn3LlzB7t378b58+exfPlyJCcnY/z48WUad/369Th58iQmTJig5YgZY0wNP/4I+PpKko+WLYFLlzj5YIwxVqk4AVEiLy8Pq1evBgCEhITA1NRUVjd16lS0atUKp06dwuXLlzUa9+nTp5g2bRp69+6NwMBArcbMGGNqyc0FCgqAUaOAc+cAFY84Z4wxxioKJyBKREZGIi0tDU2aNEGbNm0U6ocNGwYAOHTokEbjTpkyBdnZ2VizZo1W4mSMMbUQ/ff/U6YAhw4BO3YAderoLibGGGO1FicgSly7dg0A4O3trbReWn5dgyfGHDlyBLt378ZXX30FV1fX8gfJGGPqiIiQ3GwuXaxVEICBAyX/ZYwxxnSAExAlEhISAAAODg5K66Xl8fHxao336tUrTJo0Ce7u7vjyyy+1EyRjjJWECFixAujdGzh9GliwQNcRMcYYYwCqyVOwKltmZiYAwMTERGl9nX+nLWRkZKg13tdff434+HhERERAJBJpHE9ubq7cU7PSpd9kMsaYMllZwIQJkmlWAPD228A33+g2JsYYY+xffAWkgl26dAk//PAD3nnnHfTo0aNMYyxcuBAWFhayl6Ojo3aDZIzVHHFxQOfOkuRDXx/44Qdg82bA2FjXkTHGGGMAOAFRSvrUq6ysLKX1r169AgCYmZmVOE5BQQEmTJgAS0tLLFu2rMzxzJgxA2lpabJXYmJimcdijNVg584B7doB164BdnbAn38CH3/M93swxhirUmrEFKx//vkHKSkpqFu3Lpo2bVru8Ro1agQAePjwodJ6abmTk1OJ4zx8+BBXr15FvXr1MHz4cLm6ly9fAgAuX74suzJy8uRJpeOIxWKIxWI1o2eM1VouLpIrHe3bA2FhgIr72BhjjDFdqrYJSG5uLr755hv8/PPPePHiBQAgKCgIGzZsAABs27YN33//PTZs2IDWrVtrNLaXlxcAIDo6Wmm9tLxVq1ZqjffkyRM8efJEad3Lly9x6tQpjeJjjDGZvDxAem+ZvT1w4gTQqBFgZKTbuBhjjDEVquUUrOzsbPTo0QOLFy+GSCRC//79Qa8/5x5Az549ce3aNezZs0fj8bt06QILCwvcu3cPV69eVagPDQ0FALz11lsljuPs7AwiUvqKiIgAALz55puyMsYY08g//wDe3sC2bf+VNW3KyQdjjLEqrVomIEuWLMH58+cxfvx43L9/X+mCgA0aNEDz5s3xxx9/aDy+SCTC5MmTAQAfffSR7J4PAPj+++9x/fp1+Pj4oG3btrLy1atXw8PDAzNmzCjDHjHGmIYOH5ZMtbp5E5gzR3IlhDHGGKsGquUUrN27d6NRo0b48ccfYWCgehfc3d0RGRlZpm18/fXX+OOPP3D27Fm4ubmhW7duiI+Px/nz52Frayub6iWVkpKC2NhYPH78uEzbY4wxtRQVAd9+K0k6iCRPvAoN/W8aFmOMMVbFVcsrIHFxcWjXrl2JyQcguZIhvT9EU0ZGRoiIiMCsWbNgYmKCAwcOID4+HsHBwYiOjoaLi0uZxmWMsTJLTwcCAoDZsyXJx4cfSlY6r19f15ExxhhjaquWV0CMjY3VSizi4uJgZWVVru3MmzcP8+bNK7Xt3LlzMXfuXLXH7tGjB9/3wRhTX1YW0LEjcPs2IBYDa9YA48frOirGGGNMY9XyCkjr1q1x6dIlJCcnq2wTFxeHK1euoH379pUYGWOMVRATE2DIEMmjdU+f5uSDMcZYtVUtE5AJEyYgIyMDgYGBSElJUah/+fIlxo8fj/z8fEycOFEHETLGmBYUFgLPn//38/z5wNWrkpvPGWOMsWqqWk7BCgwMxKFDh7Br1y64uLigc+fOAIDIyEj4+/vj1KlTSE9PxzvvvIOBAwfqOFrGGCuDFy+AMWOA1FTgr78k06709YG6dXUdGWOMMVYu1fIKCABs374dixcvhpGREY4fPw5AsiL6oUOHIAgCvv32W2zcuFHHUTLGWBn8/bfkKsfRo8CNG8Dly7qOiDHGGNOaankFBAAEQcC0adMwdepUREdH48GDBygqKoKDgwPat28PET+SkjFWHe3ZA4wbJ7np3MkJ2L8faNNG11ExxhhjWlNtExApfX19tG/fnm82Z4xVbwUFwMyZwJIlkp979QJ27gRsbHQbF2OMMaZl1XYKFmOM1ShTp/6XfEybJpl+xckHY4yxGqhaXgEZr8HjJwVBwPr16yswGsYY04JPP5VMt1q2DBg5UtfRMMYYYxWmWiYgmzZtKrWNIAggIk5AGGNVV0wM0Ly55P9dXIC7dyVPu2KMMcZqsGqZgERERCgtLyoqQmJiIo4fP45du3bhs88+w1tvvVXJ0THGWCny84EvvgBWrgQOHwb69ZOUc/LBGGOsFqiWCYiPj0+J9e+88w4GDBiAoKAgDBo0qJKiYowxNTx7BowYAZw6Jfn52rX/EhDGGGOsFqixN6EHBgbC09MTc+fO1XUojDEmcekS0LatJPkwNQXCwoDp03UdFWOMMVapamwCAgBubm64dOmSrsNgjDFg0yaga1fg4UPA3R24cAEYMkTXUTHGGGOVrsYmIEVFRbh+/Tr09GrsLjLGqoszZySLC+bmAoMGAefPA82a6ToqxhhjTCeq5T0gJcnKysKdO3ewcOFC/PPPPxg4cKCuQ2KM1XZduwITJwINGwJffw3wFyOMMcZqsWqZgOjr65fahohga2uLpUuXVkJEjDFWzPnzgJsbYG0t+XntWkAQdBsTY4wxVgVUywTE0dERgop/yEUiEerXrw8fHx989NFHsLOzq+ToGGO13s8/A5MnA76+wJEjgL4+Jx+MMcbYv6plAvLgwQNdh8AYY4pycyWJxy+/SH42M5OUmZjoNi7GGGOsCqmWE5F//fVXHD16VNdhMMbYfx4+BHx8JMmHIAALFwJ793LywRhjjBVTLROQIUOG4IcfftB1GIwxJvHXX5L1Pc6fB6ysgKNHJet78LQrxhhjTEG1nIJla2sLKysrXYfBGGNAQQEwYYJkhfNWrYD9+wEXF11HxRhjjFVZ1fIKSI8ePXDhwgUQka5DYYzVdgYGwO7dknU+zp7l5IMxxhgrRbVMQObPn4+UlBR89tlnyMnJ0XU4jLHaJj4eCAv77+fWrYENG4A6dXQWEmOMMVZdVMspWDt37kT//v2xatUq7Nq1C7169UKjRo1gZGSk0FYQBMyaNUsHUTLGaqQTJ4CRI4G0NMm9H2+8oeuIGGOMsWqlWiQgLi4uGD58OBYvXgwAmDt3LgRBABHh2bNn2LFjh8q+nIAwxrSCCFixApg2DSgqAry9gfr1dR0VY4wxVu1UiwTkwYMHSE5Olv28ceNGHUbDGKt1Xr0C3nsP2LVL8vM770hWNjc21m1cjDHGWDVULRKQ4oKCgnQdAmOstrh/HxgyBLh+XXLD+YoVwEcf8SN2GWOMsTKqlgkIY4xVmn37JMmHnR0QGgp066briBhjjLFqjRMQxhgryf/+B6SnA++/Dzg46DoaxhhjrNqrNgnI1atXMW/evDL1nT17tpajYYzVWBkZwIIFwOzZksfq6ukB8+frOirGGGOsxqg2Cci1a9dw7do1jfoQEQRB4ASEMaaeO3ck93vExABPngCbN+s6IsYYY6zGqTYJSJMmTdClSxddh8EYq6nCw4ExYyTTrRo0AD74QNcRMcYYYzVStUlAunbtig0bNug6DMZYTVNUJJlyNWeO5OeuXYG9e4F69XQbF2OMMVZDVZsEhDHGtC4tTbKmx6+/Sn7+6CPg++8BkUi3cbEKl5+fj8LCQl2HwRhjatHX14ehoaGuw9AaTkAYY7VXRgYQFQWIxZKFBYODdR0Rq2Dp6elISUlBbm6urkNhjDGNiMVi2NjYwNzcXNehlBsnIIyx2svBAQgLkyQg7drpOhpWwdLT05GUlARTU1PY2NjA0NAQAi8oyRir4ogI+fn5SEtLQ1JSEgBU+ySEExDGWO1RWCh5vG7btkBAgKSMH25Ra6SkpMDU1BQODg6ceDDGqhVjY2OYmZnh4cOHSElJ4QSkMhQVFek6BMZYdffiBTB6NHDsGGBqKrnZ3M5O11GxSpKfn4/c3FzY2Nhw8sEYq5YEQYCFhQWSkpKQn59fre8JqRYJCGOMlcv165L1Pe7fB4yNgZ9+4uSjlpHecF6d/8FmjDHp37DCwsJq/feMExDGWM22ezcwfjyQlQU4OwP79wOtW+s6KqYjfPWDMVad1ZS/YXq6DoAxxioEETBtGjBqlCT56N0buHSJkw/GGGNMxzgBYYzVTIIA5OdL/v/LL4GjR4G6dXUbE2OMMcY4AWGM1TBE//3/0qXA778DixYB+vq6i4kxppbk5GR8/vnncHd3h7GxMaytreHt7Y1p06aVabx58+ZBT08PN27cUNnm8ePHMDAwgCAIGD9+fInj9ejRA4IgYNOmTSrbnDx5EoIgwNnZWWWbhIQEfPnll/D29oa1tTVEIhHs7e3h5+eHNWvWIDMzs7Rdq1SFhYVYsWIFWrZsCWNjY9ja2mLEiBG4detWmca7desWxowZg/r160MsFsPZ2RmTJ09GSkqKyj5ZWVlYsGABPD09YWxsjLp166Jfv344efJkids6evQoevfuDUtLS5iYmKBly5ZYsmQJ8qVfUBUTHBwMQRBUvtauXavQZ/DgwbC3t69yx60q4wSEMVZzbN0K9Ov335UPQ0OgVy/dxsQYU8vly5fRrFkzLF++HIaGhvD398cbb7yB58+fY8WKFRqP9/TpUyxduhTDhg1Dy5YtVbbbsWOH7CEF+/btQ05OTpn3QR0//vgjmjZtiiVLliApKQmdO3fGsGHD4OnpiTNnzuCjjz6Cq6triSfjlamoqAjDhw/H1KlT8fDhQwwYMACenp4IDQ1Fu3btcOHCBY3GO3HiBNq1a4cdO3bA0tISAwcOhFgsRkhICNq0aYOHDx8q9MnMzISPjw9mzZqFJ0+eoFevXvD09MSff/6Jnj17YsOGDUq3tXjxYvTv3x8nTpxA8+bN4efnh2fPnuHLL79E//79VSYhANCnTx8EBQUpvNzd3RXazp49G8+ePcOSJUs0ei9qNWLVTlpaGgGgtLS0St3uT+NCafX7f9JP40IrdbuMlSovj+iTT4gk1z+IfvxR1xGxKiY7O5tiYmIoOztb16EwJZ49e0Y2NjZkYmJCBw8eVKg/f/68xmN+8sknBICio6NLbOfl5UUAqH79+gSAdu3apbKtj48PAaCNGzeqbBMREUEAyMnJSaFu7dq1BIBMTU1p8+bNVFRUJFf/6tUrWrJkCZmZmVFcXFyJcVeWdevWEQByc3OjJ0+eyMpDQ0MJALm6ulJ+fr5aY7169Yrs7e0JAM2ePVtWXlRURJ9//jkBID8/P4V+kydPJgDUtm1bevbsmaw8MjKSTE1NSSQS0YMHD+T6XLhwgQRBIENDQzp27JisPC0tjXx9fQkAfffddwrbCgoKIgAUERGh1j5J9enTh0xMTCglJUWjfprS5G+Zrs4X1cEJSDXECQhjr3nyhKh79/+Sj1mziAoLdR0Vq2I4AanaPvzwQwJAISEhWhnv1atXZGFhQS1atCix3Y0bNwgAOTo60qZNmwgADRgwQGX78iQgCQkJZGRkRIIg0IkTJ0qMKyYmhp4/f15im8rSrFkzAkD79+9XqBs0aBABoNBQ9c4Ltm7dSgDI3d2dCov9nc7LyyNnZ2cCQFevXpWV5+bmkomJCQGgyMhIhTG/+uorAkCffvqpXPm7775LAGjChAkKfWJjY0kQBLKxsaGCggK5urImINJ9W758uUb9NFVTEhCegsUYq74uXJCsav7XX4CZmeQRu/PmAXr8p42x0hw/fhyCIKBLly4lttu+fTsEQcCYMWMqJI7s7Gxs27YNderUwbhx47Qy5t69e5GWlobAwMAS223duhUAMHr0aAwdOhQmJib47bffkJycrJU4Xrd69Wrk5ORgxIgR8PX1LbFts2bNYGVlpfUYNBUXF4dbt27B2NgYAwYMUKgfNmwYAODQoUNqjXf58mUAQPfu3aFX7O+0oaGh7LN48OBBWfmtW7eQlZUFsViMTp06KYwpfS9f7/P6tnr06KHQp2nTpmjQoAFSUlIQGRmpVuylGTx4MIyNjbFu3TqtjFfT8b/SjLHqKTQU6NYNSEoC3N0lycjgwbqOirFqY82aNQCA9957r8R2AQEBMDc3R2hoaIWcmF+6dAkZGRlo06YNjI2NcfToUUydOhWTJk3C//3f/+HRo0cajxkeHg5A+cmnVFFREbZv3w4AGDt2LExNTTF48GAUFBRg165dZdqXkhw+fBiAJNmpLq5duwYAaNGihdJF77y9vQEA169fV2u8V69eAYDK5Kruv08qlG739T4WFhZK18CQ9omLi0N6enq5tvW6sLAwfPzxx5g0aRKWLl2K27dvq94xAKampmjXrh1u376N+/fvl9iWcQLCGKuuWrQAxGJJ0nHhAuDhoeuIGKs20tPTcfToUejr68Pf37/EtsbGxvDz80NeXh7CwsLk6jZt2lTiE4OUvYonBTExMQAAOzs7DB48GP3798eKFSvw448/4rPPPoOrqyt27typ0f6dPn0aBgYGaNOmjco2ERERSEpKgpeXF1q0aAFAkogA/10Z0Za8vDzZfkpP2rXF2dlZ42NQ2pOjpBISEgAADg4OSuul5fHx8WqNZ2trW2L7uLg4hXppn+TkZGRnZ6vs83q8pW2LiGTlqmJZtWoVVq9ejR9//BFffPEFmjdvjo8++ggFBQUq969Dhw4AgFOnTqlswyR4JXTGWPWRmytJOgBJwnHhAtC0KU+5YkxDERERyMvLQ7t27WBtbV1qe19fX4SGhuLYsWN4//33ZeWurq4ICgrSaNsexb4sePHiBQDg119/hb6+PkJCQjB8+HBkZWVh9erVWLZsGYKCgtCsWTO0VmMh0WfPnuHp06do3LgxjI2NVbaTJhnSpAMAevfuDTs7O1y8eBGxsbFKn3hUFi9evAD9+4hw6YmxtgwbNkzjJ2bVq1dPrXbSx8qamJgora9Tpw4AICMjQ63xunfvju+++w6HDx9GSkoKbGxsZHVJSUn4/fffFcZzdXVF/fr18fjxY2zevBkffPCB3JivPwHr9X7du3fH2bNnlfbZt28f0tLSlMbepk0bdOrUCT179oSDgwOePHmCo0eP4uuvv8aaNWsgEolUPpVN+tm+evWqWu9HbcYJCGOseoiMBAIDgS1bAOk3qHzVg2nJW6vOIDkjV9dhqM3WTIxDH3ctc//o6GgAgJeXl1x5bm4uLl68CHt7e7i5ucnKW7VqJddPqmvXrujatexxAJKpUABQUFCAb7/9FpMmTZLVLV26FPHx8di7dy+WLl0qmzJVkmfPngFQPfUGkNx3EhYWBj09PbkpUQYGBggMDMTKlSuxdetWLFiwoKy7VWmWLVum6xDU5ufnB29vb0RHR6Nfv34ICQlB8+bNcePGDbz//vuyqwuv3x8iCAKmT5+OKVOmYNq0aRCLxfD390d6ejpWrFiBw4cPw8DAAAUFBXL9Jk2ahJCQEERFReGdd97BrFmzYGtri+PHj+PDDz9U2gcApkyZIvdz48aNMWnSJPj4+MDb2xurV6/G1KlT4ejoqLB/0mS+IqYq1jT8tSFjrGojAn78EfD1BRITJTeZv77YIGNakJyRiyfpOdXmVd5k6cmTJwAAe3t7ufKEhAR069YN33zzjVy5nZ2dXD9tMjU1lf2/spvQpWXqTmuRfrNtZmamss2BAweQkZGBnj17okGDBnJ10isi27dvl121kFJ2D0Jx0j6vt7WyspL9XJ1OTqXHJisrS2m99D6Lkt7r1wmCgLCwMHh6euLSpUvo2LEjzMzM0LlzZzx79gxz584FoJg8fvzxx/j444+RmZmJ8ePHo27dumjcuDFWrVqFBQsWyNq/3s/R0RFhYWGwtLTE1q1b0bRpU1hZWWHkyJFo0qSJbNFJdW/29/T0xKBBg1BQUIA///xTaRtzc3MAwMuXL9UaszbjKyCMsaorJwf46CNAeol92DBg40ZAjZMAxjRhaybWdQgaKW+8qk6kpdNRiq/oLG1f/NviM2fO4JdfftFo2x4eHpg+fbrsZycnJwCSaT7KpidJVxSXXtkojYWFBYCSpwVJp1/FxsYqvYIjCAIePHiAM2fOoFu3brJy6VQkVSfkr9dJpycBgEgkQvPmzXHz5k1ER0ervKeiLD7//HONp2BNnz5dYSqcMo0aNQIApYsDvl4uPYbqcHJywtWrV7F//36cPXsW2dnZ8PT0xJgxY2T3GHl6esr1EQQBP/zwA8aPH4+DBw8iKSkJdnZ2GDp0KJo3b445c+bA2NgYLi4ucv169eqF+/fvY9euXfj777+hr6+Pzp07Y+jQobLEtvi2SiK9Kvj48WOl9dLk19LSUu0xaytOQBhjVVNiIjB0KHDxouQej4ULgWnTOPlgFaI805mqI+nc++LfxktPKJOSkuTKpe2kTw6Sunv3LjZv3qzRtn18fOQSEOmN4tnZ2cjNzYVYLJ9cPX/+HID8lZKSSK/WSPsV9+zZM9m9BomJiUhMTFQ51tatW+USEGniUNJTjqR1xZOMAQMG4ObNm9ixYwcGDRqkxp6oJzQ0VO2bwKWCg4PVSkCkU/T+/vtv5OfnKzwJSzolTzpFT10GBgYYPnw4hg8fLld+9uxZAKqfXta6dWuF+4D++usvFBYWokuXLjAwUDyttbKywocffqhQfu7cOejp6aF79+5qxy29X+n15FJZvbbv86mJeAoWY6zqefhQsr7HxYuAtTVw7BjwxRecfDCmJdKnPknXSpC6ePEiAODmzZvIycmRlUvbFf+2ODg4GCRZ1FjtV/EnMDVq1AheXl4gIqXTrKRlJT3R6nV2dnaoV68eEhMTlV6p2LlzJwoKCjBs2DCVMUqfrLR3717k5v433U16snrkyBGF6VlSv/76KwDIJS4AMHnyZIjFYuzZswcREREl7sPt27dlJ7OlefDggcbHoKTHE7+ucePGaNasGbKzs2WPEX5daGgoAOCtt95Sa7ySPHnyBKGhoahbty4CAgLU7rdq1SoAwMSJE9Xuc/jwYdy/fx99+/ZVei+HMrm5ubL3QNWTzG7dugUAaj0sodar2HUOWUXgldBZjVdURDRmDJGXF9H9+7qOhtUAvBK6vNTUVDIyMiIAslW5MzIyyNHRkQYOHEgA6KeffiIioqysLPL09NTqSuXFbd++nQBQy5Yt6dGjR7LyK1eukLW1NQGgPXv2qD3e8OHDCQCdOXNGoa5t27YEgPbt21fiGJ06dVJY5Ts7O5saNmxIAGjmzJkKq2iHhIQQADI1NaXHjx8rjPnjjz/K6rds2UJFRUVy9VlZWbRixQoyNzenuLg4tfe3Iq1bt44AkJubGz19+lRWvm/fPgJArq6ulJ+fL9cnLCyM3N3d6e2331YY78aNGwq/h4mJidShQwcCQJs2bVLo8/TpU4qPj5cry8/Pp9mzZxMA8vX1VRr7pUuXFN7jyMhIsrW1JSMjI7p9+7Zc3a1bt2jLli2Uk5MjV/7s2TMaPHgwASAvLy+FMaW6du1KAOjevXtK67WhpqyEzglINcQJCKuRsrKI0tP/+/nVK8mLMS3gBETR/PnzCQAZGxtTQEAAubu7kyAIFBkZSV26dCGRSEQBAQHUtGlTAkDu7u6UlZVVYfEEBQURALK0tKT+/fuTr68vicViAkATJkzQaKxNmzYRAFqwYIFceUxMDAEgc3PzUj8LP/zwAwEgf39/ufLIyEiytLQkANSoUSMaNmwYjRw5ktzd3QkAicViCgsLUzluSEiIbL/s7e1p4MCBNHr0aOrZsyeZmJgQAGrQoAElJydrtM8VpbCwkIYMGUIAyMrKioYNG0Y9evQgQRDI2NiYoqKiFPps3LiRAJCPj49CXVBQEJmbm1OPHj0oMDCQ3nzzTdn7MWvWLKUxREREkCAI5O3tTUOHDqWAgACqX78+AaA2bdpQamqq0n5OTk7k4OBAffv2pcDAQGrXrp0s7vDwcKXbke5n7969afTo0dSjRw8yMzMjAOTg4ECxsbFKt5WRkUFGRkbk4eFRwrtZfpyAMJ3hBITVOHFxRG3aEPn7ExUW6joaVgNxAqLcypUryd3dncRiMbm5udGWLVuIiCg+Pp4GDBhA5ubmZGVlRaNHj6akpKQKjaWoqIh+/vlnatu2LZmYmFCdOnWoU6dOSr8RL01WVhZZWFhQ8+bN5cpnzJhBACgoKKjUMZ48eUL6+vpkaGhIKSkpcnUJCQk0ZcoU8vDwIGNjYxKLxeTi4kLvvvsuxcTElDp2fHw8TZs2jby8vMjCwoIMDAzIzs6O/Pz86Mcff6TMzEyN9reiFRQU0PLly8nT05OMjIyobt26NGzYMLp586bS9iUlIPv376c+ffpQvXr1yNDQkOzs7Mjf358iIiJUbj8hIYGCg4PJzc2NTExMyNTUlNq2bUvLly+n3Nxclf0WLlxIHTt2JGtraxKJROTk5EQTJ05UeYUiKSmJPv30U3rjjTdk8ZmampK3tzfNmTOHnj9/rnJbW7ZsIQC0fPlylW20oaYkIAIRP8+yuklPT4eFhQXS0tJkj3yrDD+P34d8kRUM815g4oahlbZdVsP9+ScwciSQmgrY2gJRUUCxJ5kwVl45OTmIi4tD48aNYWRkpOtwWCX47LPP8H//93+4dOkS2rZtq+twWA3Xp08fnDlzBgkJCQoPa9AmTf6W6ep8UR18EzpjTDeIgGXLAD8/SfLRrh1w+TInH4wxrZgxYwZMTU2xcOFCXYfCarjo6GgcP34c//vf/yo0+ahJOAFhjFW+V68kq5pPmwYUFQHBwcDp04CaTyNhjLHS2NnZYdq0aQgLC8ONGzd0HQ6rwebNmwc7Ozt88cUXug6l2uAEhDFW+UaMAHbvBgwMgJAQyUKDPC2GMaZls2fPRlFREVq2bKnrUFgNduDAATx9+lTttWoYL0TIGNOFOXOAmzeBbdsAJasQM8YYY6zm4gSEMVbxiIC//wak30J26ADcuQOIRLqNizHGGGOVjqdgMcYqVkYGMHSoJOm4cuW/ck4+GGOMsVqJExDGWMWJjQU6dgT275fcbH77tq4jYowxxpiO8RQsxljF+PVX4O23gfR0oEEDYN8+4I03dB0VY4wxxnSMr4AwxrSrqEhyk7m/vyT56NpVsr4HJx+MMcYYAycgjDFt27YNmDdP8v+TJ0tWOq9XT7cxMcYYY6zK4ClYjDHtGjNGcs/H4MFAUJCuo2GMMcZYFcMJCGOs/I4fB7p3lywmqK8PhIUBgqDrqBhjjDFWBfEULMZY2RUWAl99BfTpI5luRSQp5+SDMcYYYyrwFRDGWNk8fw6MHg389pvkZ0tLSQLCyQdjjDHGSsBXQBhjmrt2DWjXTpJ8GBsDO3YAy5YBevwnhTGmmZMnT0IQhFJf86QPt9DA+PHjUadOHTx79kxlmwsXLqi9DWdnZwiCgJMnT6pss2nTJgiCgB49eqhsExMTg48//hgtWrSAhYUFxGIxGjZsiEGDBmHLli3Iy8srbdcqVXZ2NmbPno2mTZvCyMgIDRo0wPjx45GUlFSm8aKiouDv7w8bGxsYGRmhadOmmDlzJl69eqWyz/PnzzFt2jS4urpCLBbDzs4Ow4YNw9WrV0vc1vbt29GlSxeYmZnB1NQU7du3x7p160DSK/avKctnkYjQpk0btGzZEkVFRWV6P2ojvgLCGNPMzp3Au+8C2dlA48aSG869vHQdFWOsmqpXrx6CVDyworCwENu2bQMAdOvWTaNxb9y4gc2bN+N///sf7OzsVLbbunWr7P+3b9+O2bNna7QdTRARZs+ejYULF6KwsBCNGjWCr68vjI2NkZiYiGPHjuHQoUP45ptvcO/evQqLQxM5OTno2bMnoqKiUL9+ffj7++PBgwfYuHEjwsPDERUVBRcXF7XH2759O4KCglBYWAhvb284OTnh8uXL+O677xAeHo7Tp0/D3Nxcrs/jx4/RtWtX3L9/H/Xq1UO/fv3w5MkThIWF4dChQzh06BD8/PwUtvXhhx9i7dq1EIlE6NSpE+rUqYOzZ89i4sSJiIyMxKZNm+Tal+WzKAgCZs+ejYCAAGzatAnjx49X+72o1YhVO2lpaQSA0tLSKnW7P40LpdXv/0k/jQut1O2yKuT5cyJrayKAyM+PKDVV1xExppbs7GyKiYmh7OxsXYfCNHDkyBECQI6OjlRUVKRR30GDBpGhoSE9ffpUZZu8vDyysbEhAFSvXj0CQFFRUSrbOzk5EQCKiIhQ2Wbjxo0EgHx8fBTqpk+fTgDI3t6eDh8+rFD//Plz+uqrr8jQ0LDEfatMM2fOJADUqVMnysjIkJUvX75c5X6qkpiYSEZGRgSA1q9fLyvPzc2lwMBAAkATJ05U6Ddw4EACQP369aPMzExZ+f79+0lPT49sbGwoPT1drk9oaCgBICsrK7p06ZKs/NGjR9SiRQsCQDt27FA79pI+i0VFReTh4UENGzak/Px8tccsC03+lunqfFEdPF+CMaY+KyvJFZAZM4AjRwBra11HxBirwaTfOI8ZMwaCBveXJSYmIjw8HH369Cnx6sexY8eQkpKCLl26YNKkSQDkr4ho04ULF7B48WIYGxsjIiIC/fv3V2hjZWWFb7/9FhERERUSg6by8vKwevVqAEBISAhMTU1ldVOnTkWrVq1w6tQpXL58Wa3xNm3ahJycHPTu3VvuSoFIJMLq1athZmaGDRs2IDU1VVYnPZYGBgb48ccfUadOHVnd4MGDMWrUKKSkpGDDhg1y2/rxxx8BAJ9//jnatm0rK69fvz6+//57AMCSJUvUfStK/CwKgoAxY8YgKSkJv/76q9pj1macgJRAG3MeX758iR07diAwMBCNGzeGSCSCmZkZOnbsiJUrVyI/P78C94AxLbh8Gfjjj/9+9vMDvvtO8rhdxli1dfz4cQiCgC5dupTYbvv27bITrMr06tUrHDx4EADw9ttva9R3w4YNKCoqQmBgYIntpCeVY8eOxdixYwEAu3fvrpB/m5cvXw4iwieffIJmzZqV2La0Y1JZIiMjkZaWhiZNmqBNmzYK9cOGDQMAHDp0SK3xpImKsvtjrK2t0apVKxQUFODw4cOy8ujoaABA48aN4eTkpNDP19cXAGSfFXW25ePjAz09PVy9ehUJCQmlxq3OZ3H06NEAgHXr1pU6HuMERCXpnMf58+cjMzMT/v7+cHR0xMaNG9GmTRvcv39frXGWLVuGMWPGYPfu3bCyskJAQAA6dOiAa9eu4dNPP0XPnj2RlZVVwXvDWBlt2QJ06QIMHw5UkfnIjDHtWLNmDQDgvffeK7FdQEAAzM3NERoaiuTk5MoIDQAQFhaGV69eoU2bNmjevLlGfcPDwwEoP/mUSktLw6+//gqRSIQRI0agcePG6Ny5M1JSUnDs2LHyhK6gqKhINqb0RLU6uHbtGgDA29tbab20/Pr162qNJ73J3MrKSml93bp15bZb1j6l9ROJRLKrOcX7KaPOZ9HFxQWOjo44ceIEsrOzSx2ztuMERIUFCxYgKioKnTp1wp07d7B7926cP38ey5cvR3Jysto3GdWpUwdffPEFHjx4gOjoaOzatQt//vknbty4gUaNGuHMmTNYsGBBBe8NYxrKzwc++USyknluLtC1K/DvH3nGWPWXnp6Oo0ePQl9fH/7+/iW2NTY2hp+fH/Ly8hAWFiZXJ33ikyavkpKC10mvTmh69SMzMxNXrlxBgwYN0KBBA5XtQkNDkZOTg379+sH63+mk0qsg2p6Gdf/+faSnp0MsFsPT01OrY2v6/guCgAcPHqg1tvTqgIODg9J6aXl8fLxa49na2pbYPi4uTqFe3T7Pnz9HZmamWv2eP3+O9PR0tWNX97PYoUMH5OXlISoqqtQxazt+CpYSpc153Lx5s2zO4+vzCpWZMWOG0nI3NzcsWrQIo0ePxs6dO/Hdd99pbwcYK4+nTyVXPE6flvw8Zw4wezY/YpfVaCPDRyIlO0XXYajNxtgGuwfuLnP/iIgI5OXloV27drKT75L4+voiNDQUx44dw/vvvy8rd3V1VfnUIFU8PDxKbfP48WP8+eef0NfXL3UaVXExMTEoLCyEu7t7ie2kSYY06QCAESNGYMqUKTh06BDS0tJgYWGh0bZVkd7TYGVlBX0tT1/V9P0HIHdeUxLpCb2JiYnSeun9GBkZGWqN1717d+zYsQM7d+7EvHnzIBKJZHWXLl3CjRs3FMbr0KEDxGIxnj59imPHjqFv376yOiKSe5JVRkaGbN+6d++OXbt2YdOmTXJ9AMjdL1Ja7Jp8FqWf7atXr8qmhjHlOAFRQp05j9evX8ehQ4dKTUBK4vXvo0sfPXpU5jEY06rz54GhQ4GkJMDMDNi2DRg0SNdRMVbhUrJT8CxL9VoRNY10Xr1XsUdo5+bm4uLFi7C3t4ebm5usvFWrVnL9pLp27YquXbtqPb6dO3eisLAQffv2Rb169TTqK13zQ9WUHUDyzf5ff/0FS0tLvPXWW7LyunXron///jh48CD27t1b6vS0qqD4o2SrsjFjxmDBggVISEjAoEGDsGzZMjg5OeHcuXOYMGECDAwMUFBQAL3XvvCysLDApEmTsGLFCgQFBWHt2rXo2bMnnjx5gtmzZ+PWrVuytq/3+/zzzxEaGordu3ejUaNGmDx5MkxMTLBv3z7Mnj1b6baU0eSzKE3mK3OqYnXFCYgS2p7zqIr0PhJN/7gyVmG2bJEkHx4ewIEDQCnfIDJWU9gY2+g6BI2UN94nT54AAOzt7eXKExIS0K1bN4wZM0Y27QSA7ElS0n4VrazTrwDJvR0AYGZmprLN9u3bQUQYNmwYxGKxXN3YsWNx8OBBbNu2TSEBUedJXPTvAnevt5Xep/DixQsUFhZq/SpIRZFeTVB1r6r0PouS3uvi44WHh2PgwIH47bff8Ntvv8nqXF1d8b///Q+LFy9WSB4XLlyIxMREhIaGIiAgQFYuEomwcuVKfPTRRwAAS0tLWV3btm2xceNGTJgwAUuXLsXSpUtldQMGDIChoSEOHDhQYqIKaPZZlK5f8vLly1Lb1nacgCih7TmPqqxcuRIASp1/y1il+f57wNIS+PJLoNhCUIzVZOWZzlQdqTqRlk5HeX0u/evti39bfObMGfzyyy8abdvDwwPTp09XWX/r1i1cuXIFpqamGDx4sEZjA5BNmyppao10+tXJkycVruBIVyH/66+/EB8fL/fkJelUpJIeHiOte/1xsS4uLjA3N0d6ejpu3rwpu6KkDcHBwRr3WbZsGWxsSk9iGzVqBAB4+PCh0nppubKnU6ni5eWF2NhY7NmzB9HR0bIFCUeNGoWFCxcCgMJ9MmKxGHv37sXp06dx7NgxJCcnw9HREaNGjZJ9NqUrpL9u7Nix8PX1xZ49e3Dnzh0YGRnhzTffxIABA2SLCZZ0T46mn0Vp8vt6IsSU4wRECW3PeVRm7dq1+OOPP2BpaVniH2JAckk8NzdX9rP0xinGyu3RI+D//g9YuFDyWF2xGPj2W11HxRirYNKTz+JTRaQnlMUfNy9tV7fYwyju3r2LzZs3a7RtHx+fEv/dkyYHAQEBKv8dLon0as3z58+V1l++fFk2befu3bu4e/eu0nZEhO3bt+Orr76SlTk4OCAmJqbEJ2FK617/ElNPTw99+/bFnj17sGPHDq0mIJq+/wAwd+5ctRIQ6RS94lPvpKTlmu6PiYkJgoODFZKns2fPAlD99LJu3brJrUIOAFu2bCmxT8OGDfHZZ5/JlWVnZ+Pq1aswMzNTOdsF0Pyz+OLFCwD/3QDPVOO7SnXg9OnTmDJlCgRBwIYNG0p8SgcgufRoYWEhezk6OlZSpKxGi4wE2rYFli4F5s3TdTSMsUrUokULAFBYQO7ixYsAgJs3byInJ0dWLm1X/Nvi4OBgEJFGr5MnT6qMi4iwY8cOAGWbfiWN0cDAALGxsUrrpVNqPv/881JjfH0aGiC5sRmA3DoVrysqKpLVFT9Rnjp1KgRBwA8//CB334Iy0hNxdWj6/hMRnJ2d1Rq7S5cusLCwwL1793D16lWF+tDQUACQu4+mrK5fv45Tp07B09NT7XVQiAghISEAgAkTJqi9rQ0bNuDVq1d4++23YWxsrHJsTT+L0uPaunVrtWOptSpwlfVq67PPPiMA9Nlnnymtv3r1KgEgb29vjce+ceMGWVlZEQD64Ycf1OqTk5NDaWlpsldiYiIBoLS0NI23Xx4/jQul1e//ST+NC63U7TItKyoiCgkhMjAgAohatCD65x9dR8VYhcrOzqaYmBjKzs7WdShVQmpqKhkZGREAOnHiBBERZWRkkKOjIw0cOJAA0E8//URERFlZWeTp6UkAKCQkpELjOnXqFAGghg0bUmFhYZnHad++PQGghw8fypUXFBSQvb09AaDLly+r7F9YWEgNGzYkAHTp0iVZ+aNHj8jU1JQA0Nq1axXGnj59OgEgBwcHpZ+1L7/8kgBQvXr16PDhwwr1L1++pNmzZ5NIJNJ0lyvMzJkzCQB17tyZMjMzZeXLly8nAOTj46PQZ9WqVeTu7k7Tp09XqLty5Qrl5+fLlcXExJCrqysJgiD7PL4uPj6enj59KleWlZVF7733HgGg4OBgpbFfvHhRoezAgQNkYmJCNjY2lJycrLQfUdk+iw4ODiQSiSgrK0ut9mWhyd+ytLQ0nZwvqoMTECVWrFhBAGj48OFK68PDwwkADRkyRKNx79+/T/Xr1ycANHfu3DLHp6sPFCcgNUB2NtG4cZLEAyAaMYIoI0PXUTFW4TgBUTR//nwCQMbGxhQQEEDu7u4kCAJFRkZSly5dSCQSUUBAADVt2pQAkLu7e4WeWBERTZgwgQDQtGnTyjXO3LlzCQBt27ZNrvzIkSMEgJo2bVrqGFOnTiUANGXKFLnysLAwEovFsvdk5MiRNGzYMGrUqBEBIEtLSzp79qzSMYuKimjmzJmkp6dHAMjJyYkGDx5MgYGB1K1bNxKJRASA3Nzcyrzv2padnU0dO3YkAFS/fn0aMWKE7GdbW1u6d++eQp85c+YQAAoKClKo8/HxIVtbW+rVqxcFBgZS165dSV9fnwwMDOjnn39WGsPGjRvJwMCA3njjDRoxYgS99dZbZG1tTQCoT58+Kn+vAVCTJk1o4MCBNHLkSFkiXbduXaXJyes0/SzevXuXAFDfvn3Val9WnIDUYCdOnJB9aJWZN28eAaA5c+aoPeajR4+oSZMmSv+YaYoTEFYmCQlE7dpJEg89PaKlSyVXQxirBTgBUW7lypXk7u5OYrGY3NzcaMuWLUQk+cZ5wIABZG5uTlZWVjR69GhKSkqq0FhycnJkMwSuXbtWrrESEhJIX1+f+vfvL1ceGBio9r/fFy9eJABkZ2en8I39zZs36d133yUXFxcSi8VkbGxMHh4eNGXKFEpISCh17L///ps++ugjatasGZmZmZGhoSE1aNCA3nrrLdq2bRvl5eVptL8VLSsri2bNmkVNmjQhkUhE9erVo+DgYEpMTFTavqQEZN26dbIkRLrfo0ePpitXrqjc/vXr12nUqFHk7OxMRkZGZGFhQV27dqX169dTUQn/jn322WfUpk0bsrS0lH3Gp06dqnA1pbiyfBal54b79u1Tq31Z1ZQERCD693lxTCYvLw92dnZIS0vDlStXFObyeXl54fr167h06ZJa64C8ePECPj4+uHHjBsaNG4f169er9Sg/VdLT02FhYYG0tDTZI98qw8/j9yFfZAXDvBeYuGFopW2Xacm1a0CnToCJCbBrF9Crl64jYqzS5OTkIC4uDo0bN4aRkZGuw2GVYMiQIQgPD0diYiI/7p5VKCJCs2bNkJmZiQcPHsDAoOKe8aTJ3zJdnS+qg29CV0IkEmHy5MkAgI8++kj2nGsA+P7773H9+nX4+PjIJR+rV6+Gh4eHwsrnWVlZGDBgAG7cuIERI0Zg3bp15Uo+GCszLy8gNBS4dImTD8ZYjTd//nwUFRVh2bJlug6F1XAHDhxAbGws5s2bV6HJR03C75IKX3/9Nf744w+cPXsWbm5u6NatG+Lj43H+/HnY2tpiw4YNcu1TUlIQGxuLx48fy5XPnDkT586dg76+PgwMDPDuu+8q3V51WsmUVRNZWcBHHwHvvw+88YakrH9/3cbEGGOVpEWLFggKCsKPP/6IL774QvZ4Xsa0iYgwb948tGjRokxrstRWnICoYGRkhIiICCxcuBA7duzAgQMHYG1tjeDgYMyfP1/lIoXFSZ8JXVhYKHucmzKcgDCtiosDAgKAq1eBiAggNlayxgdjjNUiGzZsUPjCkDFtEgQBV65c0XUY1Q7fA1IN8T0grES//w6MGgU8fw7Y2gJ79wI+PrqOijGd4ntAGGM1Ad8DwhirWoiAJUuAvn0lyUf79sDly5x8MMYYY6xK4SlYjNUEOTnAO+9IrnYAwPjxQEgIwN/0MsYYY6yK4SsgjNUEYjFQUAAYGgI//gj88gsnH4wxxhirkvgKCGPVGREgCJLX5s1ATAzQsaOuo2KMMcYYU4mvgDBWHRUVAQsWAGPHSpIQADAz4+SDMcYYY1UeXwFhrLpJTweCgoADByQ/jxvHCwsyxhhjrNrgBISx6uT2bWDIEMl/RSJgzRpOPhhjjDFWrXACwlh1cfAg8PbbQEYG0LAhEBYGdOig66gYY4wxxjTC94AwVh0sXw4MHixJPrp3l6zvwckHY4wxxqohTkAYqw7atwcMDIApU4A//gDs7XUdEWOMadXFixcxYsQINGjQAIaGhrC0tES3bt2wceNGkPRhGxrq2bMnHBwckJubq7LNnj17IAgCBEHAli1bShxP2u7Bgwcq28ydOxeCICA4OFhlm6ioKLz33nto2rQpzMzMYGRkBGdnZ4wYMQL79+9HUVFRabtWqV68eIEpU6bAyckJYrEYTk5O+PTTT/Hy5csyjXf06FH07t0blpaWMDExQcuWLbFkyRLk5+er7PPw4UN88MEHaNSoEcRiMRo0aIDg4GDExcWp7FNYWIhVq1ahbdu2qFOnDiwsLNC9e3eEhYWVGF9UVBT8/f1hY2MDIyMjNG3aFDNnzsSrV68U2hIR2rRpg5YtW1a541alEat20tLSCAClpaVV6nZ/GhdKq9//k34aF1qp2621srLkf46N1U0cjNUA2dnZFBMTQ9nZ2boOhSkRGhpK+vr6BIC8vb1pxIgR5OvrSwYGBgSARo8erfGY4eHhBIBCQkJKbDdw4EACQACod+/eJbaVtouLi1PZZs6cOQSAgoKCFOry8vLo3XfflY3j7u5OgwcPphEjRlD79u1JT0+PAFDPnj3V2cVKkZycTK6urgSAXFxcaMSIEeTp6UkAqGnTppSamqrReIsWLSIApKenR506dSJ/f3+ys7MjANSrVy/Ky8tT6HPjxg2ysbEhAOTs7EwBAQHk5eVFAMjc3JyuXr2q0KegoEB2bE1NTcnPz4969epFJiYmBIDmzJmjNL5t27bJfRaHDBlCjRo1IgDUqlUrpedeYWFhBIDWr1+v0XtRFpr8LdPV+aI6OAGphjgBqQX27iWqV4/o5k1dR8JYjcAJSNWVn58vOwHdvn27XF1MTAxZW1sTADpx4oRG47Zq1YpsbW0pNzdXZZtnz56RgYEBmZiYkLm5Oenp6VFSUpLK9uVNQEaNGiU7cY+MjFSoT0pKovfff58aN25c4r5VpjFjxhAACggIoPz8fFn5xx9/rHI/Vblw4QIJgkCGhoZ07NgxWXlaWhr5+voSAPruu+/k+hQVFVHLli0JAI0fP14uhh9++IEAUPPmzamgoECu37Jly2QJy927d2Xlt27dogYNGhAAOnv2rFyfxMREMjIyUkgmcnNzKTAwkADQxIkTFfarqKiIPDw8qGHDhnLxVQROQJjOcAJSgxUUEH35JZFkdQ+iCRN0HRFjNQInIFXXjRs3ZFcDlPnkk08IAC1evFjtMc+cOUMAaPLkySW2k57AjhkzhsaPH08AaOnSpSrblycB2bNnDwEge3t7evLkSanxVwWPHj0iPT09EolECjHn5OSQra0t6evr09OnT9UaT3r1Z4KSf9tiY2NJEASysbGRSyZOnz5NAMja2poyMjIU+nXu3JkA0IEDB+TKmzRpojSpJSL6+eefCQANHjxYrnz+/Pkqr4SlpqaSmZkZGRgYUEpKikK9tO++fftUvwFaUFMSEL4HhLGqIjUV6N8fWLxY8vPnn0ses8sYYxXg+PHjEAQBXbp0KbHd9u3bIQgCxowZUyFxiMVitdrVrVtX7TF/+eUXAEBgYGCJ7bZt2wYAGDt2LMaOHQsA2Lp1q9rb0cSyZcsASO4RsS/lPr7SjkllOXbsGIqKitCtWzeFmMViMd566y0UFhbiyJEjao13+fJlAECPHj0U6po2bYoGDRogJSUFkZGRCn3atm0LU1NThX6+vr4AgIMHD8rK0tLScO/ePZXbkvb57bff5O4PKik+a2trtGrVCgUFBTh8+LBC/ejRowEA69atU6hjijgBYawquHoVaNcOOH4cMDEBdu4Eli6V3HjOGGMVYM2/X3C89957JbYLCAiAubk5QkNDkZycrPU4XFxc0KRJE8TGxmLHjh1ydbdu3cK2bdtgZWWFIUOGqD3m4cOHYWxsjA4lPC3wzp07uHDhAuzt7dG7d2/06NEDDg4OuH79Om7cuFHm/VEmJSUFFy5cgCAIGDVqlFbHrkjXrl0DAHh7eyutl5Zfv35drfGkN3FbWVkprZcmmdLtlrePqn7SPtnZ2bhz5065tiXl4uICR0dHnDhxAtnZ2Ur7s/9wAsKYrl26BHTuDDx4ALi4AOfOAdXoHyjGWPWTnp6Oo0ePQl9fH/7+/iW2NTY2hp+fH/Ly8hSeHrRp0ybZk6HUfRX/dllfXx+bN2+GpaUlxowZg7Zt22LUqFHo2bMnWrVqBQcHB/z555+wtrZWa99u376N5ORktGnTBgYlfIkjvdIxatQo6OvrQxAE2bfY2r4KcvXqVQCSk1RLS0utjfvgwQON339BENQePyEhAQDg4OCgtF5aHh8fr9Z4tra2KtsTkaz89fqS+gCQPQXr9Xpra2vo6+ur7Pf6k7PKu63XdejQAXl5eYiKilJaz/7DX68ypmteXpI1PYyNge3bATX/kWWMsbKKiIhAXl4e2rVrp9aJva+vL0JDQ3Hs2DG8//77snJXV1cEBQVptG0PDw+Fsi5duuDUqVMYMmQIoqOjER0dDQAQiUTo3bs3XFxc1B5f+m28u7u7yjZEhO3btwOAbOqV9P+XLFmCHTt2YNGiRdDT0873tKmpqQD+O8HVFlNTU43ff01kZmYCAExMTJTW16lTBwCQkZGh1njdu3fH2bNnsXnzZnzwwQdydfv27UNaWprCeN27dwcgeUxzTEwMmjdvLqvLysrCnj17FPoYGRmhffv2iIqKwqZNm7Bo0SK5bW3YsEH2/8W3tWPHDuzcuRPz5s2DSCSS1V26dEl2ZUzV/ko/21evXpVN82LKcQLCmC6kpAAWFoChoeR18CBgagr8+40NY6xy7fnuIrLS83QdhtpMzEUY8VX7MveXnuB7eXnJlefm5uLixYuwt7eHm5ubrLxVq1Zy/aS6du2Krl27ljkOqZ07d2LcuHF44403sHPnTnh6euLRo0dYtmwZli9fjoiICJw9e1at+0WePXsGQPU0GgCIjIxEXFwcPDw80K5dO1l5y5Yt4eXlhWvXruHEiRPo1atXufetItnY2GDTpk26DkNtkyZNQkhICKKiovDOO+9g1qxZsLW1xfHjx/Hhhx/CwMAABQUFcomfu7s7hgwZgv3792PQoEH4+eef0b59e9y/fx+ffvqpLLkrnixOnz4dgwcPxvLly2FjY4OxY8eiqKgIGzduxNq1a5Vua8yYMViwYAESEhIwaNAgLFu2DE5OTjh37hwmTJigtM/rpMl8RUxVrGl4ChZjle3SJcDbG/jf//4rs7Dg5IMxHcpKz8Orl7nV5lXeZOnJkycAoHBjcUJCArp164ZvvvlGrtzOzk6unzb9888/CAoKgo2NDcLDw9GhQwfUqVMHbm5u+OmnnzBw4EBER0fLfWtdEum36GZmZirbSKdYvX71Q0paJr1BXVP076KJr091kt47UN1OTKU3fWdlZSmtl94zUdJ7/TpHR0eEhYXB0tISW7duRdOmTWFlZYWRI0eiSZMmGD9+PADF5HH9+vXo3r077t27hzfffBPm5uZo3bo1Ll++jCVLlijt4+/vj8WLF4OIMG3aNNSvXx8NGzbE119/jXfffRdt2rRR6Gdqaorw8HA4ODjgt99+Q8uWLWFubo4+ffpAJBLhf//+u60quTU3NweAMi/QWJvwFRDGKtOmTcAHHwC5ucBvvwHp6cC/f7AYY7pjYi4qvVEVUt54Vd0HIJ1aIp16U7x98W9+z5w5I3vilLo8PDwwffp02c+7du1Cfn4++vbtq/QpRyNGjEB4eDj++usvfPjhh6WOb2FhIbcvxeXm5sqm7ezatQtHjx6Vq5f227dvH9asWSM3/cjExARZWVkqT8iB/07WpdOTgP+uNN2/fx8vX77U2n0gKSkp+PzzzzXup+5Vk0aNGgGQrEKujLTcyclJ7W336tUL9+/fx65du/D3339DX18fnTt3xtChQzFu3DgAgKenp1wfKysrnDx5EkePHsXJkyeRlpaGJk2aYMyYMbh165bSPgDwxRdfYMiQIQgNDcWDBw9gYWGBAQMGwMfHR3b/SvF+Xl5eiI2NxZ49exAdHY3CwkJ4e3tj1KhRWLhwocptAf8lv9q8z6em4gSEscqQlwdMnQqEhEh+fustYOtWTj4YqyLKM52pOrKxsQGg+I289IQyKSlJrlzarvijcO/evYvNmzdrtG0fHx+5BES6TWniUJy0/MWLF2qNL71a8/z5c6X14eHhsm+o//77b5XjZGZm4sCBA7Ib0wHJTdd37tzB/fv35e5FeN39+/dlbaVsbW3RoUMHXLhwAbt27VK4/6GsMjMzNX7/AfUTEGniVHzqnZS0XDpFT11WVlZKk8lz585BT09Pdt/H6wRBQP/+/dG/f3+58vXr1wNQ/uhcAHBzc8OMGTPkyhISEpCUlARXV1c0bNhQoY+JiQmCg4MRHBwsV3727NkStyX9jGr7Xp+aiKdgMVbRnjwB3nzzv+Rj7lzgwAHJtCvGGNOBFi1aAPhv3QOpixcvAgBu3ryJnJwcWbm0XfFvfoODg0GSRY3Vfp08eVJujHr16gGQ3OSrjDQmZ2dntfZNetIcGxurtF46tWr16tUqY5SeoBd/Gpb0xFjZOhCAZErSiRMnAADdunWTq5NeqZg7d67sPhVVpCe6pXF2dtb4/ZdOEVNH3759oaenh9OnTyvEnJubi0OHDkFfX18hKSiLw4cP4/79++jbty8cHR3V6pOVlYX169dDJBJpdDP+qlWrAAATJ05Uu8/169dx6tQpeHp6qlynRXo1pnXr1mqPW2tV8EKHrALwSujVSEEBkYeHZFVzc3OiX3/VdUSM1Uq8Erq81NRUMjIyIgB04sQJIiLKyMggR0dHGjhwIAGgn376iYiIsrKyyNPTkwBQSEiI1mO5fPmybIXxNWvWyNWdO3eO6tSpQwDo999/V3tMOzs7MjY2pvz8fLny1NRUEolEpa7enZaWRkZGRqSvry+3AviVK1dIX1+fDA0N6ddif8+zs7Np7NixBIDatWundNxRo0bJVn0/e/asQv3jx4/po48+osaNG6u9rxVtzJgxBICGDh0q935KV6gvvuI7EdH06dPJ3d2dVq1apVB36dIlKioqkiuLjIwkW1tbMjIyotu3byv0iY2NVTjnSU1NlX1W586dq9AnMzOTYmJiFMrXrl1L+vr65O7uTjk5OQr1V65cUfjcxMTEkKurKwmCIPt9UcbBwYFEIhFlZWWpbFNeNWUldE5AqiFOQKqZ/fuJPD2JYmN1HQljtRYnIIrmz59PAMjY2JgCAgLI3d2dBEGgyMhI6tKlC4lEIgoICKCmTZvKTpor6sTq888/lyUhnp6eNHz4cOrSpQvp6ekRAJo4caJG4wUHBxMAOnPmjFz5mjVrCAD5+fmVOkZAQAABoBUrVsiVr169WhZXmzZtKDAwkAYPHkx2dnYEgBwcHChWxd/7vLw8Gj9+vGxfPTw8KCAggEaOHEkdO3YkfX19AkC9e/fWaH8rUnJyMjVp0oQAUJMmTWjkyJHUokULAkBubm6Umpqq0CcoKIgA0Jw5cxTqnJycyMHBgfr27UuBgYHUrl07EgSBjI2NKTw8XGkMc+bMISMjI+rWrRuNGjWK+vXrR6ampgSAgoODqbCwUKFPXFyc7PM0ePBgGj58OLm4uBAAcnZ2pvv37yvdlo+PD9na2lKvXr0oMDCQunbtSvr6+mRgYEA///yzyvfp7t27BID69u2rso02cALCdIYTkCouJ4fo77/ly/LydBMLY4yIOAFRZeXKleTu7k5isZjc3Nxoy5YtREQUHx9PAwYMIHNzc7KysqLRo0dTUlJShcYSFhZGfn5+VLduXTIwMCArKyvy9fWlHTt2aDxWZGQkAaBJkybJlXfq1IkA0MaNG0sdY+/evQSAvL29FeqioqJo1KhRsm+8TU1NycvLi2bOnEkpKSmljn327FkaP348ubq6komJCYnFYnJycqIRI0bQwYMHFa4Q6Fpqaip9/PHH5OjoSCKRiBwdHemTTz6hFy9eKG1fUgKycOFC6tixI1lbW5NIJCInJyeaOHEi3bt3T+X2T506Rf7+/rL329ramvz8/CgsLExln7S0NPrggw+oefPmZGZmRiYmJuTp6Ulz5syhjIwMlf3WrVsnS0IMDQ2pQYMGNHr0aLpy5YrKPkRE8+bNIwC0b9++EtuVV01JQAQiDSYDsiohPT0dFhYWSEtLkz3yrTL8PH4f8kVWMMx7gYkbhlbadquVpCRg6FDg/n3J43b/fYIIY0y3cnJyEBcXh8aNG8PIyEjX4bBK0KZNGzx8+BAPHz5Ua/0QxsqKiNCsWTNkZmbiwYMHMDCouGc8afK3TFfni+rgm9AZ05bTp4G2bYHz54GCAiA+XtcRMcZYrfXtt98iJSUF69at03UorIY7cOAAYmNjMW/evApNPmoSTkAYKy8iyROuevYEnj4FWrWSXP0o9gQUxhhjlad///7w9fXFokWLkJubq+twWA1FRJg3bx5atGih8NhephqnaYyVR3Y28OGHgPQ57KNGAb/8Ary2ABVjjDHdkD4Sl7GKIggCrly5ouswqh2+AsJYeSxeLEk+9PSAZcuAHTs4+WCMMcYYKwFfAWGsPL74AoiMBKZPlyw2yBhjjDHGSsRXQBjTBBGwfz9QVCT52cQE+P13Tj4YY4wxxtTECQhj6srKAsaMAQICgG+/1XU0jDHGGGPVEk/BYkwd9+8DQ4YA168DBgaAlZWuI2KMMcYYq5Y4AWGsNMePS55u9eIFYGcH7N0LdO+u66gYY4wxxqolnoLFmCpEwKJFQN++kuSjQwfg8mVOPhhjjDHGyoETEMZUuXMHmDNHkoi89x7w11+Ag4Ouo2KMMcYYq9Z4ChZjqri7A2vXAvn5wMSJuo6GMcYYY6xG4ASEsdcdPgw0aAC0aSP5edw43cbDGGOMMVbD8BQsxgDJuh7z5gFvvSV52lVqqq4jYowxxhirkTgBYSwtTZJ0SO/3GDAAMDPTdVSMMVar3Lp1C2PGjEH9+vUhFovh7OyMyZMnIyUlpcxjzps3D3p6erhx44bKNo8fP4aBgQEEQcD48eNLHK9Hjx4QBAGbNm1S2ebkyZMQBAHOzs4q2yQkJODLL7+Et7c3rK2tIRKJYG9vDz8/P6xZswaZmZml7VqlKiwsxIoVK9CyZUsYGxvD1tYWI0aMwK1bt8o0XlmOdVZWFhYsWABPT08YGxujbt266NevH06ePFnito4ePYrevXvD0tISJiYmaNmyJZYsWYL8/HyVfe7cuYNx48bByckJIpEIZmZmaN++PVasWIG8vDy5tkSENm3aoGXLliiSLlLMSkes2klLSyMAlJaWVqnb/WlcKK1+/0/6aVxopW63QsXEELm7EwFEYjHRhg26jogxVgGys7MpJiaGsrOzdR0KU+LPP/8kExMTAkAeHh4UEBBATZs2JQDk4OBAiYmJGo/55MkTMjU1peHDh5fYbtmyZQSAAJC5uXmJnxEfHx8CQBs3blTZJiIiggCQk5OT0vo1a9aQWCwmAGRnZ0cDBgygwMBA8vX1JWNjYwJA9vb2lJycrM5uVrjCwkIaMmQIASBLS0saOnQo+fj4kCAIZGJiQufPn9dovLIc64yMDGrXrh0BIGtraxo4cCB169aNDA0NSRAEWr9+vdJtLVq0iACQnp4ederUifz9/cnOzo4AUK9evSgvL0+hT2RkpCy+Zs2a0fDhw8nPz092bHx8fCg/P1+uT1hYGAFQGYc2afK3TFfni+rgBKQa4gRES8LCiExNJcmHgwPRhQu6jogxVkE4Aam6Xr16Rfb29gSAZs+eLSsvKiqizz//nACQn5+fxuN+8sknBICio6NLbOfl5UUAqH79+gSAdu3apbJteROQtWvXEgAyNTWlzZs3U1FRkVz9q1evaMmSJWRmZkZxcXElxl1Z1q1bRwDIzc2Nnjx5IisPDQ0lAOTq6qpwQq5KWY/15MmTCQC1bduWnj17JiuPjIwkU1NTEolE9ODBA7k+Fy5cIEEQyNDQkI4dOyYrT0tLI19fXwJA3333ncK22rRpQwBo4cKFcuVJSUnk4uJCAGhDsS8ri4qKyMPDgxo2bKj2e1FWnIAwneEERAuKioj695ckHz4+RE+f6joixlgF4gSk6tq6dSsBIHd3dyosLJSry8vLI2dnZwJAV69eVXvMV69ekYWFBbVo0aLEdjdu3CAA5OjoSJs2bSIANGDAAJXty5OAJCQkkJGREQmCQCdOnCgxrpiYGHr+/HmJbSpLs2bNCADt379foW7QoEEEgEJD1TsvKMuxzs3NlV2RiIyMVBjzq6++IgD06aefypW/++67BIAmTJig0Cc2NpYEQSAbGxsqKCiQlWdkZBAAMjExUYiPiOj7778nAPThhx8q1M2fP58A0L59+0p/I8qhpiQgfA8Iq50EAdi2TXLj+e+/S1Y4Z4yxWuT48eMQBAFdunQpsd327dshCALGjBlTIXFcvnwZANC9e3fo6cmflhgaGsriO3jwoNpj7t27F2lpaQgMDCyx3datWwEAo0ePxtChQ2FiYoLffvsNycnJmuyCWlavXo2cnByMGDECvr6+JbZt1qwZrKystB6DpuLi4nDr1i0YGxtjwIABCvXDhg0DABw6dEit8cpyrG/duoWsrCyIxWJ06tRJYUzpe1n88yHdVo8ePRT6NG3aFA0aNEBKSgoiIyPlYigelzJ169ZVKBs9ejQAYN26daX2Z3wTOqtNbtwAZs+W3GgOAFZWwKxZgKGhbuNijDEdWLNmDQDgvffeK7FdQEAAzM3NERoaWiEn5q9evQIAlSfc0pO9a9euqT1meHg4AOUnn1JFRUXYvn07AGDs2LEwNTXF4MGDUVBQgF27dqm9LXUdPnwYwH8nqtWB9D1v0aIFDJX8W+nt7Q0AuH79ulrjleVYS/tYWFhAEASVfeLi4pCenl6ubYnFYnTv3h1ZWVlYsmSJXPtHjx4hJCQEhoaGePvttxXGc3FxgaOjI06cOIHs7Gyl22T/4QSE1Q579gBvvAHMnw9s3qzraBhjTKfS09Nx9OhR6Ovrw9/fv8S2xsbG8PPzQ15eHsLCwuTqNm3aBEEQNHoVTwpsbW0BAPHx8Uq3HxcXV2K9MqdPn4aBgQHaSNd0UiIiIgJJSUnw8vJCixYtAEgSEeC/KyPakpeXh5iYGAD/nbRri7Ozs8bHoLQnR0klJCQAABwcHJTWS8vVPTZlOdbSPsnJyUpP7KV9Xo+3tG0Rkay8eP3atWvh6OiIGTNmoHnz5hgxYgT69u0LV1dXEBEOHz6Mpk2bKo2/Q4cOyMvLQ1RUlNJ69h9eiJDVbAUFwMyZgPSbjF69gIEDdRsTY6zKiRs6DAXleNxrZTOwsUHjfaFl7h8REYG8vDy0a9cO1tbWpbb39fVFaGgojh07hvfff19W7urqiqCgII227eHhIfdz9+7d8d133+Hw4cNISUmBjY2NrC4pKQm///47ACAjI0Ot8Z89e4anT5+icePGMDY2VtlOmmRIkw4A6N27N+zs7HDx4kXExsbC3d1d7f0qyYsXL0D/Xn2Xnhhry7BhwzR+VHG9evXUaid9HLCJiYnS+jp16gBQ/9iU5Vi7urqifv36ePz4MTZv3owPPvhAbswNGzbI/v/1ft27d8fZs2eV9tm3bx/S0tKUxu7u7o4zZ85gyJAhiI6Olj1qWBAE+Pr6wtPTU+X+ST/bV69eLXWaXW3HCQiruVJTgVGjgD/+kPz8xRfAt98CBvyxZ4zJK0hJQcHTp7oOo9JER0cDALy8vOTKc3NzcfHiRdjb28PNzU1W3qpVK7l+Ul27dkXXrl3LFYufnx+8vb0RHR2Nfv36ISQkBM2bN8eNGzfw/vvvo6CgAADUmpsPSBIQQPXUGwDIzs5GWFgY9PT05KZEGRgYIDAwECtXrsTWrVuxYMGCcuxZ5Vi2bJmuQ1BbWY61IAiYPn06pkyZgmnTpkEsFsPf3x/p6elYsWIFDh8+DAMDAxQUFMj1mzRpEkJCQhAVFYV33nkHs2bNgq2tLY4fP44PP/xQaR8AOHHiBIYOHSqbTtWuXTukpqZi/fr1+O677/Dnn3/iwoULShNJaTJfEVMVaxo+E2M109WrksUFHzwATEyAjRuBESN0HRVjrIoyeO2b2OqgvPE+efIEAGBvby9XnpCQgG7dumHMmDHYtm2brNzu3wd1SPtpkyAICAsLw4ABA3Dp0iV07NhRVmdvb4+5c+fi66+/VvumbOk322YlLCh74MABZGRkoFevXmjQoIFc3dixY7Fy5Ups374d8+fPl7vvQNk9CMVJr3S83tbKygqCIICIkJycrHJKU1VjamoKQLIIoDLS+yxKeq9fV9Zj/fHHH+Pu3btYtWqV3GKRgiBgwYIFWLlyJZKTk+X6OTo6IiwsDMOHD8fWrVvlptW1b98ebdq0wc8//yzX5/nz5xg+fDjy8/Nx9OhRNGzYULZ/8+fPR1paGlatWoVly5Zh8eLFCvtnbm4OAHj58qVa70dtxgkIq5mePQMSEoAmTYD9+4GWLXUdEWOsCivPdKbqSNWJtHQ6SvGVuKXti39bfObMGfzyyy8abdvDwwPTp0+XK3NycsLVq1exf/9+nD17FtnZ2fD09MSYMWNk952UNPXldRYWFnL7ooz0ZDQ2NlbpFRxBEPDgwQOcOXMG3bp1k5VLpyKpOiF/vU46PQkARCIRmjdvjps3byI6OlqrCcjnn3+u8RSs6dOnK0yFU6ZRo0YAgIcPHyqtl5Y7OTmpve2yHGtBEPDDDz9g/PjxOHjwIJKSkmBnZ4ehQ4eiefPmmDNnDoyNjeHi4iLXr1evXrh//z527dqFv//+G/r6+ujcuTOGDh2KcePGKWzr8OHDeP78Od58801Z8vG64cOHY9WqVfjrr7+U7ps0+bW0tFT7/aitOAFhNZOfH7B7N/Dmm5KnXTHGGJORzr0vPlVEekKZlJQkVy5tV/zxo3fv3sVmDR/s4ePjo5CAAJLpT8OHD8fw4cPlys+ePQug5CdavU56teb58+dK6589eya71yAxMRGJiYkqx9q6datcAiJNHO7fv6+yj7SueJIxYMAA3Lx5Ezt27MCgQYPU2BP1hIaGanSDPgAEBwerlYBIp+j9/fffyM/PV3gSlnRKnnSKnrrKeqxbt26N1q1by5X99ddfKCwsRJcuXWCgZIq1lZUVPvzwQ4Xyc+fOQU9PD927d5eVST//0iS2OGn5ixcvlNZLy7V9n09NxE/BYjXDs2eSKVd37/5XNmwYJx+MMaaE9KlP0rUSpC5evAgAuHnzJnJycmTl0nbFv5kODg4GSRY1Vvul7hOYAMmUr9DQUNStWxcBAQFq9bGzs0O9evWQmJio9ErFzp07UVBQgGHDhqmMUfpkpb179yI3N1fWV3qyeuTIEdlUq+J+/fVXAJBLXABg8uTJEIvF2LNnDyIiIkrch9u3b6s8yS3uwYMHGh8DdZO5xo0bo1mzZsjOzpY9Rvh1oaGSK4dvvfWWWuOVpCzHGgBWrVoFAJg4caLafQ4fPoz79++jb9++cHR0lJVLb86/cuUKCgsLFfpJfz+cnZ2Vjiu9Yb14ksSUqNh1DllF4JXQi7lwgcjBQbKqeefOklXOGWPsNbwSurzU1FQyMjIiALJVuTMyMsjR0ZEGDhxIAOinn34iIqKsrCzy9PQkABQSElIh8dy4cUPh2CQmJlKHDh0IAG3atEmj8YYPH04A6MyZMwp1bdu2VWvF6k6dOims8p2dnU0NGzYkADRz5ky5VbSJiEJCQggAmZqa0uPHjxXG/PHHH2X1W7ZsoaJi/15lZWXRihUryNzcnOLi4jTY44qzbt06AkBubm709OlTWfm+ffsIALm6ulJ+fr5cn7CwMHJ3d6e3335bYbyyHOunT59SfHy8XFl+fj7Nnj2bAJCvr6/S2C9duqTwHkdGRpKtrS0ZGRnR7du35eoePXpEYrGYANCMGTPkVkO/ffs2NWjQgADQunXrlG7PwcGBRCIRZWVlKa3XhpqyEjonINUQJyCv2bCBSCyWJB/u7kQxMbqOiDFWBXEComj+/PkEgIyNjSkgIIDc3d1JEASKjIykLl26kEgkooCAAGratCkBIHd39wo7sQoKCiJzc3Pq0aMHBQYG0ptvvik7EZw1a5bG423atIkA0IIFC+TKY2JiCACZm5uX+ln44YcfCAD5+/vLlUdGRpKlpSUBoEaNGtGwYcNo5MiR5O7uTgBILBZTWFiYynFDQkJk+2Zvb08DBw6k0aNHU8+ePcnExIQAUIMGDSg5OVnj/a4IhYWFNGTIEAJAVlZWNGzYMOrRowcJgkDGxsYUFRWl0Gfjxo0EgHx8fBTqynKsIyIiSBAE8vb2pqFDh1JAQADVr1+fAFCbNm0oNTVVaT8nJydycHCgvn37UmBgILVr104Wd3h4uNI+q1atIkEQCAC5uLjQ0KFDqUePHrIY+/fvr5BwERHdvXuXAFDfvn1LeDfLjxMQpjOcgBBRbi7RpEmSxAMg8vcnqoK/YIyxqoETEOVWrlxJ7u7uJBaLyc3NjbZs2UJERPHx8TRgwAAyNzcnKysrGj16NCUlJVVYHPv376c+ffpQvXr1yNDQkOzs7Mjf358iIiLKNF5WVhZZWFhQ8+bN5cpnzJhBACgoKKjUMZ48eUL6+vpkaGhIKSkpcnUJCQk0ZcoU8vDwIGNjYxKLxeTi4kLvvvsuxajxRVh8fDxNmzaNvLy8yMLCggwMDMjOzo78/Pzoxx9/pMzMTI32t6IVFBTQ8uXLydPTk4yMjKhu3bo0bNgwunnzptL2JSUgZTnWCQkJFBwcTG5ubmRiYkKmpqbUtm1bWr58OeXm5qrst3DhQurYsSNZW1uTSCQiJycnmjhxIt27d6/E/Y2IiKDBgwdTvXr1yMDAgMzNzemNN96gkJAQhateUvPmzVPrylp51ZQERCBSMYmRVVnp6emwsLBAWlqa7JFvleHn8fuQL7KCYd4LTNwwtNK2qyA1FfD3ByIjAUEAvvlGstigms+IZ4zVPjk5OYiLi0Pjxo1hZGSk63BYJfjss8/wf//3f7h06RLatm2r63BYDUZEaNasGTIzM/HgwQOlN8NriyZ/y3R1vqgOPmNj1Y+pKVBYCFhYAIcOAbNmcfLBGGNMzowZM2BqaoqFCxfqOhRWwx04cACxsbGYN29ehSYfNQmftbHqgQgoKpL8v1gM7NsHXLwIDBig27gYY4xVSXZ2dpg2bRrCwsJw48YNXYfDaigiwrx589CiRQsEBwfrOpxqgxMQVvXl5AATJgBfffVfWYMGgJub7mJijDFW5c2ePRtFRUVoyYvRsgoiCAKuXLmCGzduKCzUyVTj60Ssanv4EBg6FLhwQTLNavx4oGlTXUfFGGOMMcbKiFM1VnX99RfQtq0k+bCyAo4c4eSDMcYYY6ya4wSEVT1EwKpVwJtvSlY4b9UKuHQJ6NNH15ExxhhjjLFy4gSEVT2TJgGffAIUFACBgcDZs4CLi66jYowxxhhjWsAJCKt6uncH9PWB778Htm8H6tTRdUSMMcYYY0xL+CZ0VjVkZQEmJpL/DwwEOnQAmjTRbUyMMcYYY0zr+AoI0y0iYPlywMMDePLkv3JOPhhjjDHGaiROQJjuvHoFjB4NfP45kJgIbNmi64gYY4wxxlgF4ylYTDfu3QOGDAFu3AAMDICVK4EPP9R1VIwxxhhjrIJxAsIq37Fjkvs8Xr4E7O2BvXuBbt10HRVjjDHGGKsEPAWLVa79+4H+/SXJR8eOwOXLnHwwxlgtd/nyZSxatAgBAQFwcHCAIAgQBEGtvps2bUKHDh1gamoKa2tr9O/fH2fPni1zLFu2bIEgCDh8+LDKNrm5ubCysoIgCOjZs2eJ4wUHB0MQBMydO1dlmwcPHpS6z6mpqZg3bx46deoEW1tbGBoawsbGBj4+PliyZAmSk5NL3bfKps1j8/DhQ3zwwQdo1KgRxGIxGjRogODgYMTFxansU1hYiFWrVqFt27aoU6cOLCws0L17d4SFhZW4raioKPj7+8PGxgZGRkZo2rQpZs6ciVevXqns8+jRI0yePBmurq4Qi8UwMTFBq1atMGfOHGRkZCi0Hzx4MOzt7ZGZman+m1CTEKt20tLSCAClpaVV6nZ/GhdKq9//k34aF1r2QdLTiZo1I5o4kSgnR3vBMcZYCbKzsykmJoays7N1HQpTwt/fnwAovEozZcoUAkDGxsbk7+9Pffr0IQMDA9LX16f9+/drHEd2djY5OjpS+/btS2wXGhoqi1FPT48SExNVtg0KCiIANGfOHJVt4uLiStzn/fv3k7m5OQEgS0tL6tOnDwUGBpKfn5+s3NzcnP7++2+19rMyaPPY3Lhxg2xsbAgAOTs7U0BAAHl5ecn2++rVqwp9CgoKaODAgQSATE1Nyc/Pj3r16kUmJiYlHo9t27aRvr4+ASBvb28aMmQINWrUiABQq1atlJ573blzh2xtbeXi69+/P1laWhIAat68Ob18+VKuz+XLlwkAzZo1S6P3QpO/Zbo6X1QHJyDVULVLQB4+JCoq+u/nYr+EjDFW0TgBqdoWLVpEs2bNol9//ZUeP35MYrG41ATk999/JwBUt25dunPnjqz87NmzJBKJyNLSkl68eKFRHN9//z0BoLCwsBLbSROm+vXrEwBatGiRyrblTUCOHDlCenp6ZGBgQMuXL6e8vDy5+tzcXFq/fj3Z29tTREREiXFXFm0em6KiImrZsiUBoPHjx1N+fr6s7ocffpCd4BcUFMj1W7ZsmSwhuHv3rqz81q1b1KBBAwJAZ8+eleuTmJhIRkZGBIDWr18vK8/NzaXAwEACQBMnTlSIcciQIQSAJk2aJBfHy5cv6Y033iAANHv2bIV+ffr0IRMTE0pJSVHrvSDiBITpULVKQH79lcjcnGjZsooLjDHGSsEJSPWiTgLSr18/AkArVqxQqPvkk08IAC3T8N8eNzc3sra2VjjJf11qaioZGhqSsbExhYeHEwDy9PRU2b48CUhmZqbsm/VNmzaVGPvDhw8pLi6uxDaVRZvH5vTp0wSArK2tKSMjQ6G+c+fOBIAOHDggV96kSRMCQNu3b1fo8/PPPxMAGjx4sFz5/PnzCQD17t1boU9qaiqZmZmRgYGBQsJQt25dAkCPHz9W6BcWFkYAqF+/fgp1W7duJQC0fPly5TuvRE1JQPgeEFYxioqAb74BBg0C0tOBQ4eAwkJdR8UYY+xfx48fhyAI6NKlS4nttm/fDkEQMGbMmEqKrHTZ2dk4ceIEAGDYsGEK9dKyQ4cOqT3mqVOn8M8//2Do0KEwNDRU2W737t3Iz8/HoEGD0L9/fzg7O+PmzZu4cuWKhntRui1btiA5ORkdO3ZEUFBQiW0bNmwIZ2dnrcegKW0fm8uXLwMA2rZtC1NTU4V6X19fAMDBgwdlZWlpabh37x4AoEePHir7/Pbbb8jNzVXYlrI+1tbWaNWqFQoKChTuDxKLxaXuR926dRXKBg8eDGNjY6xbt67U/jUNJyBM+9LSgMGDAekNdx99BBw/Dujr6zIqxhhjr1mzZg0A4L333iuxXUBAAMzNzREaGlplbnSOjY1Fbm4ubG1t4eDgoFDv7e0NALh+/braY4aHhwNQfvL5uq1btwIAxo4dC0EQMHr0aADAtm3b1N6WuqQnutJtVAfaPjbSG7+trKyU1ktP7K9du6bQR1U/aZ/s7GzcuXOnXNsCAD8/PwDA/PnzUfjal61paWlYsmQJAGD8+PEK45mamqJdu3a4ffs27t+/r3SbNRUnIEy7YmKADh0kVzzEYmDjRmD1akAk0nVkjDHG/pWeno6jR49CX18f/v7+JbY1NjaGn58f8vLyFJ4etGnTJtnTm9R9lXaCr46EhAQAUHqCCwB16tSBpaUlXrx4ofQJRMqcPn0aANC+fXuVbe7evYtz587BxsYGffv2BSBJRABgx44dcief2nD16lUA/520a0uPHj00Pm6bNm1Sa2xtHxtbW1sAQHx8vNJ66VOwXq+3traG/r9feirr9/qTs16vL8u2AGDhwoVo2bIl1qxZA1dXVwwbNgwDBw6Es7MzHjx4gG3btsmuuhTXoUMHAJIrcLUJrwNSguzsbCxcuBC7du1CQkICrK2t0bdvX8yfPx8NGzbUaKwXL15g7ty5OHDgAJ48eYJ69ephyJAhmDt3LiwtLStmBypbWhrQtSvw4gXg6AiEhQHt2uk6KsYYY8VEREQgLy8P7dq1g7W1dantfX19ERoaimPHjuH999+Xlbu6upY6Nag4Dw8PjeMtTvroUhMTE5Vt6tSpg5cvXyIjIwNmZmaljnn9+nXo6enB1dVVZRvpVY6RI0fCwEByCtWsWTN4e3sjOjoaf/zxB/r06aPJrpQoNTUVwH8nxtrSt29fjadrlfS+vE7bx6Z79+4AgIsXLyImJgbNmzeX1WVlZWHPnj0AIJfMGBkZoX379oiKisKmTZuwaNEiuTE3bNgg+//X+3Xv3h07duzAzp07MW/ePIhe+/L00qVLuHHjhkIfAKhXrx5OnjyJwMBAHD9+HA8ePJDVBQQEoG3btir3T/r7IE02awtOQFTIyclBz549ERUVhfr168Pf3x8PHjzAxo0bER4ejqioKLi4uKg1VkpKCjp16oS7d+/CxcUFgwcPxs2bN7Fy5UocPXoU586dU+sfgCrPwkJy30dYGLB7N2Bnp+uIGGNMPT/5AJnPdB2F+kztgPfL/o1pdHQ0AMDLy0uuPDc3FxcvXoS9vT3c3Nxk5a1atZLrJ9W1a1d07dq1zHFUFZmZmcjOzoa1tXWJa3Fs374dAPD222/Llb/99tuIjo7G1q1btZqAVJTp06frOgS1ubu7Y8iQIdi/fz8GDRqEn3/+Ge3bt8f9+/fx6aefypI0PT35ST3Tp0/H4MGDsXz5ctjY2GDs2LEoKirCxo0bsXbtWhgYGKCgoECu35gxY7BgwQIkJCRg0KBBWLZsGZycnHDu3DlMmDBBaR9AkrwOGDAA+vr6OHjwILp3745Xr14hNDQUM2bMwMmTJ3H27Fm4u7sr7J/0/K+qTG+sLDwFS4UFCxYgKioKnTp1wp07d7B7926cP38ey5cvR3JystK5fKp8+umnuHv3LgICAhAbG4vdu3fj77//xscff4w7d+5g6tSpFbgnFezFC+Du3f9+njwZ+P13Tj4YY9VL5jMg41H1eZUzWXry5AkAwN7eXq48ISEB3bp1wzfffCNXbvfv33RpP12T3oyclZWlso10Pr86Vz/S0tJKbXvu3DncvXsXbm5u6Nixo1xdYGAg9PX1ceDAAYXF6tRZUJGIlJZL7zmoTien2j42ALB+/Xp0794d9+7dw5tvvglzc3O0bt0aly9flt1jUfy+DX9/fyxevBhEhGnTpqF+/fpo2LAhvv76a7z77rto06aNQj9TU1OEh4fDwcEBv/32G1q2bAlzc3P06dMHIpEI//vf/xT65OfnY9iwYXj06BHCwsIwaNAgWFpaomHDhpgyZQoWLFiA58+fY/bs2Ur3zdzcHADw8uVLtd6LmoKvgCiRl5eH1atXAwBCQkLknrowdepUbN68GadOncLly5dLvKwGAI8fP8bOnTshEomwZs0a2SVbAFi6dCl27dqFbdu2YcmSJbI/8NXG9evAkCGSm8svXpRcAREEwIA/Voyxasa0mv39LWe8qk6KpVNLiq/OLG1f/JvfM2fO4JdfftFo2x4eHuX+Br5Ro0YAJKtjK/Pq1Su8fPkSVlZWap3kWlhYAFCcWvM66c3nL1++VHrVx9DQEK9evUJYWJjcFRLpVKSSTsildXXq1JErb926NZKSkhAdHa3VK02LFi3C7du3Nerz3nvvqRWDto8NIDnhP3nyJI4ePYqTJ08iLS0NTZo0wZgxY3Dr1i0AgKenp0K/L774AkOGDEFoaCgePHgACwsLDBgwAD4+PrJ7VIr38/LyQmxsLPbs2YPo6GgUFhbC29sbo0aNwsKFCxX6REVF4Z9//kGTJk2U3qszfPhw/O9//8Nff/2ldN+kyW+NmY6vJj5TVCIyMlL24ZZmyK8bNmwYrl+/jkOHDpWagBw7dgxFRUXo1q2bwjdNYrEYb731FjZs2IAjR44gODhYm7tRsXbvBsaPB7KyAGdn4MkTSQLCGGPVUTmmM1VHNjY2ABS/WZeeNCYlJcmVS9sVf5To3bt3sXnzZo227ePjU+4ExN3dHWKxGMnJyUhKSlK4L1M6VUw6daw0pqamMDY2xsuXL1FUVKSQaOXn58vuNUhOTi7xisTWrVvlEhDpiW5JTzmS1hW/cXvAgAE4fPgwdu7ciU8++UStfVHHsWPHNL7puUePHmolINo+NlKCIKB///7o37+/XPn69etl8Snj5uaGGTNmyJUlJCQgKSkJrq6uSu/pNTExQXBwsMJ52dmzZxW2Jf2dsVBxDiQtf/HihdJ6abm27/Op6ngKlhLSx6upeuqEJo+Q0+ZYVYFQVIiOF7cAo0ZJkg8/P+DSJUDJvEbGGGNVU4sWLQD8t+6B1MWLFwEAN2/eRE5Ojqxc2q74t8XBwcEgyaLGar9OnjxZ7viNjY3Rs2dPAMDevXsV6kNDQwEAb731ltpjenl5oaioCHdfn1b8ryNHjiA1NRXt2rVTuV+vXr1CnTp18Oeff+Lx48eyvtKbqCMiIpCdna1027/++isAoFu3bnLl77zzDmxtbREVFVVqovfo0SO5m59LcvLkSY2Pm7pfklbEsVElKysL69evh0gk0uhhCKtWrQIATJw4Ue0+169fx6lTp+Dp6Sm3dk69evUASB4/rOwKmvR3StVN/9IrOK1bt1Y7lhqh4tc6rH4+++wzAkCfffaZ0vqrV68SAPL29i51rCFDhhAAWrlypdL6AwcOEAAKCAhQOz5drWy5KXADJTT0JgIkr+nTiQoKKjUGxhgrC14JXV5qaioZGRkRADpx4gQREWVkZJCjoyMNHDiQANBPP/1ERERZWVnk6elJACgkJKRS4lNnJfTff/+dAFDdunXpzp07svKzZ8+SWCwmS0tLevHihdrbnDZtGgGgbdu2KdQNHTpUrRWrAwMDla7y3a5dOwJAwcHBlJOTI1d34MABMjAwIH19fbp69arCmIcPHyY9PT0yMDCg77//XmGV9vz8fNq8eTPVq1ePIiIi1NzbilWWY3P+/Hlyd3ennj17KowXGxurcM6Tmpoq+6zOnTtXoU9mZibFxMQolK9du5b09fXJ3d1d4VgQEV25coXy8/PlymJiYsjV1ZUEQZD9vkhlZ2eTnZ0dAaB33nlHbsykpCRq2bIlAaCZM2cqbIuIqGvXrgSA7t27p7S+uJqyEjonIEpMmDChxA/LP//8QwDIzc2t1LF69+5NAGjdunVK66W/pL1791Y5Rk5ODqWlpcleiYmJOvlA3WnSnQigPAMjor17K3XbjDFWHpyAKJo/fz4BIGNjYwoICCB3d3cSBIEiIyOpS5cuJBKJKCAggJo2bUoAyN3dnbKysioklvDwcOrYsaPsJQgCAZArCw8PV+g3ZcoUAkAmJibk7+9P/fr1k53M79+/X6MYTp48SQDovffekyt/8eIFicVi0tPTo4cPH5Y4xq+//koAyMvLS648NjaWHBwcCADZ2dnR4MGDKTAwkFq3bk0ASE9Pj1avXq1y3LCwMDIzMyMAZGlpSX379qXRo0dTnz59yNLSUlZ+8+ZNjfa5Iml6bCIiIggAOTk5KdTNmTOHjIyMqFu3bjRq1Cjq168fmZqaypK6wsJChT5xcXEEgDw9PWnw4ME0fPhwcnFxIQDk7OxM9+/fVxq3j48P2draUq9evSgwMJC6du1K+vr6ZGBgQD///LPSPvv37ycDAwMCQA0bNiR/f3/y8/OTHTNvb2/KyMhQ6JeRkUFGRkbk4eFR8pv5Gk5AarCqloDMmTOHACi8KvsDtXnUekps0Ib2DF5RqdtljLHy4gREuZUrV5K7uzuJxWJyc3OjLVu2EBFRfHw8DRgwgMzNzcnKyopGjx5NSUlJFRbHxo0blf479/pr48aNKvu2bduWTExMZCfnkZGRZYqjadOmZGVlRbm5ubKyn376iQCQj49Pqf1zc3PJysqKAND169fl6lJSUmjmzJnUqlUrqlOnDolEInJ0dKRRo0ZRVFRUqWMnJyfT3LlzqWPHjmRtbU0GBgZUt25d6t69Oy1dupRSU1M13t+KpsmxKSkBOXXqFPn7+5ODgwOJRCKytrYmPz8/CgsLU7nttLQ0+uCDD6h58+ZkZmZGJiYm5OnpSXPmzFGaDEitW7dOloQYGhpSgwYNaPTo0XTlypUS9zU6OppGjx5NDg4OZGhoSHXq1KHWrVvTd999pzJx37Jli1pX1l5XUxIQgUjFs99qsalTp2LFihX47LPP8P333yvUX7t2Da1bt4a3t7fC/NniAgICsH//fqxcuVLpDWQHDx7E4MGDERAQgH379ikdIzc3F7m5ubKf09PT4ejoiLS0NNnj2yrDL0GbUKRvBr3CDLy3ObjStssYY+WVk5ODuLg4NG7cGEZGRroOh1VRK1euxKefforQ0FAMHTpU1+GwGq5Pnz44c+YMEhISFB7woIomf8vS09NhYWFR6eeL6uCnYClR2iPkpOVOTk6VMpZYLIZYLC51WxWNkw7GGGM12fvvv4/vv/8eixYt4gSEVajo6GgcP34cs2bNUjv5qEn4KVhKSFeGLb7iq5Qmj5DT5liMMcYYqzhGRkaYP38+Ll26hPDwcF2Hw2qwefPmwc7ODl988YWuQ9EJnoKlRF5eHuzs7JCWloYrV64oPBrNy8sL169fx6VLl9RaiNDBwQEGBgZITEyUW2wwNzcXjo6OeP78OR49eqT2QoRV+ZIaY4xVRTwFizFWE9SUKVh8BUQJkUiEyZMnAwA++ugjvHr1Slb3/fff4/r16/Dx8ZFLPlavXg0PDw+FxW7q16+PwMBA5OXlYdKkSSgoKJDVffHFF0hOTsbYsWOr3yrojDHGGGOMlQHfA6LC119/jT/++ANnz56Fm5sbunXrhvj4eJw/fx62trbYsGGDXPuUlBTExsbKLT4k9X//93+IiorCvn374OHhgXbt2uHmzZv4+++/4ebmpvRGd8YYY4wxxmoivgKigpGRESIiIjBr1iyYmJjgwIEDiI+PR3BwMKKjo+Hi4qL2WDY2Nrhw4QI+/vhj5OXlYf/+/UhLS8Mnn3yCCxcuwNraugL3hDHGGGOMsaqD7wGphqrynD7GGKuK+B4QxlhNwPeAMMYYY9UMf+fGGKvOasrfME5AGGOM1Xj6+voAgPz8fB1HwhhjZSf9Gyb9m1ZdcQLCGGOsxjM0NIRYLEZaWlqN+QaRMVa7EBHS0tIgFothaGio63DKhZ+CxRhjrFawsbFBUlISHj58CAsLCxgaGkIQBF2HxRhjJSIi5OfnIy0tDZmZmWjYsKGuQyo3TkAYY4zVCtKbMFNSUpCUlKTjaBhjTDNisRgNGzascjeUlwUnIIwxxmoNc3NzmJubIz8/H4WFhboOhzHG1KKvr1/tp129jhMQxhhjtY6hoWGN+secMcaqE74JnTHGGGOMMVZpOAFhjDHGGGOMVRpOQBhjjDHGGGOVhhMQxhhjjDHGWKXhBIQxxhhjjDFWaTgBYYwxxhhjjFUaTkAYY4wxxhhjlYbXAamGiAgAkJ6eruNIGGOMMcZYVSQ9T5SeN1YlnIBUQxkZGQAAR0dHHUfCGGOMMcaqsoyMDFhYWOg6DDkCVcW0iJWoqKgIjx49gpmZGQRBqLTtpqenw9HREYmJiTA3N6+07bKKxce15uJjWzPxca25+NjWTLo6rkSEjIwMNGjQAHp6VeuuC74CUg3p6enBwcFBZ9s3NzfnP4w1EB/XmouPbc3Ex7Xm4mNbM+niuFa1Kx9SVSsdYowxxhhjjNVonIAwxhhjjDHGKg0nIExtYrEYc+bMgVgs1nUoTIv4uNZcfGxrJj6uNRcf25qJj6sivgmdMcYYY4wxVmn4CghjjDHGGGOs0nACwhhjjDHGGKs0nIDUYtnZ2Zg9ezaaNm0KIyMjNGjQAOPHj0dSUpLGY7148QJTpkyBk5MTxGIxnJyc8Omnn+Lly5faD5yVSBvH9eXLl9ixYwcCAwPRuHFjiEQimJmZoWPHjli5ciXy8/MrcA+YKtr8nX3dP//8A2NjYwiCgF69emkpWqYubR/XBw8e4IMPPkDjxo0hFothY2ODTp06YenSpVqOnJVGm8f2999/x4ABA2BrawtDQ0PUrVsXfn5+2L9/fwVEzlS5fPkyFi1ahICAADg4OEAQhHKtyVZrz5+I1UrZ2dn0xhtvEACqX78+jRgxgjp06EAAyNbWlu7du6f2WMnJyeTq6koAyMXFhUaMGEGenp4EgJo2bUqpqakVuCfsddo6rjNnziQAJAgCtWnThkaOHEk9e/YksVhMAKhr16706tWrCt4b9jpt/s4W16NHDxIEgQDQm2++qcWoWWm0fVyPHDlCJiYmJAgCtW3blkaNGkW9e/emevXqUZMmTSpoL5gy2jy2K1askP1N7ty5M40cOZI6d+4s+7396quvKnBP2Ov8/f0JgMKrLGrz+RMnILWU9ASzU6dOlJGRIStfvnw5ASAfHx+1xxozZgwBoICAAMrPz5eVf/zxxwSAgoKCtBg5K4m2jut3331HX3zxBcXHx8uV37lzhxo1akQAaMaMGdoMnZVCm7+zr/vll18IAE2cOJETEB3Q5nG9desWGRkZka2tLUVGRsrVFRYW0sWLF7UVNlODto7ts2fPSCwWk6GhIZ08eVKu7tSpUyQWi0kQhHJ9CcHUt2jRIpo1axb9+uuv9PjxY9kXc2VRm8+fOAGphXJzc8nCwoIAUHR0tEJ9q1atCABdunSp1LEePXpEenp6JBKJ6MmTJ3J1OTk5ZGtrS/r6+vT06VOtxc+U0+ZxLcmOHTsIADk7O5drHKa+ijq2T548ISsrK+rduzdFRERwAlLJtH1c+/XrRwDo8OHD2g6VaUibx/bQoUMEgPr06aO0ftCgQQSAdu/eXe64mebKmoDU9vMnvgekFoqMjERaWhqaNGmCNm3aKNQPGzYMAHDo0KFSxzp27BiKiorQrVs32Nvby9WJxWK89dZbKCwsxJEjR7QTPFNJm8e1JF5eXgCAR48elWscpr6KOrZTpkxBdnY21qxZo5U4mWa0eVwTExPx22+/wcXFBf3799d6rEwz2jy26q4dUbduXc2CZDpV28+fOAGpha5duwYA8Pb2VlovLb9+/XqljsXKp7KOxf379wEA9erVK9c4TH0VcWyPHDmC3bt346uvvoKrq2v5g2Qa0+ZxPXnyJIqKitC5c2cUFBRgz549mDJlCiZPnoy1a9fixYsX2guclUqbx7ZDhw6wtLTEiRMncOrUKbm6v/76C7/99hvc3NzQrVu3ckbNKlNtP38y0HUArPIlJCQAABwcHJTWS8vj4+MrdSxWPpV1LFauXAkA8Pf3L9c4TH3aPravXr3CpEmT4O7uji+//FI7QTKNafO4xsTEAABMTU3RrVs3REVFydXPnDkToaGh8PX1LU/ITE3aPLYWFhZYv349Ro8eDV9fX3Tu3BkODg54+PAhzp49iy5dumDLli0QiUTa2wFW4Wr7+RNfAamFMjMzAQAmJiZK6+vUqQMAyMjIqNSxWPlUxrFYu3Yt/vjjD1haWmL69OllHodpRtvH9uuvv0Z8fDzWrl3LJy06pM3jKr3C8csvv+D27dvYsWMHnj9/jtjYWIwdOxbPnz/HkCFDyv3IZqYebf/OBgQE4OjRo6hbty4iIyOxe/duREZGwszMDH5+fmjYsKF2AmeVprafP3ECwhhTy+nTpzFlyhQIgoANGzagQYMGug6JlcGlS5fwww8/4J133kGPHj10HQ7TkqKiIgBAQUEBfvrpJwQGBsLKygpNmzbF1q1b0b59e6SlpfH9PtXU8uXL0atXL3Tv3h3Xr19HZmYmrl+/jp49e2L27NkICAjQdYiMaYQTkFrI1NQUAJCVlaW0/tWrVwAAMzOzSh2LlU9FHou///4b/v7+yMvLw8qVKzFkyJCyB8o0pq1jW1BQgAkTJsDS0hLLli3TbpBMYxXxt9jU1BTDhw9XqB83bhwAKNxDwCqGNo/tyZMn8fnnn6N169bYu3cvWrZsiTp16qBly5YIDQ1F69atcfjwYRw9elR7O8AqXG0/f+J7QGqhRo0aAQAePnyotF5a7uTkVKljsfKpqGMRFxcHPz8/vHjxAnPnzsXHH39cvkCZxrR1bB8+fIirV6+iXr16Ciep0lV3L1++LLsycvLkybIHzUqlzd9ZaZtGjRopXZXZ2dkZAPDs2bOyhMo0pM1ju3XrVgDAkCFDoKcn/72xvr4+AgICcPXqVfz111/o169fecJmlai2nz9xAlILSR+jGh0drbReWt6qVatKHYuVT0Uci8ePH6N37954/PgxpkyZgjlz5pQ/UKYxbR/bJ0+e4MmTJ0rrXr58yd+SVxJtHlfpo15VPe3q+fPnAP771pVVLG0eW+mJqIWFhdJ6aTk/6ax6qfXnT7peiIRVvtcXSLpy5YpCfVkXIiy+WE5tWEinKtHmcSUiev78ObVs2ZIA0Lhx46ioqEjLETN1afvYKsMLEVY+bR7X/Px8qlu3LgmCQLdv31aonzBhAgGg8ePHayN0VgptHtt33nmHANA777yjtH7s2LEEgBYuXFjesFkZaGMhwtp4/sQJSC01c+ZMAkCdO3emzMxMWfny5csJAPn4+Mi1X7VqFbm7u9P06dMVxhozZgwBoKFDh1J+fr6s/JNPPiEAFBQUVFG7wYrR1nF99eoVderUiQDQiBEjqKCgoDLCZyXQ5u+sMpyA6IY2j+u3334rO4ZpaWmy8t9//50MDQ1JEAQ6f/58he0Lk6etYxsWFkYASF9fnw4dOiRXd+DAAdLT0yM9PT2liSereKUlIHz+pBwnILVUdnY2dezYkQBQ/fr1acSIEbKfbW1t6d69e3Lt58yZo/KXITk5mZo0aUIAqEmTJjRy5Ehq0aIFASA3NzdKTU2tpL1i2jqun376qewfvNGjR1NQUJDSF6s82vydVYYTEN3Q5nHNy8ujXr16EQCyt7cnf39/6tKlC+nr6xMA+vbbbytprxiR9o5tUVERDR8+nAAQAGrXrh0NHz6c2rVrJyvjY1t5wsPDqWPHjrKXIAgEQK4sPDxc1p7Pn5TjBKQWy8rKolmzZlGTJk1IJBJRvXr1KDg4mBITExXalnYyk5qaSh9//DE5OjqSSCQiR0dH+uSTT+jFixcVuxNMgTaOa1BQkOwftpJerHJp83e2OE5AdEebxzUvL48WL15Mnp6eZGRkRObm5tSzZ0+Fb85Z5dDWsS0qKqL169dT9+7dydLSkgwMDMjGxob69+9PR48erYQ9YVIbN24s9d/GjRs3ytrz+ZNyAhGR+neMMMYYY4wxxljZ8TogjDHGGGOMsUrDCQhjjDHGGGOs0nACwhhjjDHGGKs0nIAwxhhjjDHGKg0nIIwxxhhjjLFKwwkIY4wxxhhjrNJwAsIYY4wxxhirNJyAMMYYY4wxxioNJyCMMcYYY4yxSsMJCGOMaZEgCCW+evToUaZxHzx4UK7+FcHZ2Vlh/8zNzdG+fXssW7YMeXl5lRbL3LlzIQgCNm3aVCn9KlqPHj0U3ts6deqgefPm+N///ofk5GRdh8gYY2VmoOsAGGOsJgoKClJa7uHhUcmRVLyhQ4fC1NQURIQHDx7g3LlzuHTpEg4dOoTff/8dIpFIZ7H16NEDp06dQlxcHJydnXUWR1n16dMH9erVAwA8fvwYUVFR+P7777F7926cP38eDRs2LNf4J0+ehK+vL4KCgqpcEsYYq7k4AWGMsQpQm07mli1bJndyf/XqVfTo0QN//fUXfv75Z0yePLnCY5g8eTJGjRqF+vXrV0q/yjJ9+nS5q16PHz/Gm2++iVu3bmHOnDn45ZdfdBccY4yVEU/BYowxplWtW7fG1KlTAQAHDhyolG3a2NjAw8MDFhYWldJPV+rXr485c+YAAH777TcdR8MYY2XDCQhjjOnA6dOnMXnyZLRq1QpWVlYwNjaGh4cHpk+fjpcvX2o01pEjR9C7d280bNgQYrEYDRo0QNeuXfHNN98obX/s2DEMGDAAtra2EIvFcHFxwdSpU5GamqqFPZNo06YNACAxMVFprFZWVjAyMoK7u7vKfSYibN++HV27doW9vT2MjIzg6OiIXr16ISQkRK5t8Xs5pPfMnDp1CgDQuHFjufspVPUDgFatWkEQBNy+fVvpvqWmpkIkEsHe3h4FBQVydefPn8fw4cNRv359iEQiODg44L333kNCQoJa75s6PD09AQDPnj1TqNPkcxUcHAxfX18AwObNm+Xen7lz58q1TUxMxOTJk9GkSRMYGRnB2toaAwcOxNmzZ7W2X4yx2oMTEMYY04Fp06Zh/fr1MDY2xptvvok333wT6enpWLx4Mbp27YrMzEy1xgkJCcGAAQMQEREBV1dXDB06FC1atEB8fLzCSSQgmdLTr18//PHHH3B3d8egQYNgYGCAFStWoGPHjnj69KlW9i8jIwMAIBaLZWULFy7EgAEDcPLkSbRt2xaDBw9GVlYWFi9erHTbX3zxBcaOHYtLly7By8sLAQEBcHNzw/Xr17F06dISt29qaoqgoCDY29sDkNynEhQUJHuVZMyYMQCA7du3K63fu3cv8vPzMXLkSBgY/DeTec2aNejcuTPCwsLg5OSEwYMHo27duli/fj3atWuHW7dulbhddUnfWzs7O4U6TT5XXbt2RZ8+fQAATZo0kXt/WrduLWt37tw5eHl5ISQkBIaGhhgwYABatGiB3377Dd27d8fu3bu1sl+MsVqEGGOMaQ0AUudP65EjR+jly5dyZTk5OTRx4kQCQN98841cXVxcHAEgHx8fufJGjRqRIAh08eJFufKioiKKiIiQK9uzZw8BoBYtWtA///wj13b27NmE/2/v/mOiLAM4gH/vDo6DLn4MI0QYGtBMGhnqpJnijGJSCzyOuB2VFa22zNWyKdHK9YdbtgVFc21lQFa6LIcmc9gywFU4MsWVLKOFUaIpxsIEF3rf/nD3xvHzTvDa6vvZ3NzzPPe8z/Py/MGXe5/3AVhcXOzHLC9LTk4mAHZ2do6oc7lcBMCSkhKSZGtrK81mM+12Ow8cOOAz56KiIgJgYWGhUT4wMMCwsDBee+21/Omnn3z6Hhwc5P79+33K1q9fTwCsqanxKc/Ozh5zjGN9rquriyaTiSkpKaN+5vbbbycAn3m0tLTQYrFwxowZPHjwoE/7zZs3EwAXLlw4an+j8Y57+M+QpPGzevTRR0fUBbquGhsbCYArV64cdRx//PEHp0+fTovFwvfff9+n7uuvv2ZMTAztdjtPnz7t99xERBRARESmkDeAjPVvrF+Evfr7+xkSEsLMzEyf8rECSHh4OGNiYvwa2y233EIA/Pbbb0fUeTwezp07lxaLhWfOnPGrv+EBxOPx8Pjx41y3bh0B0GQyGUHhwQcfJAA+99xzI/r57bffGB4eTrPZzK6uLqMMAOfOnevXWKYygAz9XEtLi0/58ePHaTKZmJqa6lOen59PANy9e/eo17n33nsJgIcOHfJrPqMFkO7ubr7xxhu02WxMTU1ld3e3X32RY6+riQJIZWUlAXDNmjWj1ldUVBAAKyoq/B6LiIjegiUichWM9ZiP3W43/n/ixAns3r0b33//Pfr6+uDxeAAAVqsVHR0dfl1n3rx5+OKLL1BaWopnnnnG2B8w3OnTp3HkyBGkpaXh5ptvHlFvMpmwaNEitLW14ZtvvjEezfHHrFmzRpRZrVa89tprWLx4MYDLexOAfx5vGiouLg533XUXdu3ahS+//BIulwtxcXFITExEW1sbysrK8Nhjj+GGG27we0yTVVJSgubmZmzduhVZWVlG+datW0HSZx4ejwf79u1DRETEmPdt8eLF+OSTT9Da2mrsj/GHd4/GUJmZmWhsbERkZOSon5mKdeX16aefAgAcDseo9d6fb2tra0D9isj/mwKIiMhVMNFreCsqKlBWVobBwcFJXWfTpk0oKChAdXU1qqurcf311yM7OxsOhwNOpxMWiwXA5U3ZANDR0eGzCXs0PT09AY3Bew6IyWSC3W7H7NmzsWLFCiQkJBhturu7AWDMszi85SdOnDDK3n33XbhcLmzcuBEbN25EcnIysrOz4XK5sHz58oDGGCin04nVq1fjww8/RGVlpXEfvftChgaQnp4eY2/FRGeeBHpvveeAXLp0CZ2dnfjqq69w6NAhPPXUU6ipqRnRfqrWlZd33SxatGjcdoHOS0T+3xRARESC7MCBA1izZg2ioqLw+uuvY+nSpYiPjzc2bCckJODkyZN+9ZWRkYH29nY0NDRgz549aGpqwvbt27F9+3bcdtttaGpqgtVqNf4KHh8fP+G3G8nJyQHNZ/g5IFditFC0bNky/Pjjj6ivr0dDQwOampqwZcsWbNmyBYWFhfj4448ndc3xxMTEIC8vD3V1dfjss8+Qm5uLI0eO4OjRo1iwYAHS0tKMtt57a7fbUVhYOG6/Y31DNZbh54Ds378fubm5qK2txd133w2n02nUTeW68vLOzel04pprrhmz3X/xgE0RuXoUQEREgqyurg4AsGHDhhGPag0MDODUqVMB9Wez2VBQUICCggIAwNGjR+F2u9HS0oLNmzfjiSeeQGJiIoDL5178G4ckJiQkoLOzEz///DPmzJkzot77l/bhJ3tHRkbC7XbD7XYDuPxLdlFREXbs2IE9e/YgLy/vqo25pKQEdXV1+OCDD5Cbm2t8+3H//ff7tJs2bRpsNhvMZjNqamom/IZpMpYsWYIXX3wR5eXlKC8vx4oVK4xvZ6Z6XQFAYmIijh07hrKyMsybN2/yExARgV7DKyISdL29vQBghIKhPvroI5CcVP/p6elYtWoVAOC7774zrjV79my0t7fjhx9+mFT/V8K7V2Dbtm0j6s6cOYO9e/ca+1DGk5WVhQceeADAP3Mbj/eRqOHndfjjnnvuQVRUFHbu3Inz589j27ZtsFgsKC4u9mkXEhKCpUuXoq+vD/v27Qv4OoF6+umnER8fj46ODp9X4F7Jupro/tx5550A/gk3IiJTQQFERCTIbrzxRgDAO++84/Osfnt7O9atW+d3P/39/aiqqhpxwJzH40FDQwMAICkpySh/4YUX4PF4UFhYiLa2thH9nT17Fm+//XYAM/HfqlWrYDabUVVVhYMHDxrlf/31F1avXo2BgQE4HA5jvF1dXaitrUV/f79PPxcuXEBjYyMA37mNxbsP5dixYwGPOSwsDE6nE+fOncOzzz6LX3/9FTk5OcbZIkM9//zzMJvNePjhh9HU1DSi/s8//0R1dTUGBgYCHsdw4eHhKCsrA3D5bBVvsLiSdTXR/Xn88ccRFxeHV155BW+99ZbxSJbXxYsXsXfvXr/CoIiI4d99CZeIyH8L/DgHpKenh/Hx8QTAWbNm8b777mNOTg5DQ0NZVFRkvN52qNFew9vb20sADA0NZVZWFl0uFx0OB5OSkgiAM2fOZE9Pj08/5eXlBECz2czMzEwWFRXR6XTy1ltvpcViYVRUlN9zHe8ckNFs2LCBABgSEsKcnBy6XC5jrGlpaTx16pTR9vDhwwTAiIgILlmyhG63m/n5+bzuuusIgPPnz+eFCxeM9mO9TnfHjh0EwMjISDqdTpaWlrK0tHTCz3l9/vnnPq9Rfu+998ac35tvvkmLxWKcteJwOFhcXMyFCxcyLCyMANjb2+vXvRrvHBDy8jkp06dPJwDu3LmT5JWtK5LMyMggAC5YsIAPPfQQS0tLuWvXLqO+paWF06ZNIwAmJSVx+fLldLvdXLZsGaOjowmAdXV1fs1LRITUOSAiIlPKnwBCkr/88gvdbjdnzJhBm83Gm266iS+//DIvXrzodwAZHBzkpk2b6HA4mJKSwoiICEZHRzMjI4MvvfQSz549O+q1m5ubWVRUxISEBIaGhjI2NpYZGRl88skn2dzc7PdcAw0gJFlfX8877riDUVFRtFqtTE1N5dq1a/n777/7tOvr6+Orr77KvLw8zpw5kzabjbGxsZw/fz4rKyt5/vx5n/bjBYnKykrOmTPHCAFD7+1EAeTSpUtMTEw0wtC5c+fGnd/hw4e5cuVKJicn02q1Mjo6munp6XzkkUdYX19Pj8fj132aKICQZFVVlREcvAJdVyTZ0dHBgoICxsbG0mw2EwDXr1/v0+bkyZNcu3Yt09PTGRERwYiICKakpDA/P5+1tbUT3hcRkaFM5CQfNhYREREREfGT9oCIiIiIiEjQKICIiIiIiEjQKICIiIiIiEjQKICIiIiIiEjQKICIiIiIiEjQKICIiIiIiEjQKICIiIiIiEjQKICIiIiIiEjQKICIiIiIiEjQKICIiIiIiEjQKICIiIiIiEjQKICIiIiIiEjQKICIiIiIiEjQKICIiIiIiEjQKICIiIiIiEjQKICIiIiIiEjQKICIiIiIiEjQKICIiIiIiEjQ/A1tUKaDQtKdrwAAAABJRU5ErkJggg==;" vertex="1" parent="1">
          <mxGeometry width="800" height="1200" as="geometry" />
        </mxCell>
        <mxCell id="FHj0yWRZeDxC0miNchR--2" value="" style="rounded=0;whiteSpace=wrap;html=1;fillColor=none;strokeWidth=2;" parent="1" vertex="1">
          <mxGeometry x="129" y="626" width="52" height="30" as="geometry" />
        </mxCell>
        <mxCell id="FHj0yWRZeDxC0miNchR--12" value="" style="endArrow=none;html=1;rounded=0;exitX=0;exitY=0.001;exitDx=0;exitDy=0;exitPerimeter=0;dashed=1;" parent="1" source="FHj0yWRZeDxC0miNchR--2" edge="1">
          <mxGeometry width="50" height="50" relative="1" as="geometry">
            <mxPoint x="141" y="623" as="sourcePoint" />
            <mxPoint x="97" y="542" as="targetPoint" />
          </mxGeometry>
        </mxCell>
        <mxCell id="FHj0yWRZeDxC0miNchR--13" value="" style="endArrow=none;html=1;rounded=0;dashed=1;exitX=1.004;exitY=0.002;exitDx=0;exitDy=0;exitPerimeter=0;" parent="1" edge="1" source="FHj0yWRZeDxC0miNchR--2">
          <mxGeometry width="50" height="50" relative="1" as="geometry">
            <mxPoint x="183" y="626" as="sourcePoint" />
            <mxPoint x="761" y="541" as="targetPoint" />
          </mxGeometry>
        </mxCell>
      </root>
    </mxGraphModel>
  </diagram>
</mxfile>
